<svg width="200" height="384" viewBox="0 0 200 384" fill="none" xmlns="http://www.w3.org/2000/svg">
<path d="M0 200H200L181.959 383.681H21.6495L0 200Z" fill="url(#paint0_linear_63_64)"/>
<g clip-path="url(#clip0_63_64)">
<mask id="mask0_63_64" style="mask-type:luminance" maskUnits="userSpaceOnUse" x="0" y="0" width="200" height="200">
<path d="M200 0H0V200H200V0Z" fill="white"/>
</mask>
<g mask="url(#mask0_63_64)">
<path fill-rule="evenodd" clip-rule="evenodd" d="M44 0H0V150C0 177.614 22.3858 200 50 200H94V50C94 22.3858 71.6142 0 44 0ZM156 0C128.386 0 106 22.3858 106 50V200H150C177.614 200 200 177.614 200 150V0H156Z" fill="url(#paint1_linear_63_64)"/>
</g>
</g>
<defs>
<linearGradient id="paint0_linear_63_64" x1="200" y1="291.841" x2="5.43371e-07" y2="291.841" gradientUnits="userSpaceOnUse">
<stop stop-color="#F3F3F3"/>
<stop offset="1" stop-color="#636363"/>
</linearGradient>
<linearGradient id="paint1_linear_63_64" x1="100" y1="0" x2="100" y2="200" gradientUnits="userSpaceOnUse">
<stop stop-color="#1FAA67"/>
<stop offset="1" stop-color="#00E688"/>
</linearGradient>
<clipPath id="clip0_63_64">
<rect width="200" height="200" fill="white"/>
</clipPath>
</defs>
</svg>
