<svg width="1109" height="252" viewBox="0 0 1109 252" fill="none" xmlns="http://www.w3.org/2000/svg">
<path d="M0 32C0 16.9151 0 9.37258 4.68629 4.68629C9.37258 0 16.9151 0 32 0H297.232C299.488 0 300.616 0 301.729 0.157183C302.842 0.314365 303.926 0.626672 306.093 1.25128L417.336 33.3084C419.503 33.933 420.587 34.2453 421.7 34.4025C422.813 34.5597 423.941 34.5597 426.197 34.5597H553.21H685.919C687.907 34.5597 688.902 34.5597 689.886 34.4372C690.87 34.3147 691.834 34.0709 693.762 33.5834L822.731 0.976217C824.659 0.488734 825.623 0.244992 826.607 0.122496C827.591 0 828.586 0 830.574 0H1077C1092.08 0 1099.63 0 1104.31 4.68629C1109 9.37258 1109 16.9151 1109 32V172C1109 209.712 1109 228.569 1097.28 240.284C1085.57 252 1066.71 252 1029 252H80C42.2876 252 23.4315 252 11.7157 240.284C0 228.569 0 209.712 0 172V32Z" fill="#00E688"/>
</svg>
