<svg width="40" height="40" viewBox="0 0 40 40" fill="none" xmlns="http://www.w3.org/2000/svg">
<path d="M20 2.5C10.3359 2.5 2.5 10.3359 2.5 20C2.5 29.6641 10.3359 37.5 20 37.5C29.6641 37.5 37.5 29.6641 37.5 20C37.5 10.3359 29.6641 2.5 20 2.5ZM20 34.5312C11.9766 34.5312 5.46875 28.0234 5.46875 20C5.46875 11.9766 11.9766 5.46875 20 5.46875C28.0234 5.46875 34.5312 11.9766 34.5312 20C34.5312 28.0234 28.0234 34.5312 20 34.5312Z" fill="#8A88FF"/>
<path d="M20 5.46875C11.9766 5.46875 5.46875 11.9766 5.46875 20C5.46875 28.0234 11.9766 34.5312 20 34.5312C28.0234 34.5312 34.5312 28.0234 34.5312 20C34.5312 11.9766 28.0234 5.46875 20 5.46875ZM21.25 28.4375C21.25 28.6094 21.1094 28.75 20.9375 28.75H19.0625C18.8906 28.75 18.75 28.6094 18.75 28.4375V17.8125C18.75 17.6406 18.8906 17.5 19.0625 17.5H20.9375C21.1094 17.5 21.25 17.6406 21.25 17.8125V28.4375ZM20 15C19.5093 14.99 19.0422 14.788 18.6987 14.4375C18.3553 14.087 18.1629 13.6158 18.1629 13.125C18.1629 12.6342 18.3553 12.163 18.6987 11.8125C19.0422 11.462 19.5093 11.26 20 11.25C20.4907 11.26 20.9578 11.462 21.3013 11.8125C21.6447 12.163 21.8371 12.6342 21.8371 13.125C21.8371 13.6158 21.6447 14.087 21.3013 14.4375C20.9578 14.788 20.4907 14.99 20 15Z" fill="#1A1A1A"/>
<path d="M18.125 13.125C18.125 13.6223 18.3225 14.0992 18.6742 14.4508C19.0258 14.8025 19.5027 15 20 15C20.4973 15 20.9742 14.8025 21.3258 14.4508C21.6775 14.0992 21.875 13.6223 21.875 13.125C21.875 12.6277 21.6775 12.1508 21.3258 11.7992C20.9742 11.4475 20.4973 11.25 20 11.25C19.5027 11.25 19.0258 11.4475 18.6742 11.7992C18.3225 12.1508 18.125 12.6277 18.125 13.125ZM20.9375 17.5H19.0625C18.8906 17.5 18.75 17.6406 18.75 17.8125V28.4375C18.75 28.6094 18.8906 28.75 19.0625 28.75H20.9375C21.1094 28.75 21.25 28.6094 21.25 28.4375V17.8125C21.25 17.6406 21.1094 17.5 20.9375 17.5Z" fill="#8A88FF"/>
</svg>
