<svg width="306" height="138" viewBox="0 0 306 138" fill="none" xmlns="http://www.w3.org/2000/svg">
<path d="M2.70312 1.125H61.2031V15.5625H40.7656V69H23.1406V15.5625H2.70312V1.125ZM130.484 35.0625C130.484 42.375 129.047 48.6562 126.172 53.9062C123.328 59.1562 119.422 63.1406 114.453 65.8594C109.484 68.5781 103.891 69.9375 97.6719 69.9375C91.4219 69.9375 85.7969 68.5781 80.7969 65.8594C75.8281 63.1406 71.9062 59.1562 69.0312 53.9062C66.1875 48.6562 64.7656 42.375 64.7656 35.0625C64.7656 27.75 66.1875 21.4688 69.0312 16.2188C71.9062 10.9688 75.8281 6.98438 80.7969 4.26562C85.7656 1.54688 91.3906 0.1875 97.6719 0.1875C103.891 0.1875 109.484 1.54688 114.453 4.26562C119.422 6.98438 123.328 10.9688 126.172 16.2188C129.047 21.4688 130.484 27.75 130.484 35.0625ZM112.109 35.0625C112.109 28.8438 110.859 24.0781 108.359 20.7656C105.891 17.4219 102.328 15.75 97.6719 15.75C92.9844 15.75 89.3906 17.4219 86.8906 20.7656C84.3906 24.0781 83.1406 28.8438 83.1406 35.0625C83.1406 41.2812 84.3906 46.0625 86.8906 49.4062C89.3906 52.7188 92.9844 54.375 97.6719 54.375C102.328 54.375 105.891 52.7188 108.359 49.4062C110.859 46.0625 112.109 41.2812 112.109 35.0625ZM172.484 41.8125H140.797V28.4062H172.484V41.8125ZM183.359 1.125H212.422C217.484 1.125 221.781 1.82812 225.312 3.23438C228.875 4.60937 231.547 6.57812 233.328 9.14062C235.141 11.6719 236.047 14.6875 236.047 18.1875C236.047 20.6563 235.5 22.9219 234.406 24.9844C233.312 27.0156 231.781 28.7344 229.812 30.1406C227.844 31.5156 225.578 32.4688 223.016 33V33.6562C225.859 33.75 228.469 34.4844 230.844 35.8594C233.25 37.2344 235.156 39.1406 236.562 41.5781C237.969 43.9844 238.672 46.75 238.672 49.875C238.672 53.5625 237.703 56.8594 235.766 59.7656C233.859 62.6406 231.109 64.9062 227.516 66.5625C223.922 68.1875 219.703 69 214.859 69H183.359V1.125ZM210.266 54.6562C213.422 54.6562 215.797 54.0625 217.391 52.875C219.016 51.6875 219.828 49.9375 219.828 47.625C219.828 45.1562 219 43.25 217.344 41.9062C215.688 40.5312 213.422 39.8438 210.547 39.8438H201.172V54.6562H210.266ZM209.141 28.6875C211.672 28.6875 213.719 28.0938 215.281 26.9062C216.875 25.7188 217.672 24.0625 217.672 21.9375C217.672 19.8125 216.922 18.1562 215.422 16.9688C213.922 15.7813 211.922 15.1875 209.422 15.1875H201.172V28.6875H209.141ZM263.328 69H245.516V1.125H263.328V69Z" fill="#00E688"/>
<path d="M125.194 115.062H109.319V123.312H130.694V131.25H77.8812V123.312H99.2562V115.062H83.7562V82.9375H124.881V90.875H93.9437V95.125H123.444V102.875H93.9437V107.188H125.194V115.062ZM163.531 112.875H142.406V103.938H163.531V112.875ZM224.244 137.375H214.119V79.375H224.244V137.375ZM188.056 97.0625H197.431V83.8125H207.306V124.125H177.994V83.8125H188.056V97.0625ZM197.431 116.062V104.812H188.056V116.062H197.431Z" fill="#00E688"/>
</svg>
