<svg width="177" height="49" viewBox="0 0 177 49" fill="none" xmlns="http://www.w3.org/2000/svg">
<path d="M2.90625 0.03125L8.625 14H8.83594L14.5547 0.03125H17.0859V17H15.0938V4.17969H14.9297L9.65625 17H7.78125L2.50781 4.17969H2.36719V17H0.375V0.03125H2.90625ZM19.9688 13.3906C19.9688 12.0703 20.418 11.1406 21.3164 10.6016C22.2227 10.0625 23.3672 9.74219 24.75 9.64062C25.2812 9.60156 25.875 9.56641 26.5312 9.53516C27.1953 9.49609 27.75 9.46875 28.1953 9.45312V8.42188C28.1953 7.60156 27.9492 6.97266 27.457 6.53516C26.9727 6.08984 26.2578 5.86719 25.3125 5.86719C24.5391 5.86719 23.9062 6.02734 23.4141 6.34766C22.9219 6.66016 22.6016 7.07031 22.4531 7.57812H20.3438C20.4297 6.89844 20.6953 6.29688 21.1406 5.77344C21.5859 5.25 22.1758 4.84375 22.9102 4.55469C23.6523 4.25781 24.4844 4.10938 25.4062 4.10938C26.625 4.10938 27.7266 4.42188 28.7109 5.04688C29.6953 5.66406 30.1875 6.85156 30.1875 8.60938V17H28.1953V15.2656H28.1016C27.9453 15.5938 27.7031 15.9141 27.375 16.2266C27.0547 16.5312 26.6328 16.7891 26.1094 17C25.5938 17.2031 24.9922 17.3047 24.3047 17.3047C23.4922 17.3047 22.7578 17.1484 22.1016 16.8359C21.4453 16.5234 20.9258 16.0742 20.543 15.4883C20.1602 14.8945 19.9688 14.1953 19.9688 13.3906ZM21.9844 13.4844C21.9844 14.1328 22.2266 14.6328 22.7109 14.9844C23.2031 15.3281 23.8516 15.5 24.6562 15.5C25.3828 15.5 26.0117 15.3555 26.543 15.0664C27.082 14.7773 27.4922 14.3945 27.7734 13.918C28.0547 13.4414 28.1953 12.9297 28.1953 12.3828V11.1055L24.9844 11.3281C24.0312 11.3906 23.293 11.5977 22.7695 11.9492C22.2461 12.3008 21.9844 12.8125 21.9844 13.4844ZM38.2266 17.2578C37.1719 17.2578 36.2344 16.9883 35.4141 16.4492C34.6016 15.9102 33.9648 15.1445 33.5039 14.1523C33.043 13.1523 32.8125 11.9922 32.8125 10.6719C32.8125 9.35156 33.043 8.19531 33.5039 7.20312C33.9648 6.21094 34.6055 5.44922 35.4258 4.91797C36.2461 4.37891 37.1875 4.10938 38.25 4.10938C39 4.10938 39.6211 4.23438 40.1133 4.48438C40.6055 4.72656 40.9688 4.98828 41.2031 5.26953C41.4375 5.54297 41.6797 5.88281 41.9297 6.28906H42.0703V0.03125H44.1094V17H42.1406V15.0547H41.9297C41.6641 15.4688 41.4102 15.8164 41.168 16.0977C40.9336 16.3789 40.5703 16.6445 40.0781 16.8945C39.5859 17.1367 38.9688 17.2578 38.2266 17.2578ZM38.5078 15.4531C39.2656 15.4531 39.918 15.2539 40.4648 14.8555C41.0117 14.4492 41.4258 13.8828 41.707 13.1562C41.9961 12.4219 42.1406 11.5781 42.1406 10.625C42.1406 9.67969 42 8.85547 41.7188 8.15234C41.4453 7.44141 41.0352 6.89062 40.4883 6.5C39.9414 6.10938 39.2812 5.91406 38.5078 5.91406C37.7188 5.91406 37.0508 6.12109 36.5039 6.53516C35.957 6.94141 35.543 7.5 35.2617 8.21094C34.9883 8.92188 34.8516 9.72656 34.8516 10.625C34.8516 11.5469 34.9883 12.375 35.2617 13.1094C35.543 13.8359 35.957 14.4102 36.5039 14.832C37.0586 15.2461 37.7266 15.4531 38.5078 15.4531ZM52.9453 17.2578C51.7344 17.2578 50.6797 16.9883 49.7812 16.4492C48.8828 15.9102 48.1914 15.1484 47.707 14.1641C47.2305 13.1797 46.9922 12.0391 46.9922 10.7422C46.9922 9.44531 47.2305 8.29688 47.707 7.29688C48.1914 6.28906 48.8672 5.50781 49.7344 4.95312C50.6094 4.39062 51.6172 4.10938 52.7578 4.10938C53.7188 4.10938 54.6133 4.32422 55.4414 4.75391C56.2695 5.17578 56.9414 5.86328 57.457 6.81641C57.9805 7.76172 58.2422 8.97656 58.2422 10.4609V11.3047H49.0078C49.0391 12.1875 49.2227 12.9414 49.5586 13.5664C49.8945 14.1914 50.3516 14.668 50.9297 14.9961C51.5156 15.3164 52.1875 15.4766 52.9453 15.4766C53.6641 15.4766 54.2695 15.3438 54.7617 15.0781C55.2617 14.8047 55.6406 14.4531 55.8984 14.0234H58.0547C57.8516 14.6641 57.5117 15.2305 57.0352 15.7227C56.5664 16.207 55.9805 16.5859 55.2773 16.8594C54.582 17.125 53.8047 17.2578 52.9453 17.2578ZM56.2031 9.59375C56.2031 8.88281 56.0586 8.25 55.7695 7.69531C55.4883 7.13281 55.0859 6.69141 54.5625 6.37109C54.0391 6.05078 53.4375 5.89062 52.7578 5.89062C52.0469 5.89062 51.4141 6.05859 50.8594 6.39453C50.3125 6.73047 49.8789 7.18359 49.5586 7.75391C49.2461 8.31641 49.0664 8.92969 49.0195 9.59375H56.2031ZM67.1484 0.03125H69.1641V6.28906H69.3281C69.6328 5.82812 69.8867 5.47266 70.0898 5.22266C70.3008 4.96484 70.6523 4.71484 71.1445 4.47266C71.6367 4.23047 72.2578 4.10938 73.0078 4.10938C74.0703 4.10938 75.0117 4.37891 75.832 4.91797C76.6523 5.44922 77.293 6.21094 77.7539 7.20312C78.2148 8.19531 78.4453 9.35156 78.4453 10.6719C78.4453 11.9922 78.2148 13.1523 77.7539 14.1523C77.293 15.1445 76.6523 15.9102 75.832 16.4492C75.0195 16.9883 74.0859 17.2578 73.0312 17.2578C72.2891 17.2578 71.6719 17.1367 71.1797 16.8945C70.6875 16.6445 70.3203 16.3789 70.0781 16.0977C69.8438 15.8164 69.5938 15.4688 69.3281 15.0547H69.0938V17H67.1484V0.03125ZM69.1172 10.625C69.1172 11.5859 69.2578 12.4297 69.5391 13.1562C69.8203 13.8828 70.2305 14.4492 70.7695 14.8555C71.3164 15.2539 71.9688 15.4531 72.7266 15.4531C73.5078 15.4531 74.1758 15.2461 74.7305 14.832C75.2852 14.4102 75.7031 13.8359 75.9844 13.1094C76.2656 12.375 76.4062 11.5469 76.4062 10.625C76.4062 9.72656 76.2656 8.92188 75.9844 8.21094C75.7109 7.5 75.2969 6.94141 74.7422 6.53516C74.1953 6.12109 73.5234 5.91406 72.7266 5.91406C71.9609 5.91406 71.3047 6.10938 70.7578 6.5C70.2188 6.89062 69.8086 7.44141 69.5273 8.15234C69.2539 8.85547 69.1172 9.67969 69.1172 10.625ZM81.8906 21.7812C81.4844 21.7812 81.1094 21.7656 80.7656 21.7344V19.9297C81.0469 19.9609 81.375 19.9766 81.75 19.9766C82.0859 19.9766 82.3672 19.9414 82.5938 19.8711C82.8203 19.8008 83.0469 19.625 83.2734 19.3438C83.5 19.0703 83.7188 18.6406 83.9297 18.0547L84.3047 17.0938L79.5938 4.27344H81.7969L85.2656 14.375H85.4062L88.875 4.27344H91.0781L85.6875 18.8281C85.3125 19.8203 84.8125 20.5586 84.1875 21.043C83.5625 21.5352 82.7969 21.7812 81.8906 21.7812ZM98.6484 0.03125H111.445V1.90625H106.125V17H103.992V1.90625H98.6484V0.03125ZM117.492 17.2578C116.281 17.2578 115.227 16.9883 114.328 16.4492C113.43 15.9102 112.738 15.1484 112.254 14.1641C111.777 13.1797 111.539 12.0391 111.539 10.7422C111.539 9.44531 111.777 8.29688 112.254 7.29688C112.738 6.28906 113.414 5.50781 114.281 4.95312C115.156 4.39062 116.164 4.10938 117.305 4.10938C118.266 4.10938 119.16 4.32422 119.988 4.75391C120.816 5.17578 121.488 5.86328 122.004 6.81641C122.527 7.76172 122.789 8.97656 122.789 10.4609V11.3047H113.555C113.586 12.1875 113.77 12.9414 114.105 13.5664C114.441 14.1914 114.898 14.668 115.477 14.9961C116.062 15.3164 116.734 15.4766 117.492 15.4766C118.211 15.4766 118.816 15.3438 119.309 15.0781C119.809 14.8047 120.188 14.4531 120.445 14.0234H122.602C122.398 14.6641 122.059 15.2305 121.582 15.7227C121.113 16.207 120.527 16.5859 119.824 16.8594C119.129 17.125 118.352 17.2578 117.492 17.2578ZM120.75 9.59375C120.75 8.88281 120.605 8.25 120.316 7.69531C120.035 7.13281 119.633 6.69141 119.109 6.37109C118.586 6.05078 117.984 5.89062 117.305 5.89062C116.594 5.89062 115.961 6.05859 115.406 6.39453C114.859 6.73047 114.426 7.18359 114.105 7.75391C113.793 8.31641 113.613 8.92969 113.566 9.59375H120.75ZM124.805 13.3906C124.805 12.0703 125.254 11.1406 126.152 10.6016C127.059 10.0625 128.203 9.74219 129.586 9.64062C130.117 9.60156 130.711 9.56641 131.367 9.53516C132.031 9.49609 132.586 9.46875 133.031 9.45312V8.42188C133.031 7.60156 132.785 6.97266 132.293 6.53516C131.809 6.08984 131.094 5.86719 130.148 5.86719C129.375 5.86719 128.742 6.02734 128.25 6.34766C127.758 6.66016 127.438 7.07031 127.289 7.57812H125.18C125.266 6.89844 125.531 6.29688 125.977 5.77344C126.422 5.25 127.012 4.84375 127.746 4.55469C128.488 4.25781 129.32 4.10938 130.242 4.10938C131.461 4.10938 132.562 4.42188 133.547 5.04688C134.531 5.66406 135.023 6.85156 135.023 8.60938V17H133.031V15.2656H132.938C132.781 15.5938 132.539 15.9141 132.211 16.2266C131.891 16.5312 131.469 16.7891 130.945 17C130.43 17.2031 129.828 17.3047 129.141 17.3047C128.328 17.3047 127.594 17.1484 126.938 16.8359C126.281 16.5234 125.762 16.0742 125.379 15.4883C124.996 14.8945 124.805 14.1953 124.805 13.3906ZM126.82 13.4844C126.82 14.1328 127.062 14.6328 127.547 14.9844C128.039 15.3281 128.688 15.5 129.492 15.5C130.219 15.5 130.848 15.3555 131.379 15.0664C131.918 14.7773 132.328 14.3945 132.609 13.918C132.891 13.4414 133.031 12.9297 133.031 12.3828V11.1055L129.82 11.3281C128.867 11.3906 128.129 11.5977 127.605 11.9492C127.082 12.3008 126.82 12.8125 126.82 13.4844ZM138.258 4.27344H140.203V6.26562H140.367C140.641 5.57812 141.07 5.04688 141.656 4.67188C142.25 4.29688 142.961 4.10938 143.789 4.10938C144.602 4.10938 145.293 4.29688 145.863 4.67188C146.434 5.03906 146.875 5.57031 147.188 6.26562H147.328C147.664 5.59375 148.16 5.06641 148.816 4.68359C149.473 4.30078 150.25 4.10938 151.148 4.10938C151.922 4.10938 152.598 4.26953 153.176 4.58984C153.762 4.91016 154.219 5.39844 154.547 6.05469C154.875 6.70312 155.039 7.51562 155.039 8.49219V17H153.023V8.51562C153.023 7.63281 152.781 6.98047 152.297 6.55859C151.812 6.12891 151.195 5.91406 150.445 5.91406C149.867 5.91406 149.367 6.03516 148.945 6.27734C148.523 6.51953 148.203 6.85156 147.984 7.27344C147.766 7.69531 147.656 8.17969 147.656 8.72656V17H145.617V8.30469C145.617 7.83594 145.512 7.42188 145.301 7.0625C145.09 6.69531 144.793 6.41406 144.41 6.21875C144.035 6.01562 143.609 5.91406 143.133 5.91406C142.625 5.91406 142.152 6.05078 141.715 6.32422C141.277 6.58984 140.926 6.96094 140.66 7.4375C140.402 7.91406 140.273 8.45312 140.273 9.05469V17H138.258V4.27344ZM169.805 17.2344C168.797 17.2344 167.879 17.043 167.051 16.6602C166.23 16.2695 165.574 15.7344 165.082 15.0547C164.598 14.3672 164.336 13.5938 164.297 12.7344H166.336C166.391 13.2344 166.578 13.6875 166.898 14.0938C167.219 14.4922 167.633 14.8086 168.141 15.043C168.648 15.2695 169.203 15.3828 169.805 15.3828C170.523 15.3828 171.172 15.2188 171.75 14.8906C172.328 14.5625 172.781 14.1133 173.109 13.543C173.438 12.9727 173.602 12.3359 173.602 11.6328C173.602 10.9062 173.43 10.2539 173.086 9.67578C172.75 9.08984 172.281 8.63281 171.68 8.30469C171.086 7.96875 170.414 7.79688 169.664 7.78906C168.156 7.76562 167.102 8.27344 166.5 9.3125H164.461L165.656 0.03125H174.844V1.90625H167.414L166.781 6.875H166.945C167.328 6.57812 167.793 6.33984 168.34 6.16016C168.887 5.98047 169.453 5.89062 170.039 5.89062C171.102 5.89062 172.059 6.13672 172.91 6.62891C173.77 7.11328 174.441 7.78906 174.926 8.65625C175.418 9.52344 175.664 10.5 175.664 11.5859C175.664 12.6641 175.41 13.6328 174.902 14.4922C174.395 15.3516 173.695 16.0234 172.805 16.5078C171.914 16.9922 170.914 17.2344 169.805 17.2344ZM135.164 33.0352C135.151 35.7891 134.533 38.237 133.309 40.3789C132.085 42.5208 130.001 44.3112 127.059 45.75L126.199 44.5195C127.788 43.7578 129.103 42.8822 130.145 41.8926C131.193 40.903 132 39.806 132.566 38.6016L126.531 39.1875L126.277 37.8203L133.045 37.3711C133.357 36.4271 133.549 35.4049 133.621 34.3047H127.156V33.0352H135.164ZM140.203 48.582H138.66V31.2188H140.203V48.582ZM159.012 42.4688H151.766V48.582H150.262V42.4688H143.113V41.1797H159.012V42.4688ZM151.023 31.9219C152.234 31.9219 153.302 32.0781 154.227 32.3906C155.151 32.6966 155.867 33.1393 156.375 33.7188C156.883 34.2982 157.137 34.9753 157.137 35.75C157.137 36.5052 156.883 37.1693 156.375 37.7422C155.867 38.3086 155.151 38.748 154.227 39.0605C153.302 39.3665 152.234 39.5195 151.023 39.5195C149.812 39.5195 148.745 39.3665 147.82 39.0605C146.896 38.748 146.18 38.3086 145.672 37.7422C145.164 37.1693 144.91 36.5052 144.91 35.75C144.91 34.9753 145.164 34.2982 145.672 33.7188C146.18 33.1393 146.896 32.6966 147.82 32.3906C148.745 32.0781 149.812 31.9219 151.023 31.9219ZM151.023 33.1719C150.125 33.1719 149.331 33.2793 148.641 33.4941C147.957 33.7025 147.426 34.002 147.049 34.3926C146.671 34.7832 146.486 35.2357 146.492 35.75C146.486 36.2578 146.671 36.7038 147.049 37.0879C147.426 37.472 147.957 37.7682 148.641 37.9766C149.331 38.1849 150.125 38.2891 151.023 38.2891C151.915 38.2891 152.706 38.1849 153.396 37.9766C154.087 37.7682 154.62 37.472 154.998 37.0879C155.382 36.7038 155.574 36.2578 155.574 35.75C155.574 35.2357 155.382 34.7832 154.998 34.3926C154.62 34.002 154.087 33.7025 153.396 33.4941C152.706 33.2793 151.915 33.1719 151.023 33.1719ZM176.316 46.3555H160.418V45.0664H167.586V40.8477H169.129V45.0664H176.316V46.3555ZM169.129 34.5195C169.129 35.4049 169.448 36.2513 170.086 37.0586C170.724 37.8594 171.541 38.5365 172.537 39.0898C173.533 39.6367 174.539 39.9948 175.555 40.1641L174.93 41.375C174.025 41.1992 173.136 40.8997 172.264 40.4766C171.398 40.0469 170.62 39.513 169.93 38.875C169.24 38.237 168.715 37.5306 168.357 36.7559C167.999 37.5371 167.475 38.25 166.785 38.8945C166.102 39.5391 165.327 40.0794 164.461 40.5156C163.602 40.9518 162.729 41.2643 161.844 41.4531L161.199 40.2227C162.195 40.0469 163.185 39.679 164.168 39.1191C165.151 38.5592 165.958 37.8724 166.59 37.0586C167.228 36.2448 167.547 35.3984 167.547 34.5195V34.0898H161.727V32.8008H174.949V34.0898H169.129V34.5195Z" fill="white"/>
</svg>
