<svg width="450" height="350" viewBox="0 0 450 350" fill="none" xmlns="http://www.w3.org/2000/svg">
<rect width="450" height="350" rx="44" fill="white"/>
<path d="M42.0938 109C42.0859 109.938 42.3008 110.844 42.7383 111.719C43.1836 112.594 43.8047 113.367 44.6016 114.039C45.3984 114.711 46.3047 115.227 47.3203 115.586L46.3828 117.062C45.2031 116.641 44.168 116.008 43.2773 115.164C42.3945 114.32 41.7188 113.34 41.25 112.223C40.8125 113.465 40.1406 114.551 39.2344 115.48C38.3281 116.402 37.2578 117.102 36.0234 117.578L35.0156 116.102C36.0625 115.727 36.9805 115.184 37.7695 114.473C38.5664 113.754 39.1836 112.918 39.6211 111.965C40.0586 111.012 40.2812 110 40.2891 108.93V106.352H42.0938V109ZM51.375 111.461H54.5156V113.031H51.375V120.461H49.5469V105.062H51.375V111.461ZM52.3359 125.453H38.3672V118.984H40.2422V123.906H52.3359V125.453ZM62.0156 110.992C62.0156 112.102 62.1914 113.211 62.543 114.32C62.8945 115.43 63.3984 116.441 64.0547 117.355C64.7188 118.27 65.5 118.992 66.3984 119.523L65.3438 120.953C64.3672 120.359 63.5195 119.543 62.8008 118.504C62.0898 117.457 61.543 116.281 61.1602 114.977C60.7695 116.383 60.1953 117.648 59.4375 118.773C58.6797 119.898 57.7891 120.773 56.7656 121.398L55.5938 120.016C56.5312 119.469 57.3516 118.723 58.0547 117.777C58.7578 116.824 59.2969 115.766 59.6719 114.602C60.0469 113.43 60.2344 112.25 60.2344 111.062V107.031H62.0156V110.992ZM73.6875 125.898H71.9062V105.062H73.6875V125.898ZM69.375 124.844H67.6406V114.109H64.1016V112.539H67.6406V105.508H69.375V124.844ZM79.1016 112.234H83.6484V107.125H85.3359V112.984H88.4766V105.531H90.2344V124.867H88.4766V114.531H85.3359V120.672H77.3438V107.125H79.1016V112.234ZM83.6484 119.125V113.734H79.1016V119.125H83.6484ZM94.4297 125.898H92.6484V105.062H94.4297V125.898ZM114.516 125.945H112.688V105.062H114.516V125.945ZM108.188 114.414H100.406V119.336C102.273 119.336 104.008 119.281 105.609 119.172C107.219 119.062 108.906 118.867 110.672 118.586L110.859 120.133C109.055 120.422 107.328 120.621 105.68 120.73C104.031 120.832 102.227 120.883 100.266 120.883H98.5312V112.914H106.336V108.531H98.4844V107.008H108.188V114.414ZM123.633 106.68C124.656 106.688 125.562 106.992 126.352 107.594C127.148 108.188 127.77 109.031 128.215 110.125C128.668 111.219 128.898 112.492 128.906 113.945C128.898 115.398 128.668 116.672 128.215 117.766C127.77 118.859 127.148 119.703 126.352 120.297C125.555 120.891 124.648 121.188 123.633 121.188C122.609 121.188 121.699 120.891 120.902 120.297C120.105 119.703 119.484 118.859 119.039 117.766C118.602 116.672 118.383 115.398 118.383 113.945C118.383 112.492 118.602 111.219 119.039 110.125C119.484 109.031 120.105 108.188 120.902 107.594C121.699 106.992 122.609 106.688 123.633 106.68ZM123.633 108.32C122.945 108.328 122.336 108.566 121.805 109.035C121.273 109.496 120.859 110.152 120.562 111.004C120.266 111.848 120.117 112.828 120.117 113.945C120.117 115.062 120.266 116.047 120.562 116.898C120.859 117.742 121.273 118.395 121.805 118.855C122.344 119.316 122.953 119.547 123.633 119.547C124.32 119.547 124.926 119.316 125.449 118.855C125.98 118.395 126.391 117.742 126.68 116.898C126.977 116.047 127.125 115.062 127.125 113.945C127.125 112.828 126.977 111.848 126.68 111.004C126.391 110.152 125.98 109.496 125.449 109.035C124.926 108.566 124.32 108.328 123.633 108.32ZM134.18 113.383H137.672V114.977H134.18V125.898H132.352V105.062H134.18V113.383ZM155.648 112.867H141.375V105.836H143.203V111.391H155.648V112.867ZM157.852 117.203H138.773V115.703H157.852V117.203ZM155.766 125.383H141.258V119.336H143.086V123.859H155.766V125.383ZM181.688 112.75H184.828V115.188H181.688V126.203H178.688V104.828H181.688V112.75ZM175.711 109.211H168.68V118.562C170.359 118.547 171.859 118.488 173.18 118.387C174.5 118.285 175.828 118.117 177.164 117.883L177.492 120.391C176.062 120.633 174.652 120.801 173.262 120.895C171.879 120.98 170.289 121.023 168.492 121.023H167.508H165.703V106.797H175.711V109.211ZM205.289 109.914H202.523V112.117H205.289V114.578H202.523V117.297H199.523V104.828H202.523V107.477H205.289V109.914ZM191.602 106C192.695 105.992 193.684 106.211 194.566 106.656C195.449 107.094 196.145 107.707 196.652 108.496C197.16 109.277 197.414 110.164 197.414 111.156C197.414 112.148 197.16 113.035 196.652 113.816C196.145 114.598 195.449 115.211 194.566 115.656C193.684 116.094 192.695 116.312 191.602 116.312C190.5 116.312 189.504 116.094 188.613 115.656C187.723 115.211 187.02 114.598 186.504 113.816C185.996 113.035 185.742 112.148 185.742 111.156C185.742 110.164 185.996 109.277 186.504 108.496C187.02 107.707 187.723 107.094 188.613 106.656C189.504 106.211 190.5 105.992 191.602 106ZM191.602 108.508C191.039 108.5 190.535 108.605 190.09 108.824C189.652 109.035 189.309 109.344 189.059 109.75C188.809 110.148 188.688 110.617 188.695 111.156C188.688 111.695 188.805 112.168 189.047 112.574C189.297 112.973 189.645 113.277 190.09 113.488C190.535 113.699 191.039 113.805 191.602 113.805C192.148 113.805 192.641 113.699 193.078 113.488C193.516 113.277 193.859 112.973 194.109 112.574C194.367 112.168 194.5 111.695 194.508 111.156C194.5 110.617 194.367 110.148 194.109 109.75C193.859 109.344 193.516 109.035 193.078 108.824C192.641 108.605 192.148 108.5 191.602 108.508ZM195.539 117.719C196.992 117.719 198.262 117.891 199.348 118.234C200.434 118.57 201.27 119.059 201.855 119.699C202.441 120.332 202.734 121.086 202.734 121.961C202.734 122.828 202.441 123.574 201.855 124.199C201.27 124.832 200.434 125.316 199.348 125.652C198.262 125.988 196.992 126.156 195.539 126.156C194.055 126.156 192.762 125.988 191.66 125.652C190.559 125.316 189.711 124.832 189.117 124.199C188.523 123.574 188.227 122.828 188.227 121.961C188.227 121.086 188.523 120.332 189.117 119.699C189.711 119.059 190.559 118.57 191.66 118.234C192.762 117.891 194.055 117.719 195.539 117.719ZM195.539 120.086C194.125 120.086 193.051 120.246 192.316 120.566C191.582 120.879 191.219 121.344 191.227 121.961C191.219 122.578 191.578 123.039 192.305 123.344C193.039 123.641 194.117 123.789 195.539 123.789C198.367 123.789 199.781 123.18 199.781 121.961C199.781 121.344 199.422 120.879 198.703 120.566C197.984 120.246 196.93 120.086 195.539 120.086ZM223.266 111.391H226.148V113.828H223.266V120.766H220.266V104.852H223.266V111.391ZM219 109.445H206.344V107.078H211.195V104.805H214.172V107.078H219V109.445ZM212.672 110.195C213.695 110.195 214.602 110.367 215.391 110.711C216.188 111.055 216.809 111.539 217.254 112.164C217.699 112.789 217.922 113.508 217.922 114.32C217.922 115.133 217.699 115.848 217.254 116.465C216.816 117.074 216.199 117.551 215.402 117.895C214.605 118.23 213.695 118.398 212.672 118.398C211.641 118.398 210.723 118.23 209.918 117.895C209.121 117.551 208.496 117.074 208.043 116.465C207.598 115.848 207.375 115.133 207.375 114.32C207.375 113.508 207.598 112.789 208.043 112.164C208.496 111.539 209.121 111.055 209.918 110.711C210.723 110.367 211.641 110.195 212.672 110.195ZM212.672 112.469C211.945 112.484 211.367 112.652 210.938 112.973C210.508 113.293 210.297 113.742 210.305 114.32C210.297 114.898 210.504 115.344 210.926 115.656C211.355 115.969 211.938 116.125 212.672 116.125C213.406 116.125 213.992 115.969 214.43 115.656C214.867 115.336 215.086 114.891 215.086 114.32C215.086 113.742 214.867 113.293 214.43 112.973C213.992 112.652 213.406 112.484 212.672 112.469ZM224.039 125.781H209.438V119.547H212.414V123.391H224.039V125.781ZM244.617 107.383V107.641C244.602 108.641 244.562 109.543 244.5 110.348C244.438 111.152 244.305 112.031 244.102 112.984L241.172 112.773C241.438 111.367 241.586 109.906 241.617 108.391H233.602V106H244.617V107.383ZM239.273 114.449C241.656 114.355 243.758 114.203 245.578 113.992L245.742 116.078C243.742 116.43 241.645 116.668 239.449 116.793C237.262 116.91 234.977 116.969 232.594 116.969L232.336 114.578H233.32L236.297 114.531V110.758H239.273V114.449ZM249.797 110.078H252.398V112.562H249.797V117.836H246.727V104.828H249.797V110.078ZM242.531 118.094C244.039 118.094 245.352 118.254 246.469 118.574C247.586 118.895 248.441 119.355 249.035 119.957C249.637 120.551 249.938 121.25 249.938 122.055C249.938 122.906 249.637 123.637 249.035 124.246C248.441 124.855 247.59 125.316 246.48 125.629C245.371 125.949 244.055 126.109 242.531 126.109C241.008 126.109 239.688 125.949 238.57 125.629C237.461 125.309 236.605 124.844 236.004 124.234C235.402 123.633 235.102 122.906 235.102 122.055C235.102 121.25 235.402 120.551 236.004 119.957C236.605 119.355 237.465 118.895 238.582 118.574C239.707 118.254 241.023 118.094 242.531 118.094ZM242.531 120.391C241.125 120.391 240.043 120.535 239.285 120.824C238.527 121.105 238.148 121.516 238.148 122.055C238.148 122.648 238.52 123.086 239.262 123.367C240.004 123.648 241.094 123.789 242.531 123.789C243.961 123.789 245.039 123.648 245.766 123.367C246.5 123.086 246.867 122.648 246.867 122.055C246.867 121.516 246.492 121.105 245.742 120.824C245 120.535 243.93 120.391 242.531 120.391ZM273.164 110.172H270.281V112.211H273.164V114.672H270.281V117.719H267.281V104.852H270.281V107.688H273.164V110.172ZM263.906 112.469H257.109V114.344C258.945 114.328 260.512 114.277 261.809 114.191C263.113 114.098 264.422 113.938 265.734 113.711L266.062 116.102C264.602 116.367 263.121 116.547 261.621 116.641C260.129 116.734 258.234 116.781 255.938 116.781H254.133V110.219H261V108.461H254.109V106.117H263.906V112.469ZM263.25 118.047C264.719 118.047 265.996 118.211 267.082 118.539C268.176 118.867 269.016 119.34 269.602 119.957C270.195 120.574 270.492 121.305 270.492 122.148C270.492 122.984 270.195 123.699 269.602 124.293C269.016 124.895 268.18 125.352 267.094 125.664C266.008 125.977 264.727 126.133 263.25 126.133C261.742 126.133 260.438 125.977 259.336 125.664C258.242 125.352 257.402 124.895 256.816 124.293C256.23 123.699 255.938 122.984 255.938 122.148C255.938 121.305 256.23 120.574 256.816 119.957C257.41 119.34 258.254 118.867 259.348 118.539C260.449 118.211 261.75 118.047 263.25 118.047ZM263.25 120.367C261.82 120.367 260.734 120.516 259.992 120.812C259.25 121.109 258.883 121.555 258.891 122.148C258.883 122.719 259.25 123.156 259.992 123.461C260.742 123.758 261.828 123.906 263.25 123.906C264.656 123.906 265.723 123.758 266.449 123.461C267.176 123.164 267.539 122.727 267.539 122.148C267.539 120.961 266.109 120.367 263.25 120.367ZM292.594 126.156H289.734V104.828H292.594V126.156ZM288.141 125.172H285.328V115.094H283.605C283.52 116.484 283.27 117.684 282.855 118.691C282.449 119.699 281.91 120.473 281.238 121.012C280.566 121.551 279.797 121.82 278.93 121.82C278 121.82 277.184 121.508 276.48 120.883C275.785 120.258 275.246 119.363 274.863 118.199C274.48 117.027 274.289 115.648 274.289 114.062C274.289 112.484 274.48 111.117 274.863 109.961C275.246 108.797 275.785 107.906 276.48 107.289C277.184 106.664 278 106.352 278.93 106.352C279.781 106.352 280.535 106.605 281.191 107.113C281.855 107.621 282.391 108.355 282.797 109.316C283.211 110.27 283.473 111.406 283.582 112.727H285.328V105.133H288.141V125.172ZM278.93 109.164C278.32 109.164 277.852 109.578 277.523 110.406C277.203 111.234 277.047 112.453 277.055 114.062C277.047 115.68 277.203 116.902 277.523 117.73C277.852 118.551 278.32 118.953 278.93 118.938C279.547 118.953 280.023 118.551 280.359 117.73C280.703 116.902 280.875 115.68 280.875 114.062C280.875 112.453 280.703 111.234 280.359 110.406C280.023 109.578 279.547 109.164 278.93 109.164ZM302.906 109.656C302.906 111.031 303.094 112.344 303.469 113.594C303.852 114.836 304.43 115.941 305.203 116.91C305.977 117.871 306.938 118.602 308.086 119.102L306.258 121.492C305.109 120.93 304.129 120.145 303.316 119.137C302.512 118.121 301.879 116.938 301.418 115.586C300.941 117.031 300.281 118.293 299.438 119.371C298.602 120.449 297.594 121.281 296.414 121.867L294.539 119.43C295.711 118.906 296.695 118.137 297.492 117.121C298.289 116.105 298.883 114.953 299.273 113.664C299.672 112.375 299.875 111.039 299.883 109.656V106.469H302.906V109.656ZM312.844 126.203H309.891V113.945H305.695V111.531H309.891V104.828H312.844V126.203ZM333.188 108.18H328.969C329.031 108.906 329.254 109.602 329.637 110.266C330.027 110.93 330.586 111.523 331.312 112.047C332.039 112.57 332.922 112.977 333.961 113.266L332.555 115.562C331.375 115.242 330.359 114.754 329.508 114.098C328.656 113.441 327.984 112.656 327.492 111.742C327 112.773 326.309 113.66 325.418 114.402C324.535 115.137 323.461 115.68 322.195 116.031L320.742 113.711C321.82 113.398 322.734 112.957 323.484 112.387C324.234 111.816 324.809 111.172 325.207 110.453C325.605 109.727 325.836 108.969 325.898 108.18H321.562V105.836H333.188V108.18ZM338.039 109.047H340.922V111.438H338.039V115.773H335.039V104.828H338.039V109.047ZM338.039 122.219H326.859V123.672H338.648V125.945H323.93V120.109H335.062V118.844H323.883V116.594H338.039V122.219ZM355.266 110.641C355.258 111.758 355.449 112.879 355.84 114.004C356.238 115.129 356.832 116.16 357.621 117.098C358.41 118.027 359.367 118.75 360.492 119.266L358.828 121.609C357.672 121.078 356.668 120.309 355.816 119.301C354.965 118.285 354.293 117.113 353.801 115.785C353.309 117.246 352.621 118.531 351.738 119.641C350.863 120.75 349.828 121.586 348.633 122.148L346.898 119.781C348.039 119.25 349.012 118.496 349.816 117.52C350.621 116.535 351.227 115.445 351.633 114.25C352.047 113.055 352.258 111.852 352.266 110.641V109.328H347.742V106.891H359.555V109.328H355.266V110.641ZM364.219 112.961H367.359V115.469H364.219V126.156H361.219V104.828H364.219V112.961ZM384.961 112.891H388.102V115.352H384.961V126.203H382.008V104.828H384.961V112.891ZM378.867 114.883H372V118.75C373.648 118.742 375.141 118.691 376.477 118.598C377.812 118.504 379.156 118.344 380.508 118.117L380.766 120.508C379.219 120.789 377.68 120.98 376.148 121.082C374.617 121.184 372.844 121.234 370.828 121.234H369.023V112.516H375.891V109.023H369V106.609H378.867V114.883ZM408.398 123.672H388.875V121.211H393.234V115.996C392.391 115.488 391.738 114.863 391.277 114.121C390.816 113.371 390.586 112.531 390.586 111.602C390.586 110.469 390.93 109.469 391.617 108.602C392.305 107.734 393.254 107.062 394.465 106.586C395.684 106.102 397.062 105.859 398.602 105.859C400.133 105.859 401.504 106.102 402.715 106.586C403.934 107.062 404.891 107.734 405.586 108.602C406.281 109.469 406.633 110.469 406.641 111.602C406.633 112.508 406.402 113.332 405.949 114.074C405.504 114.809 404.875 115.43 404.062 115.938V121.211H408.398V123.672ZM398.602 108.227C397.586 108.227 396.695 108.359 395.93 108.625C395.172 108.891 394.582 109.277 394.16 109.785C393.746 110.285 393.539 110.891 393.539 111.602C393.539 112.289 393.746 112.887 394.16 113.395C394.582 113.902 395.176 114.293 395.941 114.566C396.707 114.84 397.594 114.977 398.602 114.977C399.602 114.977 400.484 114.84 401.25 114.566C402.016 114.293 402.609 113.902 403.031 113.395C403.461 112.887 403.68 112.289 403.688 111.602C403.68 110.898 403.465 110.293 403.043 109.785C402.621 109.277 402.027 108.891 401.262 108.625C400.496 108.359 399.609 108.227 398.602 108.227ZM401.039 121.211V117.074C400.234 117.223 399.422 117.297 398.602 117.297C397.727 117.297 396.922 117.223 396.188 117.074V121.211H401.039ZM412.383 124.211C412.023 124.211 411.691 124.121 411.387 123.941C411.082 123.762 410.84 123.523 410.66 123.227C410.488 122.922 410.406 122.594 410.414 122.242C410.406 121.891 410.488 121.566 410.66 121.27C410.84 120.973 411.082 120.738 411.387 120.566C411.691 120.387 412.023 120.297 412.383 120.297C412.719 120.297 413.035 120.387 413.332 120.566C413.637 120.738 413.879 120.973 414.059 121.27C414.238 121.566 414.328 121.891 414.328 122.242C414.328 122.594 414.238 122.922 414.059 123.227C413.879 123.523 413.637 123.762 413.332 123.941C413.035 124.121 412.719 124.211 412.383 124.211Z" fill="black"/>
<path d="M120.527 168.016H113.359V173.621H111.855V168.016H104.707V166.727H120.527V168.016ZM113.379 159.656C113.379 160.353 113.669 161.02 114.248 161.658C114.827 162.29 115.589 162.827 116.533 163.27C117.477 163.712 118.47 164.005 119.512 164.148L118.945 165.379C118.047 165.242 117.181 165.005 116.348 164.666C115.521 164.327 114.782 163.908 114.131 163.406C113.486 162.905 112.985 162.345 112.627 161.727C112.269 162.352 111.761 162.915 111.104 163.416C110.452 163.917 109.71 164.337 108.877 164.676C108.044 165.008 107.174 165.242 106.27 165.379L105.703 164.148C106.745 164.005 107.738 163.715 108.682 163.279C109.626 162.837 110.391 162.299 110.977 161.668C111.562 161.03 111.855 160.359 111.855 159.656V159.637H106.25V158.387H111.855V156.219H113.359V158.387H119.004V159.637H113.379V159.656ZM127.91 160.379C127.91 161.134 128.096 161.857 128.467 162.547C128.844 163.23 129.365 163.829 130.029 164.344C130.7 164.858 131.465 165.249 132.324 165.516L131.562 166.746C130.553 166.421 129.668 165.926 128.906 165.262C128.151 164.598 127.578 163.823 127.188 162.938C126.81 163.888 126.24 164.721 125.479 165.438C124.723 166.147 123.835 166.681 122.812 167.039L122.051 165.848C122.897 165.561 123.649 165.145 124.307 164.598C124.971 164.044 125.485 163.403 125.85 162.674C126.221 161.945 126.406 161.18 126.406 160.379V159.812H122.48V158.562H126.406V156.336H127.949V158.562H131.836V159.812H127.91V160.379ZM136.387 169.207H134.844V162.859H131.23V161.59H134.844V156.238H136.387V169.207ZM136.875 173.211H125.234V168.035H126.777V171.922H136.875V173.211ZM160.195 171.355H144.297V170.066H151.465V165.848H153.008V170.066H160.195V171.355ZM153.008 159.52C153.008 160.405 153.327 161.251 153.965 162.059C154.603 162.859 155.42 163.536 156.416 164.09C157.412 164.637 158.418 164.995 159.434 165.164L158.809 166.375C157.904 166.199 157.015 165.9 156.143 165.477C155.277 165.047 154.499 164.513 153.809 163.875C153.118 163.237 152.594 162.531 152.236 161.756C151.878 162.537 151.354 163.25 150.664 163.895C149.98 164.539 149.206 165.079 148.34 165.516C147.48 165.952 146.608 166.264 145.723 166.453L145.078 165.223C146.074 165.047 147.064 164.679 148.047 164.119C149.03 163.559 149.837 162.872 150.469 162.059C151.107 161.245 151.426 160.398 151.426 159.52V159.09H145.605V157.801H158.828V159.09H153.008V159.52ZM175.977 166.512H174.434V163.777H170.371V165.262H162.402V157.547H170.371V159.051H174.434V156.219H175.977V166.512ZM163.926 164.012H168.867V158.797H163.926V164.012ZM170.215 167.02C171.419 167.02 172.458 167.15 173.33 167.41C174.202 167.664 174.87 168.038 175.332 168.533C175.801 169.021 176.035 169.611 176.035 170.301C176.035 170.984 175.801 171.567 175.332 172.049C174.87 172.537 174.202 172.908 173.33 173.162C172.458 173.416 171.419 173.543 170.215 173.543C169.01 173.543 167.972 173.416 167.1 173.162C166.227 172.908 165.557 172.537 165.088 172.049C164.626 171.567 164.395 170.984 164.395 170.301C164.395 169.611 164.626 169.021 165.088 168.533C165.557 168.038 166.227 167.664 167.1 167.41C167.972 167.15 169.01 167.02 170.215 167.02ZM170.215 168.211C169.329 168.217 168.561 168.305 167.91 168.475C167.266 168.637 166.771 168.875 166.426 169.188C166.081 169.5 165.911 169.871 165.918 170.301C165.911 170.711 166.081 171.069 166.426 171.375C166.777 171.681 167.275 171.915 167.92 172.078C168.571 172.247 169.336 172.332 170.215 172.332C171.094 172.332 171.855 172.247 172.5 172.078C173.145 171.915 173.639 171.684 173.984 171.385C174.336 171.079 174.512 170.717 174.512 170.301C174.512 169.871 174.339 169.5 173.994 169.188C173.649 168.875 173.154 168.637 172.51 168.475C171.865 168.305 171.1 168.217 170.215 168.211ZM174.434 162.488V160.32H170.371V162.488H174.434ZM197.461 161.395H200.098V162.684H197.461V168.797H195.938V156.219H197.461V161.395ZM192.441 159.012H186.23V164.422C188.086 164.422 189.57 164.386 190.684 164.314C191.803 164.236 192.917 164.083 194.023 163.855L194.219 165.125C193.034 165.353 191.849 165.509 190.664 165.594C189.479 165.672 187.943 165.711 186.055 165.711H184.707V157.723H192.441V159.012ZM198.262 173.211H186.602V167.527H188.105V171.922H198.262V173.211ZM216.035 173.582H214.57V156.219H216.035V173.582ZM212.52 172.703H211.055V166.688H207.832V165.418H211.055V162.332H208.115C207.686 163.849 206.973 165.239 205.977 166.502C204.98 167.765 203.685 168.875 202.09 169.832L201.152 168.719C203.008 167.625 204.427 166.316 205.41 164.793C206.4 163.263 206.973 161.57 207.129 159.715H201.934V158.445H208.652C208.652 159.337 208.574 160.21 208.418 161.062H211.055V156.688H212.52V172.703ZM220.293 170.125C220.065 170.125 219.854 170.07 219.658 169.959C219.469 169.842 219.316 169.686 219.199 169.49C219.089 169.295 219.036 169.083 219.043 168.855C219.036 168.634 219.089 168.429 219.199 168.24C219.316 168.045 219.469 167.892 219.658 167.781C219.854 167.664 220.065 167.605 220.293 167.605C220.514 167.605 220.719 167.664 220.908 167.781C221.104 167.892 221.257 168.045 221.367 168.24C221.484 168.429 221.543 168.634 221.543 168.855C221.543 169.083 221.484 169.295 221.367 169.49C221.257 169.686 221.104 169.842 220.908 169.959C220.719 170.07 220.514 170.125 220.293 170.125ZM220.293 162.273C220.065 162.273 219.854 162.218 219.658 162.107C219.469 161.99 219.316 161.834 219.199 161.639C219.089 161.443 219.036 161.232 219.043 161.004C219.036 160.783 219.089 160.577 219.199 160.389C219.316 160.193 219.469 160.04 219.658 159.93C219.854 159.812 220.065 159.754 220.293 159.754C220.514 159.754 220.719 159.812 220.908 159.93C221.104 160.04 221.257 160.193 221.367 160.389C221.484 160.577 221.543 160.783 221.543 161.004C221.543 161.232 221.484 161.443 221.367 161.639C221.257 161.834 221.104 161.99 220.908 162.107C220.719 162.218 220.514 162.273 220.293 162.273ZM234.062 172.195C233.132 172.195 232.298 172.039 231.562 171.727C230.833 171.414 230.254 170.975 229.824 170.408C229.401 169.842 229.173 169.188 229.141 168.445H230.918C230.951 168.882 231.107 169.266 231.387 169.598C231.673 169.93 232.048 170.187 232.51 170.369C232.972 170.545 233.483 170.633 234.043 170.633C234.655 170.633 235.205 170.529 235.693 170.32C236.188 170.105 236.572 169.812 236.846 169.441C237.126 169.064 237.266 168.634 237.266 168.152C237.266 167.632 237.129 167.173 236.855 166.775C236.589 166.378 236.198 166.069 235.684 165.848C235.169 165.626 234.551 165.516 233.828 165.516H232.676V163.973H233.828C234.395 163.973 234.899 163.872 235.342 163.67C235.785 163.468 236.126 163.185 236.367 162.82C236.615 162.456 236.738 162.033 236.738 161.551C236.738 161.089 236.628 160.678 236.406 160.32C236.191 159.962 235.885 159.686 235.488 159.49C235.091 159.288 234.629 159.188 234.102 159.188C233.594 159.188 233.118 159.279 232.676 159.461C232.233 159.643 231.872 159.904 231.592 160.242C231.312 160.574 231.159 160.965 231.133 161.414H229.434C229.466 160.685 229.694 160.037 230.117 159.471C230.54 158.898 231.104 158.455 231.807 158.143C232.51 157.824 233.281 157.664 234.121 157.664C234.993 157.664 235.755 157.837 236.406 158.182C237.064 158.52 237.568 158.979 237.92 159.559C238.271 160.138 238.444 160.77 238.438 161.453C238.444 162.247 238.232 162.928 237.803 163.494C237.373 164.061 236.784 164.448 236.035 164.656V164.754C236.641 164.852 237.165 165.057 237.607 165.369C238.057 165.675 238.398 166.069 238.633 166.551C238.874 167.026 238.991 167.56 238.984 168.152C238.991 168.914 238.779 169.604 238.35 170.223C237.92 170.835 237.327 171.316 236.572 171.668C235.824 172.02 234.987 172.195 234.062 172.195ZM241.777 176.004H240.332L241.406 170.691H243.301L241.777 176.004ZM250.859 167.664L257.227 157.859H259.395V167.566H261.367V169.109H259.395V172H257.715V169.109H250.859V167.664ZM257.715 167.566V160.086H257.539L252.754 167.449V167.566H257.715ZM263.75 176.004H262.305L263.379 170.691H265.273L263.75 176.004ZM277.793 172.195C276.953 172.195 276.188 172.036 275.498 171.717C274.814 171.391 274.268 170.945 273.857 170.379C273.454 169.806 273.236 169.161 273.203 168.445H274.902C274.948 168.862 275.104 169.24 275.371 169.578C275.638 169.91 275.983 170.174 276.406 170.369C276.829 170.558 277.292 170.652 277.793 170.652C278.392 170.652 278.932 170.516 279.414 170.242C279.896 169.969 280.273 169.594 280.547 169.119C280.82 168.644 280.957 168.113 280.957 167.527C280.957 166.922 280.814 166.378 280.527 165.896C280.247 165.408 279.857 165.027 279.355 164.754C278.861 164.474 278.301 164.331 277.676 164.324C276.419 164.305 275.54 164.728 275.039 165.594H273.34L274.336 157.859H281.992V159.422H275.801L275.273 163.562H275.41C275.729 163.315 276.117 163.117 276.572 162.967C277.028 162.817 277.5 162.742 277.988 162.742C278.874 162.742 279.671 162.947 280.381 163.357C281.097 163.761 281.657 164.324 282.061 165.047C282.471 165.77 282.676 166.583 282.676 167.488C282.676 168.387 282.464 169.194 282.041 169.91C281.618 170.626 281.035 171.186 280.293 171.59C279.551 171.993 278.717 172.195 277.793 172.195ZM285.293 176.004H283.848L284.922 170.691H286.816L285.293 176.004ZM299.688 172.195C298.776 172.195 297.93 171.99 297.148 171.58C296.374 171.163 295.736 170.457 295.234 169.461C294.74 168.458 294.492 167.13 294.492 165.477C294.492 163.829 294.707 162.42 295.137 161.248C295.573 160.076 296.191 159.188 296.992 158.582C297.799 157.97 298.757 157.664 299.863 157.664C300.677 157.664 301.406 157.82 302.051 158.133C302.702 158.445 303.232 158.885 303.643 159.451C304.059 160.018 304.329 160.672 304.453 161.414H302.715C302.539 160.757 302.207 160.229 301.719 159.832C301.237 159.428 300.618 159.227 299.863 159.227C299.095 159.227 298.431 159.441 297.871 159.871C297.318 160.294 296.891 160.91 296.592 161.717C296.299 162.524 296.152 163.491 296.152 164.617H296.328C296.745 164.025 297.266 163.566 297.891 163.24C298.516 162.908 299.206 162.742 299.961 162.742C300.794 162.742 301.562 162.944 302.266 163.348C302.975 163.751 303.535 164.311 303.945 165.027C304.362 165.737 304.57 166.538 304.57 167.43C304.57 168.309 304.365 169.113 303.955 169.842C303.551 170.564 302.979 171.137 302.236 171.561C301.494 171.984 300.645 172.195 299.688 172.195ZM299.648 170.652C300.247 170.652 300.791 170.509 301.279 170.223C301.768 169.936 302.152 169.549 302.432 169.061C302.718 168.566 302.865 168.029 302.871 167.449C302.865 166.87 302.725 166.339 302.451 165.857C302.178 165.376 301.8 164.995 301.318 164.715C300.837 164.428 300.293 164.285 299.688 164.285C299.082 164.285 298.529 164.432 298.027 164.725C297.526 165.018 297.129 165.411 296.836 165.906C296.543 166.395 296.393 166.915 296.387 167.469C296.387 168.022 296.527 168.543 296.807 169.031C297.093 169.52 297.484 169.913 297.979 170.213C298.48 170.506 299.036 170.652 299.648 170.652ZM307.031 176.004H305.586L306.66 170.691H308.555L307.031 176.004ZM323.398 159.52V159.422H315.918V157.859H325.215V159.5L318.75 172H316.914L323.398 159.52ZM325.762 176.004H324.316L325.391 170.691H327.285L325.762 176.004ZM339.922 172.195C338.945 172.195 338.073 172.029 337.305 171.697C336.543 171.359 335.951 170.89 335.527 170.291C335.104 169.692 334.896 169.012 334.902 168.25C334.896 167.651 335.016 167.094 335.264 166.58C335.518 166.059 335.866 165.63 336.309 165.291C336.751 164.952 337.24 164.741 337.773 164.656V164.578C337.311 164.467 336.904 164.262 336.553 163.963C336.201 163.657 335.928 163.283 335.732 162.84C335.544 162.397 335.449 161.922 335.449 161.414C335.449 160.704 335.641 160.063 336.025 159.49C336.416 158.917 336.95 158.471 337.627 158.152C338.311 157.827 339.076 157.664 339.922 157.664C340.768 157.664 341.53 157.827 342.207 158.152C342.891 158.471 343.428 158.917 343.818 159.49C344.209 160.057 344.408 160.698 344.414 161.414C344.408 161.922 344.303 162.397 344.102 162.84C343.906 163.283 343.633 163.657 343.281 163.963C342.93 164.262 342.526 164.467 342.07 164.578V164.656C342.598 164.741 343.079 164.952 343.516 165.291C343.958 165.63 344.307 166.059 344.561 166.58C344.821 167.094 344.954 167.651 344.961 168.25C344.954 169.012 344.736 169.692 344.307 170.291C343.877 170.89 343.281 171.359 342.52 171.697C341.758 172.029 340.892 172.195 339.922 172.195ZM339.922 170.652C340.586 170.652 341.165 170.548 341.66 170.34C342.155 170.132 342.536 169.839 342.803 169.461C343.07 169.083 343.203 168.647 343.203 168.152C343.203 167.638 343.06 167.176 342.773 166.766C342.493 166.349 342.103 166.023 341.602 165.789C341.107 165.555 340.547 165.438 339.922 165.438C339.297 165.438 338.734 165.555 338.232 165.789C337.731 166.023 337.34 166.349 337.061 166.766C336.781 167.176 336.647 167.638 336.66 168.152C336.647 168.647 336.771 169.083 337.031 169.461C337.298 169.839 337.679 170.132 338.174 170.34C338.669 170.548 339.251 170.652 339.922 170.652ZM339.922 163.953C340.449 163.953 340.924 163.852 341.348 163.65C341.771 163.449 342.1 163.165 342.334 162.801C342.575 162.436 342.695 162.02 342.695 161.551C342.695 161.089 342.578 160.678 342.344 160.32C342.116 159.962 341.79 159.686 341.367 159.49C340.951 159.288 340.469 159.188 339.922 159.188C339.368 159.188 338.88 159.288 338.457 159.49C338.04 159.686 337.718 159.962 337.49 160.32C337.262 160.678 337.148 161.089 337.148 161.551C337.148 162.02 337.266 162.436 337.5 162.801C337.741 163.165 338.07 163.449 338.486 163.65C338.91 163.852 339.388 163.953 339.922 163.953Z" fill="#8A88FF"/>
<path d="M82.5195 269.363H80.957V266.922H77.1289V265.672H80.957V256.238H82.5195V269.363ZM82.9492 273.211H70.625V267.898H72.168V271.922H82.9492V273.211ZM68.0273 263.113C71.0872 263.113 73.6849 263.042 75.8203 262.898C76.0807 261.44 76.2174 259.988 76.2305 258.543H69.5898V257.293H77.7539V257.977C77.7539 258.725 77.7311 259.471 77.6855 260.213C77.6465 260.955 77.5456 261.808 77.3828 262.771C78.0013 262.719 78.6654 262.645 79.375 262.547L79.4922 263.66C78.0534 263.901 76.3932 264.083 74.5117 264.207V268.211H72.9883V264.295C71.5169 264.354 69.9349 264.383 68.2422 264.383L68.0273 263.113ZM91.3086 259.52C91.3086 260.268 91.4844 260.984 91.8359 261.668C92.194 262.345 92.6921 262.944 93.3301 263.465C93.9746 263.979 94.7201 264.376 95.5664 264.656L94.8438 265.867C93.8542 265.542 92.9883 265.05 92.2461 264.393C91.5104 263.735 90.9538 262.964 90.5762 262.078C90.2051 263.074 89.6354 263.947 88.8672 264.695C88.099 265.438 87.194 265.997 86.1523 266.375L85.3711 265.145C86.2305 264.852 86.9954 264.422 87.666 263.855C88.3366 263.289 88.8574 262.632 89.2285 261.883C89.6061 261.128 89.7982 260.34 89.8047 259.52V258.777H85.8398V257.508H95.2148V258.777H91.3086V259.52ZM99.0039 260.652H101.621V261.941H99.0039V266.707H97.4805V256.219H99.0039V260.652ZM93.4375 267.176C94.6224 267.176 95.6445 267.303 96.5039 267.557C97.3633 267.804 98.0208 268.165 98.4766 268.641C98.9323 269.116 99.1602 269.682 99.1602 270.34C99.1602 271.01 98.9323 271.587 98.4766 272.068C98.0208 272.55 97.3633 272.915 96.5039 273.162C95.6445 273.416 94.6224 273.543 93.4375 273.543C92.2526 273.543 91.2272 273.416 90.3613 273.162C89.4954 272.915 88.8314 272.55 88.3691 272.068C87.9069 271.587 87.6758 271.01 87.6758 270.34C87.6758 269.682 87.9069 269.116 88.3691 268.641C88.8314 268.165 89.4954 267.804 90.3613 267.557C91.2272 267.303 92.2526 267.176 93.4375 267.176ZM93.4375 268.406C92.5716 268.406 91.8197 268.484 91.1816 268.641C90.5436 268.79 90.0553 269.012 89.7168 269.305C89.3783 269.598 89.2122 269.943 89.2188 270.34C89.2122 270.75 89.3783 271.105 89.7168 271.404C90.0553 271.697 90.5404 271.922 91.1719 272.078C91.8099 272.234 92.5651 272.312 93.4375 272.312C94.3164 272.312 95.0716 272.234 95.7031 272.078C96.3411 271.922 96.8294 271.697 97.168 271.404C97.5065 271.105 97.6758 270.75 97.6758 270.34C97.6758 269.936 97.5065 269.591 97.168 269.305C96.8294 269.012 96.3411 268.79 95.7031 268.641C95.0651 268.484 94.3099 268.406 93.4375 268.406ZM111.328 268.465H120.02V266.16H121.543V273.348H109.805V266.16H111.328V268.465ZM120.02 272.098V269.676H111.328V272.098H120.02ZM121.543 258.289C121.543 259.207 121.514 260.037 121.455 260.779C121.403 261.521 121.273 262.371 121.064 263.328H123.633V264.598H107.734V263.328H119.561C119.762 262.378 119.889 261.531 119.941 260.789C119.993 260.047 120.02 259.214 120.02 258.289H109.746V257.02H121.543V258.289ZM133.73 257.84C133.73 258.621 134.033 259.37 134.639 260.086C135.251 260.802 136.045 261.404 137.021 261.893C137.998 262.381 139.01 262.697 140.059 262.84L139.434 264.09C138.522 263.94 137.64 263.68 136.787 263.309C135.934 262.931 135.173 262.462 134.502 261.902C133.831 261.336 133.314 260.708 132.949 260.018C132.591 260.708 132.074 261.336 131.396 261.902C130.726 262.462 129.964 262.931 129.111 263.309C128.258 263.68 127.376 263.94 126.465 264.09L125.84 262.84C126.895 262.697 127.907 262.384 128.877 261.902C129.847 261.414 130.635 260.815 131.24 260.105C131.846 259.389 132.148 258.634 132.148 257.84V256.844H133.73V257.84ZM140.84 267.293H133.652V273.582H132.148V267.293H125.02V266.004H140.84V267.293ZM153.496 260.887C153.49 261.915 153.698 262.938 154.121 263.953C154.544 264.962 155.117 265.861 155.84 266.648C156.562 267.436 157.35 268.022 158.203 268.406L157.266 269.617C156.276 269.129 155.378 268.403 154.57 267.439C153.77 266.469 153.164 265.369 152.754 264.139C152.35 265.447 151.745 266.619 150.938 267.654C150.13 268.683 149.219 269.454 148.203 269.969L147.227 268.68C148.079 268.283 148.867 267.68 149.59 266.873C150.312 266.059 150.889 265.128 151.318 264.08C151.748 263.025 151.966 261.961 151.973 260.887V257.723H153.496V260.887ZM161.641 273.621H160.098V256.219H161.641V273.621ZM179.004 266.395H177.461V261.863H173.945V260.574H177.461V256.219H179.004V266.395ZM179.004 273.348H167.656V267.254H179.004V273.348ZM169.18 272.098H177.5V268.484H169.18V272.098ZM170.645 259.305C170.645 260.047 170.824 260.77 171.182 261.473C171.54 262.176 172.044 262.804 172.695 263.357C173.346 263.904 174.089 264.324 174.922 264.617L174.121 265.828C173.151 265.477 172.298 264.956 171.562 264.266C170.833 263.569 170.28 262.768 169.902 261.863C169.525 262.866 168.952 263.748 168.184 264.51C167.415 265.271 166.517 265.841 165.488 266.219L164.688 265.008C165.534 264.702 166.292 264.259 166.963 263.68C167.633 263.094 168.158 262.423 168.535 261.668C168.913 260.906 169.102 260.118 169.102 259.305V258.621H165.176V257.352H174.531V258.621H170.645V259.305ZM183.73 270.125C183.503 270.125 183.291 270.07 183.096 269.959C182.907 269.842 182.754 269.686 182.637 269.49C182.526 269.295 182.474 269.083 182.48 268.855C182.474 268.634 182.526 268.429 182.637 268.24C182.754 268.045 182.907 267.892 183.096 267.781C183.291 267.664 183.503 267.605 183.73 267.605C183.952 267.605 184.157 267.664 184.346 267.781C184.541 267.892 184.694 268.045 184.805 268.24C184.922 268.429 184.98 268.634 184.98 268.855C184.98 269.083 184.922 269.295 184.805 269.49C184.694 269.686 184.541 269.842 184.346 269.959C184.157 270.07 183.952 270.125 183.73 270.125ZM183.73 262.273C183.503 262.273 183.291 262.218 183.096 262.107C182.907 261.99 182.754 261.834 182.637 261.639C182.526 261.443 182.474 261.232 182.48 261.004C182.474 260.783 182.526 260.577 182.637 260.389C182.754 260.193 182.907 260.04 183.096 259.93C183.291 259.812 183.503 259.754 183.73 259.754C183.952 259.754 184.157 259.812 184.346 259.93C184.541 260.04 184.694 260.193 184.805 260.389C184.922 260.577 184.98 260.783 184.98 261.004C184.98 261.232 184.922 261.443 184.805 261.639C184.694 261.834 184.541 261.99 184.346 262.107C184.157 262.218 183.952 262.273 183.73 262.273ZM206.055 266.512H200.664V270.145H207.891V271.414H191.992V270.145H199.141V266.512H194.043V257.645H205.859V258.914H195.605V261.395H205.488V262.645H195.605V265.262H206.055V266.512ZM225.43 260.125H222.852V262.547H225.43V263.836H222.852V266.531H221.328V256.219H222.852V258.855H225.43V260.125ZM214.16 257.273C215.033 257.267 215.814 257.436 216.504 257.781C217.194 258.126 217.734 258.611 218.125 259.236C218.522 259.855 218.724 260.561 218.73 261.355C218.724 262.15 218.522 262.856 218.125 263.475C217.734 264.087 217.194 264.565 216.504 264.91C215.814 265.255 215.033 265.431 214.16 265.438C213.288 265.431 212.503 265.255 211.807 264.91C211.117 264.565 210.576 264.087 210.186 263.475C209.795 262.856 209.603 262.15 209.609 261.355C209.603 260.561 209.795 259.855 210.186 259.236C210.576 258.611 211.117 258.126 211.807 257.781C212.503 257.436 213.288 257.267 214.16 257.273ZM214.16 258.582C213.581 258.576 213.057 258.689 212.588 258.924C212.126 259.158 211.761 259.487 211.494 259.91C211.234 260.333 211.107 260.815 211.113 261.355C211.107 261.889 211.234 262.368 211.494 262.791C211.761 263.214 212.126 263.546 212.588 263.787C213.057 264.021 213.581 264.142 214.16 264.148C214.746 264.142 215.27 264.021 215.732 263.787C216.201 263.546 216.566 263.217 216.826 262.801C217.093 262.378 217.227 261.896 217.227 261.355C217.227 260.815 217.093 260.333 216.826 259.91C216.566 259.487 216.201 259.158 215.732 258.924C215.27 258.689 214.746 258.576 214.16 258.582ZM217.285 267.059C218.464 267.065 219.482 267.199 220.342 267.459C221.201 267.713 221.859 268.084 222.314 268.572C222.777 269.054 223.008 269.637 223.008 270.32C223.008 270.991 222.777 271.567 222.314 272.049C221.852 272.537 221.191 272.908 220.332 273.162C219.473 273.416 218.457 273.543 217.285 273.543C216.107 273.543 215.085 273.416 214.219 273.162C213.353 272.908 212.686 272.537 212.217 272.049C211.755 271.567 211.523 270.991 211.523 270.32C211.523 269.637 211.755 269.054 212.217 268.572C212.686 268.084 213.35 267.713 214.209 267.459C215.075 267.199 216.1 267.065 217.285 267.059ZM217.285 268.309C216.413 268.309 215.658 268.39 215.02 268.553C214.388 268.709 213.903 268.94 213.564 269.246C213.226 269.546 213.06 269.904 213.066 270.32C213.06 270.73 213.226 271.085 213.564 271.385C213.903 271.684 214.391 271.912 215.029 272.068C215.667 272.231 216.419 272.312 217.285 272.312C218.158 272.312 218.913 272.231 219.551 272.068C220.189 271.912 220.677 271.684 221.016 271.385C221.354 271.085 221.523 270.73 221.523 270.32C221.523 269.904 221.354 269.546 221.016 269.246C220.677 268.94 220.189 268.709 219.551 268.553C218.913 268.39 218.158 268.309 217.285 268.309ZM230.098 268.68H238.77V266.648H240.312V273.348H228.574V266.648H230.098V268.68ZM238.77 272.117V269.891H230.098V272.117H238.77ZM242.383 265.418H226.562V264.148H242.383V265.418ZM235.273 257.234C235.273 257.924 235.573 258.589 236.172 259.227C236.771 259.858 237.549 260.395 238.506 260.838C239.469 261.274 240.462 261.557 241.484 261.688L240.918 262.918C240.013 262.781 239.134 262.544 238.281 262.205C237.435 261.86 236.68 261.43 236.016 260.916C235.352 260.402 234.84 259.829 234.482 259.197C234.124 259.829 233.61 260.402 232.939 260.916C232.275 261.43 231.52 261.86 230.674 262.205C229.827 262.544 228.952 262.781 228.047 262.918L227.461 261.688C228.503 261.551 229.502 261.268 230.459 260.838C231.423 260.402 232.201 259.871 232.793 259.246C233.392 258.615 233.691 257.944 233.691 257.234V256.414H235.273V257.234ZM257.871 265.613H252.5V270.105H259.746V271.395H243.848V270.105H250.996V265.613H245.879V257.645H257.695V258.895H247.422V264.363H257.871V265.613ZM271.777 272H270V259.695H269.922L266.484 261.98V260.203L270 257.859H271.777V272ZM280.176 272.195C279.134 272.195 278.242 271.912 277.5 271.346C276.764 270.779 276.201 269.952 275.811 268.865C275.426 267.778 275.234 266.466 275.234 264.93C275.234 263.413 275.43 262.111 275.82 261.023C276.211 259.93 276.777 259.096 277.52 258.523C278.262 257.951 279.147 257.664 280.176 257.664C281.204 257.664 282.09 257.951 282.832 258.523C283.574 259.096 284.141 259.93 284.531 261.023C284.922 262.111 285.117 263.413 285.117 264.93C285.117 266.466 284.922 267.778 284.531 268.865C284.147 269.952 283.584 270.779 282.842 271.346C282.1 271.912 281.211 272.195 280.176 272.195ZM280.176 270.633C280.853 270.633 281.432 270.411 281.914 269.969C282.396 269.526 282.764 268.878 283.018 268.025C283.271 267.173 283.398 266.141 283.398 264.93C283.398 263.719 283.271 262.684 283.018 261.824C282.764 260.965 282.396 260.311 281.914 259.861C281.432 259.412 280.853 259.188 280.176 259.188C279.499 259.188 278.916 259.412 278.428 259.861C277.946 260.311 277.575 260.965 277.314 261.824C277.061 262.684 276.934 263.719 276.934 264.93C276.934 266.141 277.061 267.173 277.314 268.025C277.568 268.878 277.936 269.526 278.418 269.969C278.906 270.411 279.492 270.633 280.176 270.633ZM290.449 264.422C289.85 264.422 289.336 264.282 288.906 264.002C288.483 263.722 288.161 263.328 287.939 262.82C287.725 262.306 287.617 261.707 287.617 261.023C287.617 260.359 287.728 259.773 287.949 259.266C288.177 258.751 288.503 258.354 288.926 258.074C289.355 257.788 289.863 257.645 290.449 257.645C291.055 257.645 291.569 257.788 291.992 258.074C292.415 258.354 292.734 258.748 292.949 259.256C293.171 259.764 293.281 260.353 293.281 261.023C293.281 261.701 293.171 262.296 292.949 262.811C292.728 263.318 292.402 263.715 291.973 264.002C291.549 264.282 291.042 264.422 290.449 264.422ZM290.449 263.211C290.918 263.211 291.27 263.019 291.504 262.635C291.738 262.244 291.855 261.707 291.855 261.023C291.855 260.34 291.742 259.806 291.514 259.422C291.286 259.038 290.931 258.849 290.449 258.855C289.993 258.855 289.645 259.051 289.404 259.441C289.163 259.826 289.043 260.353 289.043 261.023C289.043 261.701 289.163 262.234 289.404 262.625C289.645 263.016 289.993 263.211 290.449 263.211ZM299.082 272.195C298.483 272.202 297.969 272.065 297.539 271.785C297.109 271.505 296.784 271.111 296.562 270.604C296.348 270.089 296.243 269.493 296.25 268.816C296.243 268.146 296.351 267.553 296.572 267.039C296.8 266.525 297.129 266.128 297.559 265.848C297.988 265.561 298.496 265.418 299.082 265.418C299.681 265.418 300.192 265.561 300.615 265.848C301.038 266.128 301.357 266.525 301.572 267.039C301.787 267.547 301.895 268.139 301.895 268.816C301.895 269.487 301.784 270.079 301.562 270.594C301.341 271.108 301.019 271.505 300.596 271.785C300.173 272.065 299.668 272.202 299.082 272.195ZM299.082 270.984C299.538 270.984 299.883 270.792 300.117 270.408C300.352 270.024 300.469 269.493 300.469 268.816C300.469 268.133 300.358 267.599 300.137 267.215C299.915 266.824 299.577 266.629 299.121 266.629C298.652 266.629 298.291 266.824 298.037 267.215C297.783 267.599 297.656 268.133 297.656 268.816C297.656 269.487 297.777 270.018 298.018 270.408C298.258 270.792 298.613 270.984 299.082 270.984ZM298.73 257.859H300.312L290.586 272H289.004L298.73 257.859ZM323.418 273.621H321.875V256.219H323.418V273.621ZM314.18 257.566C315.039 257.573 315.804 257.827 316.475 258.328C317.145 258.823 317.669 259.526 318.047 260.438C318.424 261.349 318.613 262.41 318.613 263.621C318.613 264.832 318.424 265.893 318.047 266.805C317.669 267.716 317.145 268.419 316.475 268.914C315.804 269.409 315.039 269.656 314.18 269.656C313.32 269.656 312.552 269.409 311.875 268.914C311.204 268.419 310.68 267.716 310.303 266.805C309.932 265.893 309.746 264.832 309.746 263.621C309.746 262.41 309.932 261.349 310.303 260.438C310.68 259.526 311.204 258.823 311.875 258.328C312.546 257.827 313.314 257.573 314.18 257.566ZM314.18 258.934C313.6 258.94 313.086 259.139 312.637 259.529C312.194 259.913 311.849 260.46 311.602 261.17C311.354 261.873 311.23 262.69 311.23 263.621C311.23 264.552 311.354 265.372 311.602 266.082C311.849 266.785 312.197 267.329 312.646 267.713C313.096 268.097 313.607 268.289 314.18 268.289C314.753 268.289 315.264 268.097 315.713 267.713C316.162 267.329 316.51 266.785 316.758 266.082C317.005 265.372 317.129 264.552 317.129 263.621C317.129 262.69 317.005 261.873 316.758 261.17C316.51 260.46 316.162 259.913 315.713 259.529C315.27 259.139 314.759 258.94 314.18 258.934ZM339.824 263.387H342.734V264.656H339.824V273.582H338.301V256.219H339.824V263.387ZM336.621 260.281H326.289V259.012H330.762V256.434H332.285V259.012H336.621V260.281ZM331.543 261.727C332.357 261.727 333.086 261.896 333.73 262.234C334.375 262.573 334.88 263.045 335.244 263.65C335.609 264.256 335.794 264.943 335.801 265.711C335.794 266.479 335.609 267.166 335.244 267.771C334.88 268.377 334.375 268.849 333.73 269.188C333.086 269.526 332.357 269.695 331.543 269.695C330.723 269.695 329.987 269.526 329.336 269.188C328.691 268.849 328.187 268.377 327.822 267.771C327.458 267.166 327.279 266.479 327.285 265.711C327.279 264.943 327.458 264.256 327.822 263.65C328.187 263.045 328.691 262.573 329.336 262.234C329.987 261.896 330.723 261.727 331.543 261.727ZM331.543 263.016C331.009 263.016 330.527 263.133 330.098 263.367C329.674 263.595 329.342 263.914 329.102 264.324C328.861 264.734 328.743 265.197 328.75 265.711C328.743 266.232 328.861 266.697 329.102 267.107C329.342 267.511 329.674 267.827 330.098 268.055C330.527 268.283 331.009 268.393 331.543 268.387C332.07 268.393 332.546 268.283 332.969 268.055C333.392 267.827 333.724 267.511 333.965 267.107C334.206 266.697 334.329 266.232 334.336 265.711C334.329 265.197 334.206 264.734 333.965 264.324C333.724 263.914 333.392 263.595 332.969 263.367C332.546 263.133 332.07 263.016 331.543 263.016ZM348.594 256.863C349.453 256.87 350.221 257.036 350.898 257.361C351.582 257.687 352.116 258.143 352.5 258.729C352.891 259.308 353.086 259.969 353.086 260.711C353.086 261.453 352.891 262.117 352.5 262.703C352.116 263.283 351.582 263.735 350.898 264.061C350.221 264.38 349.453 264.539 348.594 264.539C347.721 264.539 346.943 264.38 346.26 264.061C345.576 263.735 345.042 263.283 344.658 262.703C344.274 262.117 344.082 261.453 344.082 260.711C344.082 259.969 344.274 259.308 344.658 258.729C345.042 258.143 345.576 257.687 346.26 257.361C346.943 257.036 347.721 256.87 348.594 256.863ZM348.594 258.152C348.021 258.152 347.503 258.263 347.041 258.484C346.585 258.699 346.227 259.002 345.967 259.393C345.706 259.777 345.579 260.216 345.586 260.711C345.579 261.212 345.706 261.658 345.967 262.049C346.227 262.439 346.585 262.745 347.041 262.967C347.503 263.182 348.021 263.289 348.594 263.289C349.16 263.289 349.671 263.182 350.127 262.967C350.589 262.745 350.951 262.439 351.211 262.049C351.471 261.658 351.602 261.212 351.602 260.711C351.602 260.216 351.471 259.777 351.211 259.393C350.951 259.002 350.589 258.699 350.127 258.484C349.671 258.263 349.16 258.152 348.594 258.152ZM358.008 265.145H356.484V256.219H358.008V265.145ZM358.008 270.164H348.262V272.117H358.633V273.348H346.758V269.012H356.484V267.215H346.719V265.984H358.008V270.164ZM377.48 263.328H379.59V256.219H381.055V273.582H379.59V264.598H377.48V272.723H376.055V256.609H377.48V263.328ZM370.273 259.695H367.93V267.752C368.809 267.713 369.629 267.599 370.391 267.41L370.527 268.719C369.889 268.862 369.313 268.953 368.799 268.992C368.285 269.031 367.747 269.051 367.188 269.051H366.504V258.426H370.273V259.695ZM374.883 259.695H372.422V267.752C373.47 267.726 374.414 267.592 375.254 267.352L375.391 268.66C374.753 268.829 374.16 268.937 373.613 268.982C373.073 269.028 372.448 269.051 371.738 269.051H371.035V258.426H374.883V259.695Z" fill="#8A88FF"/>
<path d="M80.7773 216.242H73.2305V207.055H80.5195V208.555H75.082V214.742H80.7773V216.242ZM82.3008 223.227H63.2227V221.703H71.7773V217.297H73.582V221.703H82.3008V223.227ZM71.9648 208.578H66.7148V214.719C67.6602 214.711 68.5703 214.664 69.4453 214.578C70.3281 214.484 71.2305 214.336 72.1523 214.133L72.3164 215.68C71.3711 215.898 70.4531 216.047 69.5625 216.125C68.6797 216.203 67.7227 216.242 66.6914 216.242H66.0352H64.8867V207.055H71.9648V208.578ZM100.254 211.953H103.395V213.5H100.254V220.695H98.4258V205.086H100.254V211.953ZM96.4336 209.141H84.0117V207.641H89.3086V205.086H91.1367V207.641H96.4336V209.141ZM90.2227 210.289C91.207 210.289 92.0742 210.449 92.8242 210.77C93.582 211.09 94.1719 211.543 94.5938 212.129C95.0156 212.715 95.2305 213.398 95.2383 214.18C95.2305 214.953 95.0156 215.629 94.5938 216.207C94.1719 216.785 93.582 217.234 92.8242 217.555C92.0742 217.867 91.207 218.023 90.2227 218.023C89.2305 218.023 88.3516 217.867 87.5859 217.555C86.8281 217.234 86.2383 216.785 85.8164 216.207C85.4023 215.629 85.1992 214.953 85.207 214.18C85.1992 213.398 85.4023 212.715 85.8164 212.129C86.2383 211.543 86.8281 211.09 87.5859 210.77C88.3516 210.449 89.2305 210.289 90.2227 210.289ZM90.2227 211.742C89.5742 211.742 89 211.844 88.5 212.047C88.0078 212.242 87.625 212.527 87.3516 212.902C87.0859 213.27 86.957 213.695 86.9648 214.18C86.957 214.664 87.0859 215.09 87.3516 215.457C87.625 215.816 88.0078 216.094 88.5 216.289C89 216.484 89.5742 216.578 90.2227 216.57C90.8633 216.578 91.4297 216.484 91.9219 216.289C92.4219 216.094 92.8086 215.816 93.082 215.457C93.3555 215.09 93.4961 214.664 93.5039 214.18C93.4961 213.695 93.3555 213.27 93.082 212.902C92.8086 212.527 92.4219 212.242 91.9219 212.047C91.4297 211.844 90.8633 211.742 90.2227 211.742ZM101.215 225.453H87.2227V219.453H89.0273V223.906H101.215V225.453ZM106.301 228.805H104.566L105.855 222.43H108.129L106.301 228.805ZM134.637 220.438H131.66V213.477H127.84V211.016H131.66V204.852H134.637V220.438ZM128.027 206.422C128.027 208.312 127.641 210.039 126.867 211.602C126.094 213.156 124.969 214.5 123.492 215.633C122.016 216.766 120.238 217.656 118.16 218.305L116.941 215.938C119.16 215.242 120.949 214.281 122.309 213.055C123.668 211.828 124.488 210.43 124.77 208.859H118.043V206.422H128.027ZM135.176 225.781H120.574V218.867H123.621V223.391H135.176V225.781ZM156.926 223.672H137.402V221.258H145.652V216.5H148.652V221.258H156.926V223.672ZM155.215 208.859H148.723C148.809 209.812 149.156 210.715 149.766 211.566C150.375 212.41 151.227 213.133 152.32 213.734C153.422 214.328 154.715 214.734 156.199 214.953L155.027 217.32C153.176 216.992 151.57 216.395 150.211 215.527C148.859 214.66 147.836 213.59 147.141 212.316C146.461 213.613 145.449 214.707 144.105 215.598C142.77 216.488 141.191 217.102 139.371 217.438L138.199 215.07C139.629 214.836 140.883 214.41 141.961 213.793C143.047 213.176 143.891 212.438 144.492 211.578C145.102 210.719 145.449 209.812 145.535 208.859H139.02V206.445H155.215V208.859ZM176.637 226.156H173.777V204.828H176.637V226.156ZM172.184 225.172H169.371V215.094H167.648C167.562 216.484 167.312 217.684 166.898 218.691C166.492 219.699 165.953 220.473 165.281 221.012C164.609 221.551 163.84 221.82 162.973 221.82C162.043 221.82 161.227 221.508 160.523 220.883C159.828 220.258 159.289 219.363 158.906 218.199C158.523 217.027 158.332 215.648 158.332 214.062C158.332 212.484 158.523 211.117 158.906 209.961C159.289 208.797 159.828 207.906 160.523 207.289C161.227 206.664 162.043 206.352 162.973 206.352C163.824 206.352 164.578 206.605 165.234 207.113C165.898 207.621 166.434 208.355 166.84 209.316C167.254 210.27 167.516 211.406 167.625 212.727H169.371V205.133H172.184V225.172ZM162.973 209.164C162.363 209.164 161.895 209.578 161.566 210.406C161.246 211.234 161.09 212.453 161.098 214.062C161.09 215.68 161.246 216.902 161.566 217.73C161.895 218.551 162.363 218.953 162.973 218.938C163.59 218.953 164.066 218.551 164.402 217.73C164.746 216.902 164.918 215.68 164.918 214.062C164.918 212.453 164.746 211.234 164.402 210.406C164.066 209.578 163.59 209.164 162.973 209.164ZM202.91 226.156H200.051V215.398H198.129V225.172H195.293V205.133H198.129V212.961H200.051V204.828H202.91V226.156ZM193.512 220.789H185.027V207.031H193.512V220.789ZM187.816 218.445H190.723V209.398H187.816V218.445ZM224.66 219.195H216.316V226.18H213.363V219.195H205.137V216.758H224.66V219.195ZM214.84 205.531C216.355 205.531 217.703 205.73 218.883 206.129C220.062 206.527 220.98 207.094 221.637 207.828C222.293 208.562 222.621 209.414 222.621 210.383C222.621 211.336 222.293 212.172 221.637 212.891C220.98 213.609 220.062 214.164 218.883 214.555C217.703 214.945 216.355 215.141 214.84 215.141C213.324 215.141 211.98 214.945 210.809 214.555C209.637 214.164 208.723 213.609 208.066 212.891C207.418 212.172 207.098 211.336 207.105 210.383C207.098 209.414 207.418 208.562 208.066 207.828C208.723 207.094 209.637 206.527 210.809 206.129C211.98 205.73 213.324 205.531 214.84 205.531ZM214.84 207.922C213.887 207.922 213.059 208.02 212.355 208.215C211.652 208.402 211.109 208.684 210.727 209.059C210.352 209.426 210.168 209.867 210.176 210.383C210.168 210.883 210.352 211.312 210.727 211.672C211.109 212.031 211.652 212.305 212.355 212.492C213.059 212.68 213.887 212.773 214.84 212.773C215.801 212.773 216.633 212.68 217.336 212.492C218.039 212.305 218.578 212.031 218.953 211.672C219.336 211.312 219.527 210.883 219.527 210.383C219.527 209.867 219.336 209.426 218.953 209.059C218.578 208.684 218.039 208.402 217.336 208.215C216.633 208.02 215.801 207.922 214.84 207.922ZM248.355 209.844H251.238V212.281H248.355V217.203H245.355V204.828H248.355V209.844ZM242.402 206.234C242.41 208.117 242.027 209.812 241.254 211.32C240.488 212.828 239.363 214.117 237.879 215.188C236.402 216.258 234.605 217.086 232.488 217.672L231.293 215.258C233.613 214.641 235.441 213.758 236.777 212.609C238.121 211.453 238.91 210.125 239.145 208.625H232.301V206.234H242.402ZM241.395 217.461C242.832 217.461 244.094 217.641 245.18 218C246.266 218.352 247.105 218.855 247.699 219.512C248.293 220.168 248.59 220.938 248.59 221.82C248.59 222.711 248.293 223.484 247.699 224.141C247.105 224.797 246.266 225.301 245.18 225.652C244.094 226.004 242.832 226.18 241.395 226.18C239.957 226.18 238.691 226.004 237.598 225.652C236.504 225.301 235.656 224.793 235.055 224.129C234.461 223.473 234.168 222.703 234.176 221.82C234.168 220.938 234.461 220.168 235.055 219.512C235.656 218.855 236.504 218.352 237.598 218C238.691 217.641 239.957 217.461 241.395 217.461ZM241.395 219.781C240.035 219.781 238.98 219.961 238.23 220.32C237.488 220.672 237.121 221.172 237.129 221.82C237.121 222.461 237.492 222.961 238.242 223.32C238.992 223.68 240.043 223.852 241.395 223.836C242.723 223.852 243.762 223.68 244.512 223.32C245.262 222.961 245.637 222.461 245.637 221.82C245.637 221.172 245.262 220.672 244.512 220.32C243.77 219.961 242.73 219.781 241.395 219.781ZM269.098 211.391H271.98V213.828H269.098V220.766H266.098V204.852H269.098V211.391ZM264.832 209.445H252.176V207.078H257.027V204.805H260.004V207.078H264.832V209.445ZM258.504 210.195C259.527 210.195 260.434 210.367 261.223 210.711C262.02 211.055 262.641 211.539 263.086 212.164C263.531 212.789 263.754 213.508 263.754 214.32C263.754 215.133 263.531 215.848 263.086 216.465C262.648 217.074 262.031 217.551 261.234 217.895C260.438 218.23 259.527 218.398 258.504 218.398C257.473 218.398 256.555 218.23 255.75 217.895C254.953 217.551 254.328 217.074 253.875 216.465C253.43 215.848 253.207 215.133 253.207 214.32C253.207 213.508 253.43 212.789 253.875 212.164C254.328 211.539 254.953 211.055 255.75 210.711C256.555 210.367 257.473 210.195 258.504 210.195ZM258.504 212.469C257.777 212.484 257.199 212.652 256.77 212.973C256.34 213.293 256.129 213.742 256.137 214.32C256.129 214.898 256.336 215.344 256.758 215.656C257.188 215.969 257.77 216.125 258.504 216.125C259.238 216.125 259.824 215.969 260.262 215.656C260.699 215.336 260.918 214.891 260.918 214.32C260.918 213.742 260.699 213.293 260.262 212.973C259.824 212.652 259.238 212.484 258.504 212.469ZM269.871 225.781H255.27V219.547H258.246V223.391H269.871V225.781ZM286.043 208.086C286.035 209.086 286.254 210.039 286.699 210.945C287.145 211.852 287.766 212.648 288.562 213.336C289.367 214.023 290.285 214.547 291.316 214.906L290.379 216.359C289.168 215.922 288.105 215.27 287.191 214.402C286.277 213.535 285.586 212.523 285.117 211.367C284.664 212.602 283.973 213.688 283.043 214.625C282.121 215.555 281.051 216.258 279.832 216.734L278.871 215.281C279.902 214.898 280.816 214.344 281.613 213.617C282.418 212.883 283.043 212.035 283.488 211.074C283.941 210.113 284.168 209.117 284.168 208.086V206.094H286.043V208.086ZM295.863 225.898H294.035V220.18H281.848V218.656H295.863V225.898ZM295.863 217.625H294.035V205.062H295.863V217.625ZM318.387 215.375H309.785V217.438H315.949V222.102H303.574V224.211H316.582V225.664H301.746V220.719H314.145V218.867H301.699V217.438H307.957V215.375H299.402V213.875H318.387V215.375ZM315.926 212.117H301.863V205.766H315.926V212.117ZM303.691 210.641H314.098V207.242H303.691V210.641ZM337.324 225.945H335.473V205.062H337.324V225.945ZM326.238 206.68C327.27 206.688 328.188 206.992 328.992 207.594C329.797 208.188 330.426 209.031 330.879 210.125C331.332 211.219 331.559 212.492 331.559 213.945C331.559 215.398 331.332 216.672 330.879 217.766C330.426 218.859 329.797 219.703 328.992 220.297C328.188 220.891 327.27 221.188 326.238 221.188C325.207 221.188 324.285 220.891 323.473 220.297C322.668 219.703 322.039 218.859 321.586 217.766C321.141 216.672 320.918 215.398 320.918 213.945C320.918 212.492 321.141 211.219 321.586 210.125C322.039 209.031 322.668 208.188 323.473 207.594C324.277 206.992 325.199 206.688 326.238 206.68ZM326.238 208.32C325.543 208.328 324.926 208.566 324.387 209.035C323.855 209.496 323.441 210.152 323.145 211.004C322.848 211.848 322.699 212.828 322.699 213.945C322.699 215.062 322.848 216.047 323.145 216.898C323.441 217.742 323.859 218.395 324.398 218.855C324.938 219.316 325.551 219.547 326.238 219.547C326.926 219.547 327.539 219.316 328.078 218.855C328.617 218.395 329.035 217.742 329.332 216.898C329.629 216.047 329.777 215.062 329.777 213.945C329.777 212.828 329.629 211.848 329.332 211.004C329.035 210.152 328.617 209.496 328.078 209.035C327.547 208.566 326.934 208.328 326.238 208.32ZM358.746 225.898H356.965V205.062H358.746V225.898ZM354.551 224.844H352.793V214.719H350.109C350.047 216.062 349.824 217.23 349.441 218.223C349.059 219.207 348.539 219.969 347.883 220.508C347.227 221.039 346.473 221.305 345.621 221.305C344.723 221.305 343.934 221.012 343.254 220.426C342.582 219.832 342.062 218.988 341.695 217.895C341.328 216.801 341.145 215.523 341.145 214.062C341.145 212.602 341.328 211.324 341.695 210.23C342.062 209.137 342.582 208.297 343.254 207.711C343.934 207.117 344.723 206.82 345.621 206.82C346.457 206.82 347.199 207.078 347.848 207.594C348.496 208.109 349.012 208.848 349.395 209.809C349.785 210.77 350.02 211.898 350.098 213.195H352.793V205.508H354.551V224.844ZM345.621 208.555C345.059 208.555 344.57 208.777 344.156 209.223C343.742 209.668 343.422 210.309 343.195 211.145C342.977 211.973 342.871 212.945 342.879 214.062C342.871 215.18 342.977 216.152 343.195 216.98C343.422 217.809 343.742 218.445 344.156 218.891C344.578 219.336 345.066 219.555 345.621 219.547C346.176 219.555 346.66 219.336 347.074 218.891C347.496 218.445 347.82 217.809 348.047 216.98C348.273 216.152 348.387 215.18 348.387 214.062C348.387 212.938 348.273 211.961 348.047 211.133C347.82 210.305 347.5 209.668 347.086 209.223C346.672 208.777 346.184 208.555 345.621 208.555ZM380.707 223.227H361.629V221.68H366.363V216.055C365.457 215.586 364.754 214.984 364.254 214.25C363.754 213.508 363.504 212.672 363.504 211.742C363.504 210.68 363.828 209.746 364.477 208.941C365.125 208.129 366.023 207.5 367.172 207.055C368.328 206.609 369.645 206.383 371.121 206.375C372.598 206.383 373.91 206.609 375.059 207.055C376.215 207.5 377.117 208.129 377.766 208.941C378.414 209.746 378.738 210.68 378.738 211.742C378.738 212.656 378.496 213.48 378.012 214.215C377.527 214.941 376.848 215.539 375.973 216.008V221.68H380.707V223.227ZM371.121 207.898C369.988 207.891 368.98 208.047 368.098 208.367C367.215 208.688 366.523 209.141 366.023 209.727C365.531 210.305 365.285 210.977 365.285 211.742C365.285 212.508 365.531 213.188 366.023 213.781C366.523 214.367 367.215 214.824 368.098 215.152C368.98 215.473 369.988 215.633 371.121 215.633C372.246 215.633 373.25 215.469 374.133 215.141C375.016 214.812 375.707 214.355 376.207 213.77C376.707 213.184 376.957 212.508 376.957 211.742C376.957 210.977 376.707 210.305 376.207 209.727C375.707 209.141 375.016 208.688 374.133 208.367C373.25 208.047 372.246 207.891 371.121 207.898ZM374.121 221.68V216.723C373.191 216.965 372.191 217.086 371.121 217.086C370.043 217.086 369.059 216.969 368.168 216.734V221.68H374.121ZM384.574 224.141C384.301 224.141 384.047 224.074 383.812 223.941C383.586 223.801 383.402 223.613 383.262 223.379C383.129 223.145 383.066 222.891 383.074 222.617C383.066 222.352 383.129 222.105 383.262 221.879C383.402 221.645 383.586 221.461 383.812 221.328C384.047 221.188 384.301 221.117 384.574 221.117C384.84 221.117 385.086 221.188 385.312 221.328C385.547 221.461 385.73 221.645 385.863 221.879C386.004 222.105 386.074 222.352 386.074 222.617C386.074 222.891 386.004 223.145 385.863 223.379C385.73 223.613 385.547 223.801 385.312 223.941C385.086 224.074 384.84 224.141 384.574 224.141Z" fill="black"/>
<g clip-path="url(#clip0_212_408)">
<mask id="mask0_212_408" style="mask-type:luminance" maskUnits="userSpaceOnUse" x="37" y="31" width="20" height="20">
<path d="M57 31H37V51H57V31Z" fill="white"/>
</mask>
<g mask="url(#mask0_212_408)">
<path fill-rule="evenodd" clip-rule="evenodd" d="M41.4 31H37V46C37 48.7614 39.2386 51 42 51H46.4V36C46.4 33.2386 44.1614 31 41.4 31ZM52.6 31C49.8386 31 47.6 33.2386 47.6 36V51H52C54.7614 51 57 48.7614 57 46V31H52.6Z" fill="url(#paint0_linear_212_408)"/>
</g>
</g>
<path d="M77.2344 35.0703C77.2279 35.8516 77.3743 36.597 77.6738 37.3066C77.9733 38.0098 78.4355 38.6413 79.0605 39.2012C79.6855 39.7546 80.4635 40.181 81.3945 40.4805L80.0859 42.4336C79.1354 42.1146 78.3216 41.6523 77.6445 41.0469C76.9674 40.4349 76.4303 39.7122 76.0332 38.8789C75.6296 39.7969 75.0697 40.5879 74.3535 41.252C73.6374 41.916 72.7747 42.4206 71.7656 42.7656L70.3789 40.793C71.349 40.4935 72.1595 40.0508 72.8105 39.4648C73.4616 38.8724 73.9434 38.1986 74.2559 37.4434C74.5684 36.6882 74.7279 35.8906 74.7344 35.0508V33.1172H77.2344V35.0703ZM84.7734 37.1602H87.1758V39.2695H84.7734V45.0508H82.2734V32.0234H84.7734V37.1602ZM85.4375 49.4844H73.2305V43.7617H75.7695V47.4922H85.4375V49.4844ZM93.6602 36.4961C93.6602 38.0846 93.9141 39.5332 94.4219 40.8418C94.9297 42.1504 95.75 43.1693 96.8828 43.8984L95.5352 45.832C94.1029 44.9661 93.0775 43.5436 92.459 41.5645C92.127 42.6061 91.6875 43.5273 91.1406 44.3281C90.5938 45.1224 89.9297 45.7539 89.1484 46.2227L87.625 44.3867C88.8685 43.612 89.7799 42.5345 90.3594 41.1543C90.9453 39.7676 91.2383 38.2539 91.2383 36.6133V33.5469H93.6602V36.4961ZM103.367 49.7969H100.984V32.0234H103.367V49.7969ZM99.6367 48.9766H97.3125V40.0508H95.0078V38.0195H97.3125V32.2773H99.6367V48.9766ZM108.094 37.7461H110.555V33.625H112.82V38.5078H114.598V32.3164H116.941V49.0156H114.598V40.5391H112.82V45.5781H105.75V33.625H108.094V37.7461ZM110.555 43.5469V39.7188H108.094V43.5469H110.555ZM120.652 49.7969H118.27V32.0234H120.652V49.7969ZM137.43 49.8359H134.949V32.0234H137.43V49.8359ZM131.922 40.3633H126.062V43.625C127.456 43.6185 128.755 43.5697 129.959 43.4785C131.17 43.3874 132.41 43.2409 133.68 43.0391L133.895 45.0508C132.514 45.2917 131.141 45.4577 129.773 45.5488C128.406 45.6335 126.844 45.6758 125.086 45.6758H123.484V38.3906H129.383V35.5195H123.465V33.5078H131.922V40.3633ZM144.598 33.2734C145.496 33.2734 146.3 33.5339 147.01 34.0547C147.719 34.569 148.273 35.3047 148.67 36.2617C149.074 37.2188 149.279 38.332 149.285 39.6016C149.279 40.8776 149.074 41.9974 148.67 42.9609C148.273 43.918 147.719 44.6569 147.01 45.1777C146.307 45.6921 145.503 45.9492 144.598 45.9492C143.693 45.9492 142.882 45.6921 142.166 45.1777C141.456 44.6569 140.9 43.918 140.496 42.9609C140.099 41.9974 139.904 40.8776 139.91 39.6016C139.904 38.3385 140.099 37.2285 140.496 36.2715C140.9 35.3145 141.456 34.5755 142.166 34.0547C142.882 33.5339 143.693 33.2734 144.598 33.2734ZM144.598 35.5195C144.142 35.5195 143.742 35.679 143.396 35.998C143.051 36.3105 142.785 36.7728 142.596 37.3848C142.407 37.9967 142.312 38.7357 142.312 39.6016C142.312 40.4674 142.407 41.2096 142.596 41.8281C142.785 42.4401 143.051 42.9023 143.396 43.2148C143.742 43.5273 144.142 43.6836 144.598 43.6836C145.06 43.6836 145.464 43.5273 145.809 43.2148C146.154 42.9023 146.421 42.4401 146.609 41.8281C146.798 41.2161 146.896 40.474 146.902 39.6016C146.896 38.7357 146.798 37.9967 146.609 37.3848C146.421 36.7728 146.154 36.3105 145.809 35.998C145.464 35.679 145.06 35.5195 144.598 35.5195ZM153.836 38.7227H156.453V40.793H153.836V49.7969H151.336V32.0234H153.836V38.7227ZM170.457 37.4141C170.405 36.9583 170.239 36.5677 169.959 36.2422C169.686 35.9102 169.321 35.6595 168.865 35.4902C168.41 35.3145 167.898 35.2266 167.332 35.2266C166.72 35.2266 166.176 35.3275 165.701 35.5293C165.232 35.7246 164.868 35.998 164.607 36.3496C164.354 36.7012 164.227 37.1016 164.227 37.5508C164.227 38.2018 164.49 38.6999 165.018 39.0449C165.551 39.39 166.199 39.6602 166.961 39.8555L168.367 40.2461C169.461 40.526 170.402 40.959 171.189 41.5449C171.977 42.1243 172.371 42.9935 172.371 44.1523C172.371 44.9271 172.166 45.627 171.756 46.252C171.352 46.8704 170.763 47.3587 169.988 47.7168C169.22 48.0749 168.302 48.2539 167.234 48.2539C166.232 48.2539 165.356 48.0911 164.607 47.7656C163.859 47.4401 163.273 46.9811 162.85 46.3887C162.426 45.7962 162.189 45.1094 162.137 44.3281H163.934C163.986 44.8359 164.165 45.2656 164.471 45.6172C164.777 45.9622 165.167 46.2227 165.643 46.3984C166.124 46.5677 166.655 46.6523 167.234 46.6523C167.885 46.6523 168.468 46.5482 168.982 46.3398C169.503 46.1315 169.91 45.8353 170.203 45.4512C170.503 45.0605 170.652 44.6146 170.652 44.1133C170.652 43.6836 170.529 43.3223 170.281 43.0293C170.04 42.7363 169.721 42.4987 169.324 42.3164C168.934 42.1341 168.445 41.9583 167.859 41.7891L166.121 41.3203C164.962 40.9818 164.074 40.513 163.455 39.9141C162.837 39.3151 162.527 38.5534 162.527 37.6289C162.527 36.8542 162.739 36.1673 163.162 35.5684C163.592 34.9629 164.174 34.4941 164.91 34.1621C165.652 33.8301 166.479 33.6641 167.391 33.6641C168.289 33.6641 169.096 33.8268 169.812 34.1523C170.529 34.4779 171.095 34.9271 171.512 35.5C171.928 36.0664 172.15 36.7044 172.176 37.4141H170.457ZM174.168 44.9922C174.168 43.8919 174.542 43.1172 175.291 42.668C176.046 42.2188 177 41.9518 178.152 41.8672C178.595 41.8346 179.09 41.8053 179.637 41.7793C180.19 41.7467 180.652 41.724 181.023 41.7109V40.8516C181.023 40.168 180.818 39.6439 180.408 39.2793C180.005 38.9082 179.409 38.7227 178.621 38.7227C177.977 38.7227 177.449 38.8561 177.039 39.123C176.629 39.3835 176.362 39.7253 176.238 40.1484H174.48C174.552 39.582 174.773 39.0807 175.145 38.6445C175.516 38.2083 176.007 37.8698 176.619 37.6289C177.238 37.3815 177.931 37.2578 178.699 37.2578C179.715 37.2578 180.633 37.5182 181.453 38.0391C182.273 38.5534 182.684 39.543 182.684 41.0078V48H181.023V46.5547H180.945C180.815 46.8281 180.613 47.0951 180.34 47.3555C180.073 47.6094 179.721 47.8242 179.285 48C178.855 48.1693 178.354 48.2539 177.781 48.2539C177.104 48.2539 176.492 48.1237 175.945 47.8633C175.398 47.6029 174.965 47.2285 174.646 46.7402C174.327 46.2454 174.168 45.6628 174.168 44.9922ZM175.848 45.0703C175.848 45.6107 176.049 46.0273 176.453 46.3203C176.863 46.6068 177.404 46.75 178.074 46.75C178.68 46.75 179.204 46.6296 179.646 46.3887C180.096 46.1478 180.438 45.8288 180.672 45.4316C180.906 45.0345 181.023 44.6081 181.023 44.1523V43.0879L178.348 43.2734C177.553 43.3255 176.938 43.498 176.502 43.791C176.066 44.084 175.848 44.5104 175.848 45.0703ZM187.059 48H185.379V37.3945H187V39.0547H187.137C187.404 38.4883 187.791 38.0488 188.299 37.7363C188.813 37.4173 189.461 37.2578 190.242 37.2578C190.971 37.2578 191.603 37.4076 192.137 37.707C192.671 38 193.084 38.446 193.377 39.0449C193.67 39.6439 193.816 40.3828 193.816 41.2617V48H192.137V41.3789C192.137 40.5586 191.925 39.9173 191.502 39.4551C191.079 38.9928 190.49 38.7617 189.734 38.7617C189.214 38.7617 188.751 38.8757 188.348 39.1035C187.944 39.3249 187.628 39.6536 187.4 40.0898C187.173 40.5195 187.059 41.0339 187.059 41.6328V48ZM202.41 40.1484C202.286 39.6862 202.046 39.3281 201.688 39.0742C201.336 38.8138 200.861 38.6836 200.262 38.6836C199.832 38.6836 199.445 38.7552 199.1 38.8984C198.761 39.0352 198.494 39.2272 198.299 39.4746C198.11 39.7155 198.016 39.9857 198.016 40.2852C198.016 40.6367 198.162 40.9362 198.455 41.1836C198.755 41.431 199.214 41.6263 199.832 41.7695L201.414 42.1602C202.365 42.388 203.074 42.7396 203.543 43.2148C204.012 43.6836 204.246 44.2891 204.246 45.0312C204.246 45.6497 204.08 46.1999 203.748 46.6816C203.423 47.1569 202.947 47.5312 202.322 47.8047C201.697 48.0781 200.952 48.2148 200.086 48.2148C198.895 48.2148 197.951 47.9609 197.254 47.4531C196.557 46.9388 196.141 46.1966 196.004 45.2266H197.762C197.859 45.7409 198.097 46.125 198.475 46.3789C198.852 46.6263 199.376 46.75 200.047 46.75C200.802 46.75 201.401 46.6035 201.844 46.3105C202.286 46.0176 202.508 45.6237 202.508 45.1289C202.508 44.7513 202.368 44.4388 202.088 44.1914C201.808 43.9375 201.368 43.7422 200.77 43.6055L199.168 43.2344C198.243 43.0195 197.54 42.668 197.059 42.1797C196.577 41.6914 196.336 41.0924 196.336 40.3828C196.336 39.7839 196.499 39.2467 196.824 38.7715C197.156 38.2962 197.618 37.9251 198.211 37.6582C198.81 37.3913 199.493 37.2578 200.262 37.2578C200.978 37.2578 201.609 37.3783 202.156 37.6191C202.703 37.86 203.136 38.1986 203.455 38.6348C203.781 39.071 203.979 39.5755 204.051 40.1484H202.41ZM210.887 48.2148C209.878 48.2148 208.999 47.9902 208.25 47.541C207.501 47.0918 206.925 46.457 206.521 45.6367C206.124 44.8164 205.926 43.8659 205.926 42.7852C205.926 41.7044 206.124 40.7474 206.521 39.9141C206.925 39.0742 207.488 38.4232 208.211 37.9609C208.94 37.4922 209.78 37.2578 210.73 37.2578C211.531 37.2578 212.277 37.4368 212.967 37.7949C213.657 38.1465 214.217 38.7194 214.646 39.5137C215.083 40.3014 215.301 41.3138 215.301 42.5508V43.2539H207.605C207.632 43.9896 207.785 44.6178 208.064 45.1387C208.344 45.6595 208.725 46.0566 209.207 46.3301C209.695 46.597 210.255 46.7305 210.887 46.7305C211.486 46.7305 211.99 46.6198 212.4 46.3984C212.817 46.1706 213.133 45.8776 213.348 45.5195H215.145C214.975 46.0534 214.692 46.5254 214.295 46.9355C213.904 47.3392 213.416 47.6549 212.83 47.8828C212.251 48.1042 211.603 48.2148 210.887 48.2148ZM213.602 41.8281C213.602 41.2357 213.481 40.7083 213.24 40.2461C213.006 39.7773 212.671 39.4095 212.234 39.1426C211.798 38.8757 211.297 38.7422 210.73 38.7422C210.138 38.7422 209.611 38.8822 209.148 39.1621C208.693 39.4421 208.331 39.8197 208.064 40.2949C207.804 40.7637 207.654 41.2747 207.615 41.8281H213.602ZM221.961 48H220.223L216.316 37.3945H218.152L221.043 45.8125H221.16L224.051 37.3945H225.887L221.961 48ZM227.742 37.3945H229.422V48H227.742V37.3945ZM228.582 35.6367C228.257 35.6367 227.98 35.5293 227.752 35.3145C227.524 35.0996 227.41 34.8359 227.41 34.5234C227.41 34.2109 227.524 33.9473 227.752 33.7324C227.98 33.5176 228.257 33.4102 228.582 33.4102C228.908 33.4102 229.188 33.5176 229.422 33.7324C229.656 33.9473 229.773 34.2109 229.773 34.5234C229.773 34.8359 229.656 35.0996 229.422 35.3145C229.188 35.5293 228.908 35.6367 228.582 35.6367ZM236.551 48.2148C235.542 48.2148 234.663 47.9902 233.914 47.541C233.165 47.0918 232.589 46.457 232.186 45.6367C231.788 44.8164 231.59 43.8659 231.59 42.7852C231.59 41.7044 231.788 40.7474 232.186 39.9141C232.589 39.0742 233.152 38.4232 233.875 37.9609C234.604 37.4922 235.444 37.2578 236.395 37.2578C237.195 37.2578 237.941 37.4368 238.631 37.7949C239.321 38.1465 239.881 38.7194 240.311 39.5137C240.747 40.3014 240.965 41.3138 240.965 42.5508V43.2539H233.27C233.296 43.9896 233.449 44.6178 233.729 45.1387C234.008 45.6595 234.389 46.0566 234.871 46.3301C235.359 46.597 235.919 46.7305 236.551 46.7305C237.15 46.7305 237.654 46.6198 238.064 46.3984C238.481 46.1706 238.797 45.8776 239.012 45.5195H240.809C240.639 46.0534 240.356 46.5254 239.959 46.9355C239.568 47.3392 239.08 47.6549 238.494 47.8828C237.915 48.1042 237.267 48.2148 236.551 48.2148ZM239.266 41.8281C239.266 41.2357 239.145 40.7083 238.904 40.2461C238.67 39.7773 238.335 39.4095 237.898 39.1426C237.462 38.8757 236.961 38.7422 236.395 38.7422C235.802 38.7422 235.275 38.8822 234.812 39.1621C234.357 39.4421 233.995 39.8197 233.729 40.2949C233.468 40.7637 233.318 41.2747 233.279 41.8281H239.266ZM243.152 37.3945H244.773V39.0156H244.891C245.086 38.4753 245.434 38.0423 245.936 37.7168C246.437 37.3848 247 37.2188 247.625 37.2188C247.951 37.2188 248.243 37.2318 248.504 37.2578V38.957C248.432 38.931 248.292 38.9049 248.084 38.8789C247.882 38.8529 247.684 38.8398 247.488 38.8398C246.987 38.8398 246.535 38.9473 246.131 39.1621C245.727 39.377 245.408 39.6732 245.174 40.0508C244.946 40.4284 244.832 40.8516 244.832 41.3203V48H243.152V37.3945ZM250.145 37.3945H251.824V48H250.145V37.3945ZM250.984 35.6367C250.659 35.6367 250.382 35.5293 250.154 35.3145C249.926 35.0996 249.812 34.8359 249.812 34.5234C249.812 34.2109 249.926 33.9473 250.154 33.7324C250.382 33.5176 250.659 33.4102 250.984 33.4102C251.31 33.4102 251.59 33.5176 251.824 33.7324C252.059 33.9473 252.176 34.2109 252.176 34.5234C252.176 34.8359 252.059 35.0996 251.824 35.3145C251.59 35.5293 251.31 35.6367 250.984 35.6367ZM253.992 44.9922C253.992 43.8919 254.367 43.1172 255.115 42.668C255.87 42.2188 256.824 41.9518 257.977 41.8672C258.419 41.8346 258.914 41.8053 259.461 41.7793C260.014 41.7467 260.477 41.724 260.848 41.7109V40.8516C260.848 40.168 260.643 39.6439 260.232 39.2793C259.829 38.9082 259.233 38.7227 258.445 38.7227C257.801 38.7227 257.273 38.8561 256.863 39.123C256.453 39.3835 256.186 39.7253 256.062 40.1484H254.305C254.376 39.582 254.598 39.0807 254.969 38.6445C255.34 38.2083 255.831 37.8698 256.443 37.6289C257.062 37.3815 257.755 37.2578 258.523 37.2578C259.539 37.2578 260.457 37.5182 261.277 38.0391C262.098 38.5534 262.508 39.543 262.508 41.0078V48H260.848V46.5547H260.77C260.639 46.8281 260.438 47.0951 260.164 47.3555C259.897 47.6094 259.546 47.8242 259.109 48C258.68 48.1693 258.178 48.2539 257.605 48.2539C256.928 48.2539 256.316 48.1237 255.77 47.8633C255.223 47.6029 254.79 47.2285 254.471 46.7402C254.152 46.2454 253.992 45.6628 253.992 44.9922ZM255.672 45.0703C255.672 45.6107 255.874 46.0273 256.277 46.3203C256.688 46.6068 257.228 46.75 257.898 46.75C258.504 46.75 259.028 46.6296 259.471 46.3887C259.92 46.1478 260.262 45.8288 260.496 45.4316C260.73 45.0345 260.848 44.6081 260.848 44.1523V43.0879L258.172 43.2734C257.378 43.3255 256.762 43.498 256.326 43.791C255.89 44.084 255.672 44.5104 255.672 45.0703Z" fill="#1FAA67"/>
<defs>
<linearGradient id="paint0_linear_212_408" x1="47" y1="31" x2="47" y2="51" gradientUnits="userSpaceOnUse">
<stop stop-color="#1FAA67"/>
<stop offset="1" stop-color="#00E688"/>
</linearGradient>
<clipPath id="clip0_212_408">
<rect width="20" height="20" fill="white" transform="translate(37 31)"/>
</clipPath>
</defs>
</svg>
