<svg width="450" height="350" viewBox="0 0 450 350" fill="none" xmlns="http://www.w3.org/2000/svg">
<rect width="450" height="350" rx="44" fill="white"/>
<path d="M55.7812 84.1328C55.7812 85.2656 56.1602 86.3633 56.918 87.4258C57.6836 88.4805 58.6641 89.3789 59.8594 90.1211C61.0547 90.8555 62.2656 91.3359 63.4922 91.5625L62.6484 93.1094C61.5859 92.8594 60.5391 92.4531 59.5078 91.8906C58.4766 91.3281 57.5508 90.6328 56.7305 89.8047C55.9102 88.9766 55.2812 88.0664 54.8438 87.0742C54.4062 88.0586 53.7773 88.9648 52.957 89.793C52.1367 90.6211 51.2109 91.3203 50.1797 91.8906C49.1562 92.4531 48.1094 92.8594 47.0391 93.1094L46.1953 91.5625C47.4219 91.3203 48.6289 90.8359 49.8164 90.1094C51.0039 89.375 51.9727 88.4805 52.7227 87.4258C53.4805 86.3711 53.8594 85.2734 53.8594 84.1328V82.5391H55.7812V84.1328ZM64.4766 99.0625H45.3984V97.5391H64.4766V99.0625ZM77.2031 82.6562C77.1875 85.4531 76.3906 87.8398 74.8125 89.8164C73.2422 91.7852 70.7891 93.3047 67.4531 94.375L66.75 92.8516C70.1875 91.7812 72.5859 90.1992 73.9453 88.1055L66.9141 88.6562L66.5859 87.1328L74.6602 86.7461C74.9805 85.9648 75.1758 85.1094 75.2461 84.1797H67.6406V82.6562H77.2031ZM83.3438 96.2266H81.5156V81.0859H83.3438V96.2266ZM84 101.57H69.8906V95.1484H71.7188V100.07H84V101.57ZM103.172 85.9609H106.312V87.5078H103.172V92.1719H101.344V81.0625H103.172V85.9609ZM97.1016 83.9688H89.6953V89.9219C91.8828 89.9219 93.6523 89.875 95.0039 89.7812C96.3555 89.6797 97.7031 89.4922 99.0469 89.2188L99.2812 90.7422C97.8594 91.0234 96.4375 91.2148 95.0156 91.3164C93.6016 91.418 91.7578 91.4688 89.4844 91.4688H87.8672V82.4453H97.1016V83.9688ZM91.8047 95.8984H101.344V93.2969H103.172V101.547H89.9766V93.2969H91.8047V95.8984ZM101.344 100.023V97.375H91.8047V100.023H101.344ZM114.961 86.6641C114.961 87.8984 115.203 89.1172 115.688 90.3203C116.172 91.5234 116.828 92.5938 117.656 93.5312C118.484 94.4609 119.398 95.1562 120.398 95.6172L119.297 97.1172C118.117 96.5078 117.062 95.6133 116.133 94.4336C115.203 93.2539 114.508 91.9219 114.047 90.4375C113.578 92.0078 112.879 93.418 111.949 94.668C111.027 95.918 109.977 96.8594 108.797 97.4922L107.602 96.0156C108.609 95.5234 109.531 94.7852 110.367 93.8008C111.203 92.8086 111.863 91.6875 112.348 90.4375C112.84 89.1797 113.086 87.9219 113.086 86.6641V82.8672H114.961V86.6641ZM124.898 101.945H123.07V89.6875H118.125V88.1875H123.07V81.0625H124.898V101.945ZM138.75 84.1328C138.75 85.2656 139.129 86.3633 139.887 87.4258C140.652 88.4805 141.633 89.3789 142.828 90.1211C144.023 90.8555 145.234 91.3359 146.461 91.5625L145.617 93.1094C144.555 92.8594 143.508 92.4531 142.477 91.8906C141.445 91.3281 140.52 90.6328 139.699 89.8047C138.879 88.9766 138.25 88.0664 137.812 87.0742C137.375 88.0586 136.746 88.9648 135.926 89.793C135.105 90.6211 134.18 91.3203 133.148 91.8906C132.125 92.4531 131.078 92.8594 130.008 93.1094L129.164 91.5625C130.391 91.3203 131.598 90.8359 132.785 90.1094C133.973 89.375 134.941 88.4805 135.691 87.4258C136.449 86.3711 136.828 85.2734 136.828 84.1328V82.5391H138.75V84.1328ZM147.445 99.0625H128.367V97.5391H147.445V99.0625ZM165.961 88.8672H151.688V81.8359H153.516V87.3906H165.961V88.8672ZM168.164 93.2031H149.086V91.7031H168.164V93.2031ZM166.078 101.383H151.57V95.3359H153.398V99.8594H166.078V101.383ZM192.539 88.0703H186.398V89.9219H194.625V92.2891H175.172V89.9219H183.398V88.0703H177.633V81.2266H180.609V85.6797H192.539V88.0703ZM192.539 96.1094H189.633V99.5312H192.773V101.922H177.07V99.5312H180.164V96.1094H177.258V93.7891H192.539V96.1094ZM186.68 99.5312V96.1094H183.117V99.5312H186.68ZM215.367 94.1172H195.914V91.7266H215.367V94.1172ZM213.164 101.781H198.258V95.5469H201.258V99.3906H213.164V101.781ZM205.641 81.4844C207.188 81.4766 208.543 81.6484 209.707 82C210.879 82.3516 211.785 82.8555 212.426 83.5117C213.066 84.168 213.391 84.9453 213.398 85.8438C213.391 86.7422 213.066 87.5234 212.426 88.1875C211.785 88.8516 210.879 89.3633 209.707 89.7227C208.543 90.0742 207.188 90.25 205.641 90.25C204.078 90.25 202.711 90.0742 201.539 89.7227C200.367 89.3633 199.461 88.8516 198.82 88.1875C198.18 87.5234 197.859 86.7422 197.859 85.8438C197.859 84.9453 198.18 84.168 198.82 83.5117C199.461 82.8555 200.367 82.3516 201.539 82C202.711 81.6484 204.078 81.4766 205.641 81.4844ZM205.641 83.8281C204.148 83.8438 202.996 84.0234 202.184 84.3672C201.371 84.7109 200.969 85.2031 200.977 85.8438C200.969 86.5 201.367 86.9961 202.172 87.332C202.984 87.668 204.141 87.8359 205.641 87.8359C207.141 87.8359 208.293 87.668 209.098 87.332C209.902 86.9961 210.305 86.5 210.305 85.8438C210.305 85.2031 209.898 84.7109 209.086 84.3672C208.273 84.0234 207.125 83.8438 205.641 83.8281ZM234.188 83.3828V83.6406C234.172 84.6406 234.133 85.543 234.07 86.3477C234.008 87.1523 233.875 88.0312 233.672 88.9844L230.742 88.7734C231.008 87.3672 231.156 85.9062 231.188 84.3906H223.172V82H234.188V83.3828ZM228.844 90.4492C231.227 90.3555 233.328 90.2031 235.148 89.9922L235.312 92.0781C233.312 92.4297 231.215 92.668 229.02 92.793C226.832 92.9102 224.547 92.9688 222.164 92.9688L221.906 90.5781H222.891L225.867 90.5312V86.7578H228.844V90.4492ZM239.367 86.0781H241.969V88.5625H239.367V93.8359H236.297V80.8281H239.367V86.0781ZM232.102 94.0938C233.609 94.0938 234.922 94.2539 236.039 94.5742C237.156 94.8945 238.012 95.3555 238.605 95.957C239.207 96.5508 239.508 97.25 239.508 98.0547C239.508 98.9062 239.207 99.6367 238.605 100.246C238.012 100.855 237.16 101.316 236.051 101.629C234.941 101.949 233.625 102.109 232.102 102.109C230.578 102.109 229.258 101.949 228.141 101.629C227.031 101.309 226.176 100.844 225.574 100.234C224.973 99.6328 224.672 98.9062 224.672 98.0547C224.672 97.25 224.973 96.5508 225.574 95.957C226.176 95.3555 227.035 94.8945 228.152 94.5742C229.277 94.2539 230.594 94.0938 232.102 94.0938ZM232.102 96.3906C230.695 96.3906 229.613 96.5352 228.855 96.8242C228.098 97.1055 227.719 97.5156 227.719 98.0547C227.719 98.6484 228.09 99.0859 228.832 99.3672C229.574 99.6484 230.664 99.7891 232.102 99.7891C233.531 99.7891 234.609 99.6484 235.336 99.3672C236.07 99.0859 236.438 98.6484 236.438 98.0547C236.438 97.5156 236.062 97.1055 235.312 96.8242C234.57 96.5352 233.5 96.3906 232.102 96.3906ZM262.734 86.1719H259.852V88.2109H262.734V90.6719H259.852V93.7188H256.852V80.8516H259.852V83.6875H262.734V86.1719ZM253.477 88.4688H246.68V90.3438C248.516 90.3281 250.082 90.2773 251.379 90.1914C252.684 90.0977 253.992 89.9375 255.305 89.7109L255.633 92.1016C254.172 92.3672 252.691 92.5469 251.191 92.6406C249.699 92.7344 247.805 92.7812 245.508 92.7812H243.703V86.2188H250.57V84.4609H243.68V82.1172H253.477V88.4688ZM252.82 94.0469C254.289 94.0469 255.566 94.2109 256.652 94.5391C257.746 94.8672 258.586 95.3398 259.172 95.957C259.766 96.5742 260.062 97.3047 260.062 98.1484C260.062 98.9844 259.766 99.6992 259.172 100.293C258.586 100.895 257.75 101.352 256.664 101.664C255.578 101.977 254.297 102.133 252.82 102.133C251.312 102.133 250.008 101.977 248.906 101.664C247.812 101.352 246.973 100.895 246.387 100.293C245.801 99.6992 245.508 98.9844 245.508 98.1484C245.508 97.3047 245.801 96.5742 246.387 95.957C246.98 95.3398 247.824 94.8672 248.918 94.5391C250.02 94.2109 251.32 94.0469 252.82 94.0469ZM252.82 96.3672C251.391 96.3672 250.305 96.5156 249.562 96.8125C248.82 97.1094 248.453 97.5547 248.461 98.1484C248.453 98.7188 248.82 99.1562 249.562 99.4609C250.312 99.7578 251.398 99.9062 252.82 99.9062C254.227 99.9062 255.293 99.7578 256.02 99.4609C256.746 99.1641 257.109 98.7266 257.109 98.1484C257.109 96.9609 255.68 96.3672 252.82 96.3672ZM282.164 102.156H279.305V80.8281H282.164V102.156ZM277.711 101.172H274.898V91.0938H273.176C273.09 92.4844 272.84 93.6836 272.426 94.6914C272.02 95.6992 271.48 96.4727 270.809 97.0117C270.137 97.5508 269.367 97.8203 268.5 97.8203C267.57 97.8203 266.754 97.5078 266.051 96.8828C265.355 96.2578 264.816 95.3633 264.434 94.1992C264.051 93.0273 263.859 91.6484 263.859 90.0625C263.859 88.4844 264.051 87.1172 264.434 85.9609C264.816 84.7969 265.355 83.9062 266.051 83.2891C266.754 82.6641 267.57 82.3516 268.5 82.3516C269.352 82.3516 270.105 82.6055 270.762 83.1133C271.426 83.6211 271.961 84.3555 272.367 85.3164C272.781 86.2695 273.043 87.4062 273.152 88.7266H274.898V81.1328H277.711V101.172ZM268.5 85.1641C267.891 85.1641 267.422 85.5781 267.094 86.4062C266.773 87.2344 266.617 88.4531 266.625 90.0625C266.617 91.6797 266.773 92.9023 267.094 93.7305C267.422 94.5508 267.891 94.9531 268.5 94.9375C269.117 94.9531 269.594 94.5508 269.93 93.7305C270.273 92.9023 270.445 91.6797 270.445 90.0625C270.445 88.4531 270.273 87.2344 269.93 86.4062C269.594 85.5781 269.117 85.1641 268.5 85.1641ZM292.477 85.6562C292.477 87.0312 292.664 88.3438 293.039 89.5938C293.422 90.8359 294 91.9414 294.773 92.9102C295.547 93.8711 296.508 94.6016 297.656 95.1016L295.828 97.4922C294.68 96.9297 293.699 96.1445 292.887 95.1367C292.082 94.1211 291.449 92.9375 290.988 91.5859C290.512 93.0312 289.852 94.293 289.008 95.3711C288.172 96.4492 287.164 97.2812 285.984 97.8672L284.109 95.4297C285.281 94.9062 286.266 94.1367 287.062 93.1211C287.859 92.1055 288.453 90.9531 288.844 89.6641C289.242 88.375 289.445 87.0391 289.453 85.6562V82.4688H292.477V85.6562ZM302.414 102.203H299.461V89.9453H295.266V87.5312H299.461V80.8281H302.414V102.203ZM322.758 84.1797H318.539C318.602 84.9062 318.824 85.6016 319.207 86.2656C319.598 86.9297 320.156 87.5234 320.883 88.0469C321.609 88.5703 322.492 88.9766 323.531 89.2656L322.125 91.5625C320.945 91.2422 319.93 90.7539 319.078 90.0977C318.227 89.4414 317.555 88.6562 317.062 87.7422C316.57 88.7734 315.879 89.6602 314.988 90.4023C314.105 91.1367 313.031 91.6797 311.766 92.0312L310.312 89.7109C311.391 89.3984 312.305 88.957 313.055 88.3867C313.805 87.8164 314.379 87.1719 314.777 86.4531C315.176 85.7266 315.406 84.9688 315.469 84.1797H311.133V81.8359H322.758V84.1797ZM327.609 85.0469H330.492V87.4375H327.609V91.7734H324.609V80.8281H327.609V85.0469ZM327.609 98.2188H316.43V99.6719H328.219V101.945H313.5V96.1094H324.633V94.8438H313.453V92.5938H327.609V98.2188ZM344.836 86.6406C344.828 87.7578 345.02 88.8789 345.41 90.0039C345.809 91.1289 346.402 92.1602 347.191 93.0977C347.98 94.0273 348.938 94.75 350.062 95.2656L348.398 97.6094C347.242 97.0781 346.238 96.3086 345.387 95.3008C344.535 94.2852 343.863 93.1133 343.371 91.7852C342.879 93.2461 342.191 94.5312 341.309 95.6406C340.434 96.75 339.398 97.5859 338.203 98.1484L336.469 95.7812C337.609 95.25 338.582 94.4961 339.387 93.5195C340.191 92.5352 340.797 91.4453 341.203 90.25C341.617 89.0547 341.828 87.8516 341.836 86.6406V85.3281H337.312V82.8906H349.125V85.3281H344.836V86.6406ZM353.789 88.9609H356.93V91.4688H353.789V102.156H350.789V80.8281H353.789V88.9609ZM374.531 88.8906H377.672V91.3516H374.531V102.203H371.578V80.8281H374.531V88.8906ZM368.438 90.8828H361.57V94.75C363.219 94.7422 364.711 94.6914 366.047 94.5977C367.383 94.5039 368.727 94.3438 370.078 94.1172L370.336 96.5078C368.789 96.7891 367.25 96.9805 365.719 97.082C364.188 97.1836 362.414 97.2344 360.398 97.2344H358.594V88.5156H365.461V85.0234H358.57V82.6094H368.438V90.8828ZM396.023 84.6953C396.023 85.9062 396.008 86.9648 395.977 87.8711C395.953 88.7695 395.875 89.8164 395.742 91.0117C395.617 92.1992 395.422 93.4922 395.156 94.8906L392.156 94.5859C392.516 92.8047 392.746 91.2031 392.848 89.7812C392.949 88.3594 393.008 86.7812 393.023 85.0469H380.461V82.6797H396.023V84.6953ZM397.898 99.5547H378.445V97.1172H385.406V89.7812H388.383V97.1172H397.898V99.5547ZM401.672 104.945H399.188L400.359 98.2656H403.688L401.672 104.945ZM131.496 132.156H128.637V110.828H131.496V132.156ZM127.137 131.172H124.324V124.562H121.816C121.418 125.609 120.875 126.414 120.188 126.977C119.508 127.539 118.723 127.82 117.832 127.82C116.902 127.82 116.086 127.508 115.383 126.883C114.688 126.258 114.148 125.363 113.766 124.199C113.383 123.027 113.191 121.648 113.191 120.062C113.191 118.484 113.383 117.117 113.766 115.961C114.148 114.797 114.688 113.906 115.383 113.289C116.086 112.664 116.902 112.352 117.832 112.352C118.715 112.352 119.496 112.629 120.176 113.184C120.863 113.738 121.406 114.531 121.805 115.562H124.324V111.133H127.137V131.172ZM117.832 115.164C117.207 115.164 116.727 115.578 116.391 116.406C116.062 117.234 115.902 118.453 115.91 120.062C115.902 121.68 116.062 122.902 116.391 123.73C116.719 124.551 117.199 124.953 117.832 124.938C118.465 124.953 118.953 124.551 119.297 123.73C119.648 122.902 119.824 121.68 119.824 120.062C119.824 118.469 119.648 117.254 119.297 116.418C118.945 115.582 118.457 115.164 117.832 115.164ZM122.402 117.953C122.496 118.609 122.543 119.312 122.543 120.062C122.543 120.805 122.496 121.5 122.402 122.148H124.324V117.953H122.402ZM153.246 124.141H133.723V121.75H153.246V124.141ZM151.137 131.781H136.02V125.477H138.996V129.391H151.137V131.781ZM138.082 113.711H140.074V111.625H142.84V120.344H135.27V111.625H138.082V113.711ZM140.074 117.93V116.008H138.082V117.93H140.074ZM146.918 113.711H148.84V111.625H151.676V120.344H144.082V111.625H146.918V113.711ZM148.84 117.93V116.008H146.918V117.93H148.84ZM179.52 125.148H171.176V132.133H168.223V125.148H159.996V122.758H179.52V125.148ZM177.176 120.461H162.293V111.859H177.176V120.461ZM165.246 118.117H174.199V114.227H165.246V118.117ZM198.832 132.156H195.879V110.828H198.832V132.156ZM180.762 124.867C183.73 124.852 186.277 124.812 188.402 124.75C190.535 124.68 192.59 124.531 194.566 124.305L194.73 126.508C192.652 126.844 190.523 127.062 188.344 127.164C186.172 127.258 183.738 127.305 181.043 127.305L180.762 124.867ZM193.441 120.953H182.379V112.633H185.355V118.562H193.441V120.953ZM218.332 119.008H221.355V121.469H218.332V132.109H215.332V110.828H218.332V119.008ZM212.637 113.008C212.621 116.406 211.855 119.41 210.34 122.02C208.832 124.621 206.371 126.758 202.957 128.43L201.27 126.133C203.809 124.859 205.758 123.352 207.117 121.609C208.484 119.867 209.309 117.812 209.59 115.445H202.488V113.008H212.637ZM235.77 114.484C235.77 115.438 235.945 116.352 236.297 117.227C236.648 118.094 237.188 118.871 237.914 119.559C238.641 120.238 239.551 120.758 240.645 121.117L239.027 123.461C237.926 123.055 236.977 122.477 236.18 121.727C235.391 120.977 234.766 120.094 234.305 119.078C233.836 120.227 233.176 121.219 232.324 122.055C231.48 122.883 230.457 123.516 229.254 123.953L227.637 121.609C228.785 121.234 229.738 120.684 230.496 119.957C231.262 119.23 231.828 118.395 232.195 117.449C232.562 116.504 232.746 115.508 232.746 114.461V112.141H235.77V114.484ZM245.754 126.602H242.777V117.789H238.77V115.375H242.777V110.852H245.754V126.602ZM246.199 131.781H231.551V124.938H234.574V129.391H246.199V131.781ZM266.496 123.32H263.52V120.602H259.535V122.148H249.41V112.398H259.535V113.945H263.52V110.828H266.496V123.32ZM252.387 119.781H256.605V114.766H252.387V119.781ZM259.207 123.883C260.715 123.883 262.02 124.047 263.121 124.375C264.223 124.703 265.07 125.18 265.664 125.805C266.258 126.422 266.559 127.164 266.566 128.031C266.559 128.898 266.258 129.641 265.664 130.258C265.07 130.875 264.223 131.344 263.121 131.664C262.027 131.992 260.723 132.156 259.207 132.156C257.691 132.156 256.383 131.992 255.281 131.664C254.188 131.344 253.344 130.875 252.75 130.258C252.164 129.641 251.871 128.898 251.871 128.031C251.871 127.164 252.164 126.422 252.75 125.805C253.344 125.18 254.191 124.703 255.293 124.375C256.395 124.047 257.699 123.883 259.207 123.883ZM259.207 126.156C257.777 126.156 256.691 126.312 255.949 126.625C255.215 126.938 254.848 127.406 254.848 128.031C254.848 128.641 255.219 129.102 255.961 129.414C256.703 129.727 257.785 129.883 259.207 129.883C260.629 129.883 261.715 129.727 262.465 129.414C263.215 129.102 263.59 128.641 263.59 128.031C263.59 127.406 263.215 126.938 262.465 126.625C261.723 126.312 260.637 126.156 259.207 126.156ZM263.52 118.188V116.312H259.535V118.188H263.52ZM279.551 116.453H269.238V114.086H272.941V111.414H275.895V114.086H279.551V116.453ZM274.441 117.414C275.34 117.414 276.141 117.633 276.844 118.07C277.555 118.5 278.109 119.098 278.508 119.863C278.914 120.629 279.121 121.5 279.129 122.477C279.121 123.453 278.914 124.328 278.508 125.102C278.109 125.875 277.555 126.48 276.844 126.918C276.141 127.348 275.34 127.562 274.441 127.562C273.543 127.562 272.734 127.348 272.016 126.918C271.305 126.48 270.746 125.875 270.34 125.102C269.934 124.328 269.73 123.453 269.73 122.477C269.73 121.508 269.934 120.641 270.34 119.875C270.746 119.102 271.305 118.5 272.016 118.07C272.734 117.633 273.543 117.414 274.441 117.414ZM274.441 119.898C273.809 119.898 273.301 120.129 272.918 120.59C272.543 121.051 272.355 121.68 272.355 122.477C272.355 123.273 272.543 123.898 272.918 124.352C273.301 124.805 273.809 125.031 274.441 125.031C275.051 125.031 275.543 124.805 275.918 124.352C276.301 123.898 276.496 123.273 276.504 122.477C276.496 121.68 276.301 121.051 275.918 120.59C275.543 120.129 275.051 119.898 274.441 119.898ZM287.707 132.156H284.871V121.891H283.137V131.242H280.348V111.25H283.137V119.5H284.871V110.828H287.707V132.156ZM308.027 132.156H305.027V123.602H301.512V121.141H305.027V119.148H301.512V116.688H305.027V110.828H308.027V132.156ZM298.066 116.172C298.066 117.328 298.266 118.512 298.664 119.723C299.07 120.934 299.668 122.047 300.457 123.062C301.246 124.07 302.199 124.852 303.316 125.406L301.535 127.703C300.41 127.141 299.434 126.32 298.605 125.242C297.777 124.164 297.117 122.922 296.625 121.516C296.164 123.039 295.516 124.387 294.68 125.559C293.844 126.73 292.848 127.633 291.691 128.266L289.746 125.992C290.887 125.43 291.852 124.633 292.641 123.602C293.43 122.57 294.02 121.414 294.41 120.133C294.801 118.844 294.996 117.523 294.996 116.172V115.281H290.566V112.891H302.402V115.281H298.066V116.172ZM330.27 129.672H310.746V127.211H315.105V121.996C314.262 121.488 313.609 120.863 313.148 120.121C312.688 119.371 312.457 118.531 312.457 117.602C312.457 116.469 312.801 115.469 313.488 114.602C314.176 113.734 315.125 113.062 316.336 112.586C317.555 112.102 318.934 111.859 320.473 111.859C322.004 111.859 323.375 112.102 324.586 112.586C325.805 113.062 326.762 113.734 327.457 114.602C328.152 115.469 328.504 116.469 328.512 117.602C328.504 118.508 328.273 119.332 327.82 120.074C327.375 120.809 326.746 121.43 325.934 121.938V127.211H330.27V129.672ZM320.473 114.227C319.457 114.227 318.566 114.359 317.801 114.625C317.043 114.891 316.453 115.277 316.031 115.785C315.617 116.285 315.41 116.891 315.41 117.602C315.41 118.289 315.617 118.887 316.031 119.395C316.453 119.902 317.047 120.293 317.812 120.566C318.578 120.84 319.465 120.977 320.473 120.977C321.473 120.977 322.355 120.84 323.121 120.566C323.887 120.293 324.48 119.902 324.902 119.395C325.332 118.887 325.551 118.289 325.559 117.602C325.551 116.898 325.336 116.293 324.914 115.785C324.492 115.277 323.898 114.891 323.133 114.625C322.367 114.359 321.48 114.227 320.473 114.227ZM322.91 127.211V123.074C322.105 123.223 321.293 123.297 320.473 123.297C319.598 123.297 318.793 123.223 318.059 123.074V127.211H322.91ZM334.254 130.211C333.895 130.211 333.562 130.121 333.258 129.941C332.953 129.762 332.711 129.523 332.531 129.227C332.359 128.922 332.277 128.594 332.285 128.242C332.277 127.891 332.359 127.566 332.531 127.27C332.711 126.973 332.953 126.738 333.258 126.566C333.562 126.387 333.895 126.297 334.254 126.297C334.59 126.297 334.906 126.387 335.203 126.566C335.508 126.738 335.75 126.973 335.93 127.27C336.109 127.566 336.199 127.891 336.199 128.242C336.199 128.594 336.109 128.922 335.93 129.227C335.75 129.523 335.508 129.762 335.203 129.941C334.906 130.121 334.59 130.211 334.254 130.211Z" fill="black"/>
<path d="M164.17 168.016H157.002V173.621H155.498V168.016H148.35V166.727H164.17V168.016ZM157.021 159.656C157.021 160.353 157.311 161.02 157.891 161.658C158.47 162.29 159.232 162.827 160.176 163.27C161.12 163.712 162.113 164.005 163.154 164.148L162.588 165.379C161.689 165.242 160.824 165.005 159.99 164.666C159.163 164.327 158.424 163.908 157.773 163.406C157.129 162.905 156.628 162.345 156.27 161.727C155.911 162.352 155.404 162.915 154.746 163.416C154.095 163.917 153.353 164.337 152.52 164.676C151.686 165.008 150.817 165.242 149.912 165.379L149.346 164.148C150.387 164.005 151.38 163.715 152.324 163.279C153.268 162.837 154.033 162.299 154.619 161.668C155.205 161.03 155.498 160.359 155.498 159.656V159.637H149.893V158.387H155.498V156.219H157.002V158.387H162.646V159.637H157.021V159.656ZM171.553 160.379C171.553 161.134 171.738 161.857 172.109 162.547C172.487 163.23 173.008 163.829 173.672 164.344C174.342 164.858 175.107 165.249 175.967 165.516L175.205 166.746C174.196 166.421 173.311 165.926 172.549 165.262C171.794 164.598 171.221 163.823 170.83 162.938C170.452 163.888 169.883 164.721 169.121 165.438C168.366 166.147 167.477 166.681 166.455 167.039L165.693 165.848C166.54 165.561 167.292 165.145 167.949 164.598C168.613 164.044 169.128 163.403 169.492 162.674C169.863 161.945 170.049 161.18 170.049 160.379V159.812H166.123V158.562H170.049V156.336H171.592V158.562H175.479V159.812H171.553V160.379ZM180.029 169.207H178.486V162.859H174.873V161.59H178.486V156.238H180.029V169.207ZM180.518 173.211H168.877V168.035H170.42V171.922H180.518V173.211ZM203.838 171.355H187.939V170.066H195.107V165.848H196.65V170.066H203.838V171.355ZM196.65 159.52C196.65 160.405 196.969 161.251 197.607 162.059C198.245 162.859 199.062 163.536 200.059 164.09C201.055 164.637 202.061 164.995 203.076 165.164L202.451 166.375C201.546 166.199 200.658 165.9 199.785 165.477C198.919 165.047 198.141 164.513 197.451 163.875C196.761 163.237 196.237 162.531 195.879 161.756C195.521 162.537 194.997 163.25 194.307 163.895C193.623 164.539 192.848 165.079 191.982 165.516C191.123 165.952 190.251 166.264 189.365 166.453L188.721 165.223C189.717 165.047 190.706 164.679 191.689 164.119C192.673 163.559 193.48 162.872 194.111 162.059C194.749 161.245 195.068 160.398 195.068 159.52V159.09H189.248V157.801H202.471V159.09H196.65V159.52ZM219.619 166.512H218.076V163.777H214.014V165.262H206.045V157.547H214.014V159.051H218.076V156.219H219.619V166.512ZM207.568 164.012H212.51V158.797H207.568V164.012ZM213.857 167.02C215.062 167.02 216.1 167.15 216.973 167.41C217.845 167.664 218.512 168.038 218.975 168.533C219.443 169.021 219.678 169.611 219.678 170.301C219.678 170.984 219.443 171.567 218.975 172.049C218.512 172.537 217.845 172.908 216.973 173.162C216.1 173.416 215.062 173.543 213.857 173.543C212.653 173.543 211.615 173.416 210.742 173.162C209.87 172.908 209.199 172.537 208.73 172.049C208.268 171.567 208.037 170.984 208.037 170.301C208.037 169.611 208.268 169.021 208.73 168.533C209.199 168.038 209.87 167.664 210.742 167.41C211.615 167.15 212.653 167.02 213.857 167.02ZM213.857 168.211C212.972 168.217 212.204 168.305 211.553 168.475C210.908 168.637 210.413 168.875 210.068 169.188C209.723 169.5 209.554 169.871 209.561 170.301C209.554 170.711 209.723 171.069 210.068 171.375C210.42 171.681 210.918 171.915 211.562 172.078C212.214 172.247 212.979 172.332 213.857 172.332C214.736 172.332 215.498 172.247 216.143 172.078C216.787 171.915 217.282 171.684 217.627 171.385C217.979 171.079 218.154 170.717 218.154 170.301C218.154 169.871 217.982 169.5 217.637 169.188C217.292 168.875 216.797 168.637 216.152 168.475C215.508 168.305 214.743 168.217 213.857 168.211ZM218.076 162.488V160.32H214.014V162.488H218.076ZM241.104 161.395H243.74V162.684H241.104V168.797H239.58V156.219H241.104V161.395ZM236.084 159.012H229.873V164.422C231.729 164.422 233.213 164.386 234.326 164.314C235.446 164.236 236.559 164.083 237.666 163.855L237.861 165.125C236.676 165.353 235.492 165.509 234.307 165.594C233.122 165.672 231.585 165.711 229.697 165.711H228.35V157.723H236.084V159.012ZM241.904 173.211H230.244V167.527H231.748V171.922H241.904V173.211ZM259.678 173.582H258.213V156.219H259.678V173.582ZM256.162 172.703H254.697V166.688H251.475V165.418H254.697V162.332H251.758C251.328 163.849 250.615 165.239 249.619 166.502C248.623 167.765 247.327 168.875 245.732 169.832L244.795 168.719C246.65 167.625 248.07 166.316 249.053 164.793C250.042 163.263 250.615 161.57 250.771 159.715H245.576V158.445H252.295C252.295 159.337 252.217 160.21 252.061 161.062H254.697V156.688H256.162V172.703ZM263.936 170.125C263.708 170.125 263.496 170.07 263.301 169.959C263.112 169.842 262.959 169.686 262.842 169.49C262.731 169.295 262.679 169.083 262.686 168.855C262.679 168.634 262.731 168.429 262.842 168.24C262.959 168.045 263.112 167.892 263.301 167.781C263.496 167.664 263.708 167.605 263.936 167.605C264.157 167.605 264.362 167.664 264.551 167.781C264.746 167.892 264.899 168.045 265.01 168.24C265.127 168.429 265.186 168.634 265.186 168.855C265.186 169.083 265.127 169.295 265.01 169.49C264.899 169.686 264.746 169.842 264.551 169.959C264.362 170.07 264.157 170.125 263.936 170.125ZM263.936 162.273C263.708 162.273 263.496 162.218 263.301 162.107C263.112 161.99 262.959 161.834 262.842 161.639C262.731 161.443 262.679 161.232 262.686 161.004C262.679 160.783 262.731 160.577 262.842 160.389C262.959 160.193 263.112 160.04 263.301 159.93C263.496 159.812 263.708 159.754 263.936 159.754C264.157 159.754 264.362 159.812 264.551 159.93C264.746 160.04 264.899 160.193 265.01 160.389C265.127 160.577 265.186 160.783 265.186 161.004C265.186 161.232 265.127 161.443 265.01 161.639C264.899 161.834 264.746 161.99 264.551 162.107C264.362 162.218 264.157 162.273 263.936 162.273ZM279.756 159.52V159.422H272.275V157.859H281.572V159.5L275.107 172H273.271L279.756 159.52ZM282.119 176.004H280.674L281.748 170.691H283.643L282.119 176.004ZM296.279 172.195C295.303 172.195 294.43 172.029 293.662 171.697C292.9 171.359 292.308 170.89 291.885 170.291C291.462 169.692 291.253 169.012 291.26 168.25C291.253 167.651 291.374 167.094 291.621 166.58C291.875 166.059 292.223 165.63 292.666 165.291C293.109 164.952 293.597 164.741 294.131 164.656V164.578C293.669 164.467 293.262 164.262 292.91 163.963C292.559 163.657 292.285 163.283 292.09 162.84C291.901 162.397 291.807 161.922 291.807 161.414C291.807 160.704 291.999 160.063 292.383 159.49C292.773 158.917 293.307 158.471 293.984 158.152C294.668 157.827 295.433 157.664 296.279 157.664C297.126 157.664 297.887 157.827 298.564 158.152C299.248 158.471 299.785 158.917 300.176 159.49C300.566 160.057 300.765 160.698 300.771 161.414C300.765 161.922 300.661 162.397 300.459 162.84C300.264 163.283 299.99 163.657 299.639 163.963C299.287 164.262 298.883 164.467 298.428 164.578V164.656C298.955 164.741 299.437 164.952 299.873 165.291C300.316 165.63 300.664 166.059 300.918 166.58C301.178 167.094 301.312 167.651 301.318 168.25C301.312 169.012 301.094 169.692 300.664 170.291C300.234 170.89 299.639 171.359 298.877 171.697C298.115 172.029 297.249 172.195 296.279 172.195ZM296.279 170.652C296.943 170.652 297.523 170.548 298.018 170.34C298.512 170.132 298.893 169.839 299.16 169.461C299.427 169.083 299.561 168.647 299.561 168.152C299.561 167.638 299.417 167.176 299.131 166.766C298.851 166.349 298.46 166.023 297.959 165.789C297.464 165.555 296.904 165.438 296.279 165.438C295.654 165.438 295.091 165.555 294.59 165.789C294.089 166.023 293.698 166.349 293.418 166.766C293.138 167.176 293.005 167.638 293.018 168.152C293.005 168.647 293.128 169.083 293.389 169.461C293.656 169.839 294.036 170.132 294.531 170.34C295.026 170.548 295.609 170.652 296.279 170.652ZM296.279 163.953C296.807 163.953 297.282 163.852 297.705 163.65C298.128 163.449 298.457 163.165 298.691 162.801C298.932 162.436 299.053 162.02 299.053 161.551C299.053 161.089 298.936 160.678 298.701 160.32C298.473 159.962 298.148 159.686 297.725 159.49C297.308 159.288 296.826 159.188 296.279 159.188C295.726 159.188 295.238 159.288 294.814 159.49C294.398 159.686 294.076 159.962 293.848 160.32C293.62 160.678 293.506 161.089 293.506 161.551C293.506 162.02 293.623 162.436 293.857 162.801C294.098 163.165 294.427 163.449 294.844 163.65C295.267 163.852 295.745 163.953 296.279 163.953Z" fill="#8A88FF"/>
<path d="M62.7441 269.363H61.1816V266.922H57.3535V265.672H61.1816V256.238H62.7441V269.363ZM63.1738 273.211H50.8496V267.898H52.3926V271.922H63.1738V273.211ZM48.252 263.113C51.3118 263.113 53.9095 263.042 56.0449 262.898C56.3053 261.44 56.4421 259.988 56.4551 258.543H49.8145V257.293H57.9785V257.977C57.9785 258.725 57.9557 259.471 57.9102 260.213C57.8711 260.955 57.7702 261.808 57.6074 262.771C58.2259 262.719 58.89 262.645 59.5996 262.547L59.7168 263.66C58.278 263.901 56.6178 264.083 54.7363 264.207V268.211H53.2129V264.295C51.7415 264.354 50.1595 264.383 48.4668 264.383L48.252 263.113ZM71.5332 259.52C71.5332 260.268 71.709 260.984 72.0605 261.668C72.4186 262.345 72.9167 262.944 73.5547 263.465C74.1992 263.979 74.9447 264.376 75.791 264.656L75.0684 265.867C74.0788 265.542 73.2129 265.05 72.4707 264.393C71.735 263.735 71.1784 262.964 70.8008 262.078C70.4297 263.074 69.86 263.947 69.0918 264.695C68.3236 265.438 67.4186 265.997 66.377 266.375L65.5957 265.145C66.4551 264.852 67.2201 264.422 67.8906 263.855C68.5612 263.289 69.082 262.632 69.4531 261.883C69.8307 261.128 70.0228 260.34 70.0293 259.52V258.777H66.0645V257.508H75.4395V258.777H71.5332V259.52ZM79.2285 260.652H81.8457V261.941H79.2285V266.707H77.7051V256.219H79.2285V260.652ZM73.6621 267.176C74.847 267.176 75.8691 267.303 76.7285 267.557C77.5879 267.804 78.2454 268.165 78.7012 268.641C79.1569 269.116 79.3848 269.682 79.3848 270.34C79.3848 271.01 79.1569 271.587 78.7012 272.068C78.2454 272.55 77.5879 272.915 76.7285 273.162C75.8691 273.416 74.847 273.543 73.6621 273.543C72.4772 273.543 71.4518 273.416 70.5859 273.162C69.7201 272.915 69.056 272.55 68.5938 272.068C68.1315 271.587 67.9004 271.01 67.9004 270.34C67.9004 269.682 68.1315 269.116 68.5938 268.641C69.056 268.165 69.7201 267.804 70.5859 267.557C71.4518 267.303 72.4772 267.176 73.6621 267.176ZM73.6621 268.406C72.7962 268.406 72.0443 268.484 71.4062 268.641C70.7682 268.79 70.2799 269.012 69.9414 269.305C69.6029 269.598 69.4368 269.943 69.4434 270.34C69.4368 270.75 69.6029 271.105 69.9414 271.404C70.2799 271.697 70.765 271.922 71.3965 272.078C72.0345 272.234 72.7897 272.312 73.6621 272.312C74.541 272.312 75.2962 272.234 75.9277 272.078C76.5658 271.922 77.054 271.697 77.3926 271.404C77.7311 271.105 77.9004 270.75 77.9004 270.34C77.9004 269.936 77.7311 269.591 77.3926 269.305C77.054 269.012 76.5658 268.79 75.9277 268.641C75.2897 268.484 74.5345 268.406 73.6621 268.406ZM91.5527 268.465H100.244V266.16H101.768V273.348H90.0293V266.16H91.5527V268.465ZM100.244 272.098V269.676H91.5527V272.098H100.244ZM101.768 258.289C101.768 259.207 101.738 260.037 101.68 260.779C101.628 261.521 101.497 262.371 101.289 263.328H103.857V264.598H87.959V263.328H99.7852C99.987 262.378 100.114 261.531 100.166 260.789C100.218 260.047 100.244 259.214 100.244 258.289H89.9707V257.02H101.768V258.289ZM113.955 257.84C113.955 258.621 114.258 259.37 114.863 260.086C115.475 260.802 116.27 261.404 117.246 261.893C118.223 262.381 119.235 262.697 120.283 262.84L119.658 264.09C118.747 263.94 117.865 263.68 117.012 263.309C116.159 262.931 115.397 262.462 114.727 261.902C114.056 261.336 113.538 260.708 113.174 260.018C112.816 260.708 112.298 261.336 111.621 261.902C110.951 262.462 110.189 262.931 109.336 263.309C108.483 263.68 107.601 263.94 106.689 264.09L106.064 262.84C107.119 262.697 108.132 262.384 109.102 261.902C110.072 261.414 110.859 260.815 111.465 260.105C112.07 259.389 112.373 258.634 112.373 257.84V256.844H113.955V257.84ZM121.064 267.293H113.877V273.582H112.373V267.293H105.244V266.004H121.064V267.293ZM133.721 260.887C133.714 261.915 133.923 262.938 134.346 263.953C134.769 264.962 135.342 265.861 136.064 266.648C136.787 267.436 137.575 268.022 138.428 268.406L137.49 269.617C136.501 269.129 135.602 268.403 134.795 267.439C133.994 266.469 133.389 265.369 132.979 264.139C132.575 265.447 131.969 266.619 131.162 267.654C130.355 268.683 129.443 269.454 128.428 269.969L127.451 268.68C128.304 268.283 129.092 267.68 129.814 266.873C130.537 266.059 131.113 265.128 131.543 264.08C131.973 263.025 132.191 261.961 132.197 260.887V257.723H133.721V260.887ZM141.865 273.621H140.322V256.219H141.865V273.621ZM159.229 266.395H157.686V261.863H154.17V260.574H157.686V256.219H159.229V266.395ZM159.229 273.348H147.881V267.254H159.229V273.348ZM149.404 272.098H157.725V268.484H149.404V272.098ZM150.869 259.305C150.869 260.047 151.048 260.77 151.406 261.473C151.764 262.176 152.269 262.804 152.92 263.357C153.571 263.904 154.313 264.324 155.146 264.617L154.346 265.828C153.376 265.477 152.523 264.956 151.787 264.266C151.058 263.569 150.505 262.768 150.127 261.863C149.749 262.866 149.176 263.748 148.408 264.51C147.64 265.271 146.742 265.841 145.713 266.219L144.912 265.008C145.758 264.702 146.517 264.259 147.188 263.68C147.858 263.094 148.382 262.423 148.76 261.668C149.137 260.906 149.326 260.118 149.326 259.305V258.621H145.4V257.352H154.756V258.621H150.869V259.305ZM163.955 270.125C163.727 270.125 163.516 270.07 163.32 269.959C163.132 269.842 162.979 269.686 162.861 269.49C162.751 269.295 162.699 269.083 162.705 268.855C162.699 268.634 162.751 268.429 162.861 268.24C162.979 268.045 163.132 267.892 163.32 267.781C163.516 267.664 163.727 267.605 163.955 267.605C164.176 267.605 164.382 267.664 164.57 267.781C164.766 267.892 164.919 268.045 165.029 268.24C165.146 268.429 165.205 268.634 165.205 268.855C165.205 269.083 165.146 269.295 165.029 269.49C164.919 269.686 164.766 269.842 164.57 269.959C164.382 270.07 164.176 270.125 163.955 270.125ZM163.955 262.273C163.727 262.273 163.516 262.218 163.32 262.107C163.132 261.99 162.979 261.834 162.861 261.639C162.751 261.443 162.699 261.232 162.705 261.004C162.699 260.783 162.751 260.577 162.861 260.389C162.979 260.193 163.132 260.04 163.32 259.93C163.516 259.812 163.727 259.754 163.955 259.754C164.176 259.754 164.382 259.812 164.57 259.93C164.766 260.04 164.919 260.193 165.029 260.389C165.146 260.577 165.205 260.783 165.205 261.004C165.205 261.232 165.146 261.443 165.029 261.639C164.919 261.834 164.766 261.99 164.57 262.107C164.382 262.218 164.176 262.273 163.955 262.273ZM186.279 266.512H180.889V270.145H188.115V271.414H172.217V270.145H179.365V266.512H174.268V257.645H186.084V258.914H175.83V261.395H185.713V262.645H175.83V265.262H186.279V266.512ZM205.654 260.125H203.076V262.547H205.654V263.836H203.076V266.531H201.553V256.219H203.076V258.855H205.654V260.125ZM194.385 257.273C195.257 257.267 196.038 257.436 196.729 257.781C197.419 258.126 197.959 258.611 198.35 259.236C198.747 259.855 198.949 260.561 198.955 261.355C198.949 262.15 198.747 262.856 198.35 263.475C197.959 264.087 197.419 264.565 196.729 264.91C196.038 265.255 195.257 265.431 194.385 265.438C193.512 265.431 192.728 265.255 192.031 264.91C191.341 264.565 190.801 264.087 190.41 263.475C190.02 262.856 189.827 262.15 189.834 261.355C189.827 260.561 190.02 259.855 190.41 259.236C190.801 258.611 191.341 258.126 192.031 257.781C192.728 257.436 193.512 257.267 194.385 257.273ZM194.385 258.582C193.805 258.576 193.281 258.689 192.812 258.924C192.35 259.158 191.986 259.487 191.719 259.91C191.458 260.333 191.331 260.815 191.338 261.355C191.331 261.889 191.458 262.368 191.719 262.791C191.986 263.214 192.35 263.546 192.812 263.787C193.281 264.021 193.805 264.142 194.385 264.148C194.971 264.142 195.495 264.021 195.957 263.787C196.426 263.546 196.79 263.217 197.051 262.801C197.318 262.378 197.451 261.896 197.451 261.355C197.451 260.815 197.318 260.333 197.051 259.91C196.79 259.487 196.426 259.158 195.957 258.924C195.495 258.689 194.971 258.576 194.385 258.582ZM197.51 267.059C198.688 267.065 199.707 267.199 200.566 267.459C201.426 267.713 202.083 268.084 202.539 268.572C203.001 269.054 203.232 269.637 203.232 270.32C203.232 270.991 203.001 271.567 202.539 272.049C202.077 272.537 201.416 272.908 200.557 273.162C199.697 273.416 198.682 273.543 197.51 273.543C196.331 273.543 195.309 273.416 194.443 273.162C193.577 272.908 192.91 272.537 192.441 272.049C191.979 271.567 191.748 270.991 191.748 270.32C191.748 269.637 191.979 269.054 192.441 268.572C192.91 268.084 193.574 267.713 194.434 267.459C195.299 267.199 196.325 267.065 197.51 267.059ZM197.51 268.309C196.637 268.309 195.882 268.39 195.244 268.553C194.613 268.709 194.128 268.94 193.789 269.246C193.451 269.546 193.285 269.904 193.291 270.32C193.285 270.73 193.451 271.085 193.789 271.385C194.128 271.684 194.616 271.912 195.254 272.068C195.892 272.231 196.644 272.312 197.51 272.312C198.382 272.312 199.137 272.231 199.775 272.068C200.413 271.912 200.902 271.684 201.24 271.385C201.579 271.085 201.748 270.73 201.748 270.32C201.748 269.904 201.579 269.546 201.24 269.246C200.902 268.94 200.413 268.709 199.775 268.553C199.137 268.39 198.382 268.309 197.51 268.309ZM210.322 268.68H218.994V266.648H220.537V273.348H208.799V266.648H210.322V268.68ZM218.994 272.117V269.891H210.322V272.117H218.994ZM222.607 265.418H206.787V264.148H222.607V265.418ZM215.498 257.234C215.498 257.924 215.798 258.589 216.396 259.227C216.995 259.858 217.773 260.395 218.73 260.838C219.694 261.274 220.687 261.557 221.709 261.688L221.143 262.918C220.238 262.781 219.359 262.544 218.506 262.205C217.66 261.86 216.904 261.43 216.24 260.916C215.576 260.402 215.065 259.829 214.707 259.197C214.349 259.829 213.835 260.402 213.164 260.916C212.5 261.43 211.745 261.86 210.898 262.205C210.052 262.544 209.176 262.781 208.271 262.918L207.686 261.688C208.727 261.551 209.727 261.268 210.684 260.838C211.647 260.402 212.425 259.871 213.018 259.246C213.617 258.615 213.916 257.944 213.916 257.234V256.414H215.498V257.234ZM238.096 265.613H232.725V270.105H239.971V271.395H224.072V270.105H231.221V265.613H226.104V257.645H237.92V258.895H227.646V264.363H238.096V265.613ZM246.982 270.711L251.807 265.633C252.445 264.962 252.93 264.422 253.262 264.012C253.6 263.595 253.854 263.195 254.023 262.811C254.199 262.42 254.287 262.013 254.287 261.59C254.287 261.121 254.163 260.704 253.916 260.34C253.669 259.975 253.33 259.692 252.9 259.49C252.477 259.288 252.002 259.188 251.475 259.188C250.921 259.188 250.436 259.298 250.02 259.52C249.603 259.741 249.281 260.053 249.053 260.457C248.831 260.861 248.721 261.323 248.721 261.844H247.061C247.054 261.023 247.243 260.298 247.627 259.666C248.018 259.035 248.555 258.543 249.238 258.191C249.922 257.84 250.687 257.664 251.533 257.664C252.373 257.664 253.125 257.837 253.789 258.182C254.46 258.527 254.984 258.999 255.361 259.598C255.739 260.197 255.928 260.861 255.928 261.59C255.928 262.13 255.83 262.648 255.635 263.143C255.439 263.631 255.111 264.174 254.648 264.773C254.193 265.366 253.538 266.102 252.686 266.98L249.443 270.32V270.438H256.182V272H247.002L246.982 270.711ZM263.369 272.195C262.327 272.195 261.436 271.912 260.693 271.346C259.958 270.779 259.395 269.952 259.004 268.865C258.62 267.778 258.428 266.466 258.428 264.93C258.428 263.413 258.623 262.111 259.014 261.023C259.404 259.93 259.971 259.096 260.713 258.523C261.455 257.951 262.34 257.664 263.369 257.664C264.398 257.664 265.283 257.951 266.025 258.523C266.768 259.096 267.334 259.93 267.725 261.023C268.115 262.111 268.311 263.413 268.311 264.93C268.311 266.466 268.115 267.778 267.725 268.865C267.34 269.952 266.777 270.779 266.035 271.346C265.293 271.912 264.404 272.195 263.369 272.195ZM263.369 270.633C264.046 270.633 264.626 270.411 265.107 269.969C265.589 269.526 265.957 268.878 266.211 268.025C266.465 267.173 266.592 266.141 266.592 264.93C266.592 263.719 266.465 262.684 266.211 261.824C265.957 260.965 265.589 260.311 265.107 259.861C264.626 259.412 264.046 259.188 263.369 259.188C262.692 259.188 262.109 259.412 261.621 259.861C261.139 260.311 260.768 260.965 260.508 261.824C260.254 262.684 260.127 263.719 260.127 264.93C260.127 266.141 260.254 267.173 260.508 268.025C260.762 268.878 261.13 269.526 261.611 269.969C262.1 270.411 262.686 270.633 263.369 270.633ZM271.221 264.715C271.533 264.35 271.882 264.074 272.266 263.885C272.65 263.696 273.057 263.602 273.486 263.602C273.812 263.602 274.131 263.65 274.443 263.748C274.756 263.839 275.16 263.979 275.654 264.168C276.104 264.357 276.484 264.5 276.797 264.598C277.116 264.689 277.432 264.734 277.744 264.734C278.18 264.734 278.587 264.63 278.965 264.422C279.342 264.214 279.678 263.908 279.971 263.504V265.125C279.326 265.867 278.571 266.238 277.705 266.238C277.38 266.238 277.061 266.193 276.748 266.102C276.436 266.004 276.032 265.861 275.537 265.672C275.088 265.483 274.704 265.343 274.385 265.252C274.072 265.154 273.753 265.105 273.428 265.105C272.998 265.105 272.594 265.21 272.217 265.418C271.846 265.626 271.514 265.932 271.221 266.336V264.715ZM287.861 272.195C286.93 272.195 286.097 272.039 285.361 271.727C284.632 271.414 284.053 270.975 283.623 270.408C283.2 269.842 282.972 269.188 282.939 268.445H284.717C284.749 268.882 284.906 269.266 285.186 269.598C285.472 269.93 285.846 270.187 286.309 270.369C286.771 270.545 287.282 270.633 287.842 270.633C288.454 270.633 289.004 270.529 289.492 270.32C289.987 270.105 290.371 269.812 290.645 269.441C290.924 269.064 291.064 268.634 291.064 268.152C291.064 267.632 290.928 267.173 290.654 266.775C290.387 266.378 289.997 266.069 289.482 265.848C288.968 265.626 288.35 265.516 287.627 265.516H286.475V263.973H287.627C288.193 263.973 288.698 263.872 289.141 263.67C289.583 263.468 289.925 263.185 290.166 262.82C290.413 262.456 290.537 262.033 290.537 261.551C290.537 261.089 290.426 260.678 290.205 260.32C289.99 259.962 289.684 259.686 289.287 259.49C288.89 259.288 288.428 259.188 287.9 259.188C287.393 259.188 286.917 259.279 286.475 259.461C286.032 259.643 285.671 259.904 285.391 260.242C285.111 260.574 284.958 260.965 284.932 261.414H283.232C283.265 260.685 283.493 260.037 283.916 259.471C284.339 258.898 284.902 258.455 285.605 258.143C286.309 257.824 287.08 257.664 287.92 257.664C288.792 257.664 289.554 257.837 290.205 258.182C290.863 258.52 291.367 258.979 291.719 259.559C292.07 260.138 292.243 260.77 292.236 261.453C292.243 262.247 292.031 262.928 291.602 263.494C291.172 264.061 290.583 264.448 289.834 264.656V264.754C290.439 264.852 290.964 265.057 291.406 265.369C291.855 265.675 292.197 266.069 292.432 266.551C292.673 267.026 292.79 267.56 292.783 268.152C292.79 268.914 292.578 269.604 292.148 270.223C291.719 270.835 291.126 271.316 290.371 271.668C289.622 272.02 288.786 272.195 287.861 272.195ZM299.951 272.195C298.91 272.195 298.018 271.912 297.275 271.346C296.54 270.779 295.977 269.952 295.586 268.865C295.202 267.778 295.01 266.466 295.01 264.93C295.01 263.413 295.205 262.111 295.596 261.023C295.986 259.93 296.553 259.096 297.295 258.523C298.037 257.951 298.923 257.664 299.951 257.664C300.98 257.664 301.865 257.951 302.607 258.523C303.35 259.096 303.916 259.93 304.307 261.023C304.697 262.111 304.893 263.413 304.893 264.93C304.893 266.466 304.697 267.778 304.307 268.865C303.923 269.952 303.359 270.779 302.617 271.346C301.875 271.912 300.986 272.195 299.951 272.195ZM299.951 270.633C300.628 270.633 301.208 270.411 301.689 269.969C302.171 269.526 302.539 268.878 302.793 268.025C303.047 267.173 303.174 266.141 303.174 264.93C303.174 263.719 303.047 262.684 302.793 261.824C302.539 260.965 302.171 260.311 301.689 259.861C301.208 259.412 300.628 259.188 299.951 259.188C299.274 259.188 298.691 259.412 298.203 259.861C297.721 260.311 297.35 260.965 297.09 261.824C296.836 262.684 296.709 263.719 296.709 264.93C296.709 266.141 296.836 267.173 297.09 268.025C297.344 268.878 297.712 269.526 298.193 269.969C298.682 270.411 299.268 270.633 299.951 270.633ZM310.225 264.422C309.626 264.422 309.111 264.282 308.682 264.002C308.258 263.722 307.936 263.328 307.715 262.82C307.5 262.306 307.393 261.707 307.393 261.023C307.393 260.359 307.503 259.773 307.725 259.266C307.952 258.751 308.278 258.354 308.701 258.074C309.131 257.788 309.639 257.645 310.225 257.645C310.83 257.645 311.344 257.788 311.768 258.074C312.191 258.354 312.51 258.748 312.725 259.256C312.946 259.764 313.057 260.353 313.057 261.023C313.057 261.701 312.946 262.296 312.725 262.811C312.503 263.318 312.178 263.715 311.748 264.002C311.325 264.282 310.817 264.422 310.225 264.422ZM310.225 263.211C310.693 263.211 311.045 263.019 311.279 262.635C311.514 262.244 311.631 261.707 311.631 261.023C311.631 260.34 311.517 259.806 311.289 259.422C311.061 259.038 310.706 258.849 310.225 258.855C309.769 258.855 309.421 259.051 309.18 259.441C308.939 259.826 308.818 260.353 308.818 261.023C308.818 261.701 308.939 262.234 309.18 262.625C309.421 263.016 309.769 263.211 310.225 263.211ZM318.857 272.195C318.258 272.202 317.744 272.065 317.314 271.785C316.885 271.505 316.559 271.111 316.338 270.604C316.123 270.089 316.019 269.493 316.025 268.816C316.019 268.146 316.126 267.553 316.348 267.039C316.576 266.525 316.904 266.128 317.334 265.848C317.764 265.561 318.271 265.418 318.857 265.418C319.456 265.418 319.967 265.561 320.391 265.848C320.814 266.128 321.133 266.525 321.348 267.039C321.562 267.547 321.67 268.139 321.67 268.816C321.67 269.487 321.559 270.079 321.338 270.594C321.117 271.108 320.794 271.505 320.371 271.785C319.948 272.065 319.443 272.202 318.857 272.195ZM318.857 270.984C319.313 270.984 319.658 270.792 319.893 270.408C320.127 270.024 320.244 269.493 320.244 268.816C320.244 268.133 320.133 267.599 319.912 267.215C319.691 266.824 319.352 266.629 318.896 266.629C318.428 266.629 318.066 266.824 317.812 267.215C317.559 267.599 317.432 268.133 317.432 268.816C317.432 269.487 317.552 270.018 317.793 270.408C318.034 270.792 318.389 270.984 318.857 270.984ZM318.506 257.859H320.088L310.361 272H308.779L318.506 257.859ZM343.193 273.621H341.65V256.219H343.193V273.621ZM333.955 257.566C334.814 257.573 335.579 257.827 336.25 258.328C336.921 258.823 337.445 259.526 337.822 260.438C338.2 261.349 338.389 262.41 338.389 263.621C338.389 264.832 338.2 265.893 337.822 266.805C337.445 267.716 336.921 268.419 336.25 268.914C335.579 269.409 334.814 269.656 333.955 269.656C333.096 269.656 332.327 269.409 331.65 268.914C330.98 268.419 330.456 267.716 330.078 266.805C329.707 265.893 329.521 264.832 329.521 263.621C329.521 262.41 329.707 261.349 330.078 260.438C330.456 259.526 330.98 258.823 331.65 258.328C332.321 257.827 333.089 257.573 333.955 257.566ZM333.955 258.934C333.376 258.94 332.861 259.139 332.412 259.529C331.969 259.913 331.624 260.46 331.377 261.17C331.13 261.873 331.006 262.69 331.006 263.621C331.006 264.552 331.13 265.372 331.377 266.082C331.624 266.785 331.973 267.329 332.422 267.713C332.871 268.097 333.382 268.289 333.955 268.289C334.528 268.289 335.039 268.097 335.488 267.713C335.938 267.329 336.286 266.785 336.533 266.082C336.781 265.372 336.904 264.552 336.904 263.621C336.904 262.69 336.781 261.873 336.533 261.17C336.286 260.46 335.938 259.913 335.488 259.529C335.046 259.139 334.535 258.94 333.955 258.934ZM359.6 263.387H362.51V264.656H359.6V273.582H358.076V256.219H359.6V263.387ZM356.396 260.281H346.064V259.012H350.537V256.434H352.061V259.012H356.396V260.281ZM351.318 261.727C352.132 261.727 352.861 261.896 353.506 262.234C354.15 262.573 354.655 263.045 355.02 263.65C355.384 264.256 355.57 264.943 355.576 265.711C355.57 266.479 355.384 267.166 355.02 267.771C354.655 268.377 354.15 268.849 353.506 269.188C352.861 269.526 352.132 269.695 351.318 269.695C350.498 269.695 349.762 269.526 349.111 269.188C348.467 268.849 347.962 268.377 347.598 267.771C347.233 267.166 347.054 266.479 347.061 265.711C347.054 264.943 347.233 264.256 347.598 263.65C347.962 263.045 348.467 262.573 349.111 262.234C349.762 261.896 350.498 261.727 351.318 261.727ZM351.318 263.016C350.785 263.016 350.303 263.133 349.873 263.367C349.45 263.595 349.118 263.914 348.877 264.324C348.636 264.734 348.519 265.197 348.525 265.711C348.519 266.232 348.636 266.697 348.877 267.107C349.118 267.511 349.45 267.827 349.873 268.055C350.303 268.283 350.785 268.393 351.318 268.387C351.846 268.393 352.321 268.283 352.744 268.055C353.167 267.827 353.499 267.511 353.74 267.107C353.981 266.697 354.105 266.232 354.111 265.711C354.105 265.197 353.981 264.734 353.74 264.324C353.499 263.914 353.167 263.595 352.744 263.367C352.321 263.133 351.846 263.016 351.318 263.016ZM368.369 256.863C369.229 256.87 369.997 257.036 370.674 257.361C371.357 257.687 371.891 258.143 372.275 258.729C372.666 259.308 372.861 259.969 372.861 260.711C372.861 261.453 372.666 262.117 372.275 262.703C371.891 263.283 371.357 263.735 370.674 264.061C369.997 264.38 369.229 264.539 368.369 264.539C367.497 264.539 366.719 264.38 366.035 264.061C365.352 263.735 364.818 263.283 364.434 262.703C364.049 262.117 363.857 261.453 363.857 260.711C363.857 259.969 364.049 259.308 364.434 258.729C364.818 258.143 365.352 257.687 366.035 257.361C366.719 257.036 367.497 256.87 368.369 256.863ZM368.369 258.152C367.796 258.152 367.279 258.263 366.816 258.484C366.361 258.699 366.003 259.002 365.742 259.393C365.482 259.777 365.355 260.216 365.361 260.711C365.355 261.212 365.482 261.658 365.742 262.049C366.003 262.439 366.361 262.745 366.816 262.967C367.279 263.182 367.796 263.289 368.369 263.289C368.936 263.289 369.447 263.182 369.902 262.967C370.365 262.745 370.726 262.439 370.986 262.049C371.247 261.658 371.377 261.212 371.377 260.711C371.377 260.216 371.247 259.777 370.986 259.393C370.726 259.002 370.365 258.699 369.902 258.484C369.447 258.263 368.936 258.152 368.369 258.152ZM377.783 265.145H376.26V256.219H377.783V265.145ZM377.783 270.164H368.037V272.117H378.408V273.348H366.533V269.012H376.26V267.215H366.494V265.984H377.783V270.164ZM397.256 263.328H399.365V256.219H400.83V273.582H399.365V264.598H397.256V272.723H395.83V256.609H397.256V263.328ZM390.049 259.695H387.705V267.752C388.584 267.713 389.404 267.599 390.166 267.41L390.303 268.719C389.665 268.862 389.089 268.953 388.574 268.992C388.06 269.031 387.523 269.051 386.963 269.051H386.279V258.426H390.049V259.695ZM394.658 259.695H392.197V267.752C393.245 267.726 394.189 267.592 395.029 267.352L395.166 268.66C394.528 268.829 393.936 268.937 393.389 268.982C392.848 269.028 392.223 269.051 391.514 269.051H390.811V258.426H394.658V259.695Z" fill="#8A88FF"/>
<path d="M60.0352 216.242H52.4883V207.055H59.7773V208.555H54.3398V214.742H60.0352V216.242ZM61.5586 223.227H42.4805V221.703H51.0352V217.297H52.8398V221.703H61.5586V223.227ZM51.2227 208.578H45.9727V214.719C46.918 214.711 47.8281 214.664 48.7031 214.578C49.5859 214.484 50.4883 214.336 51.4102 214.133L51.5742 215.68C50.6289 215.898 49.7109 216.047 48.8203 216.125C47.9375 216.203 46.9805 216.242 45.9492 216.242H45.293H44.1445V207.055H51.2227V208.578ZM79.5117 211.953H82.6523V213.5H79.5117V220.695H77.6836V205.086H79.5117V211.953ZM75.6914 209.141H63.2695V207.641H68.5664V205.086H70.3945V207.641H75.6914V209.141ZM69.4805 210.289C70.4648 210.289 71.332 210.449 72.082 210.77C72.8398 211.09 73.4297 211.543 73.8516 212.129C74.2734 212.715 74.4883 213.398 74.4961 214.18C74.4883 214.953 74.2734 215.629 73.8516 216.207C73.4297 216.785 72.8398 217.234 72.082 217.555C71.332 217.867 70.4648 218.023 69.4805 218.023C68.4883 218.023 67.6094 217.867 66.8438 217.555C66.0859 217.234 65.4961 216.785 65.0742 216.207C64.6602 215.629 64.457 214.953 64.4648 214.18C64.457 213.398 64.6602 212.715 65.0742 212.129C65.4961 211.543 66.0859 211.09 66.8438 210.77C67.6094 210.449 68.4883 210.289 69.4805 210.289ZM69.4805 211.742C68.832 211.742 68.2578 211.844 67.7578 212.047C67.2656 212.242 66.8828 212.527 66.6094 212.902C66.3438 213.27 66.2148 213.695 66.2227 214.18C66.2148 214.664 66.3438 215.09 66.6094 215.457C66.8828 215.816 67.2656 216.094 67.7578 216.289C68.2578 216.484 68.832 216.578 69.4805 216.57C70.1211 216.578 70.6875 216.484 71.1797 216.289C71.6797 216.094 72.0664 215.816 72.3398 215.457C72.6133 215.09 72.7539 214.664 72.7617 214.18C72.7539 213.695 72.6133 213.27 72.3398 212.902C72.0664 212.527 71.6797 212.242 71.1797 212.047C70.6875 211.844 70.1211 211.742 69.4805 211.742ZM80.4727 225.453H66.4805V219.453H68.2852V223.906H80.4727V225.453ZM85.5586 228.805H83.8242L85.1133 222.43H87.3867L85.5586 228.805ZM108.223 208.391H103.98C103.988 209.258 104.168 210.098 104.52 210.91C104.879 211.723 105.422 212.453 106.148 213.102C106.883 213.742 107.793 214.242 108.879 214.602L107.402 216.898C106.254 216.531 105.266 215.984 104.438 215.258C103.617 214.531 102.969 213.672 102.492 212.68C102 213.789 101.32 214.746 100.453 215.551C99.5859 216.355 98.543 216.953 97.3242 217.344L95.8008 214.977C96.9258 214.617 97.8711 214.094 98.6367 213.406C99.4023 212.719 99.9727 211.941 100.348 211.074C100.723 210.207 100.918 209.312 100.934 208.391H96.6445V206.023H108.223V208.391ZM113.895 226.156H110.918V220.859H99.2461V218.469H113.895V226.156ZM113.895 217.531H110.918V212.398H107.613V209.961H110.918V204.828H113.895V217.531ZM133.629 209.891H136.465V212.328H133.629V217.18H130.582V204.828H133.629V209.891ZM126.598 217.555C128.051 217.555 129.32 217.727 130.406 218.07C131.492 218.406 132.328 218.895 132.914 219.535C133.5 220.176 133.793 220.938 133.793 221.82C133.793 222.727 133.5 223.504 132.914 224.152C132.328 224.801 131.492 225.297 130.406 225.641C129.328 225.984 128.059 226.156 126.598 226.156C125.105 226.156 123.809 225.984 122.707 225.641C121.613 225.297 120.77 224.801 120.176 224.152C119.582 223.504 119.285 222.727 119.285 221.82C119.285 220.938 119.582 220.176 120.176 219.535C120.77 218.895 121.617 218.406 122.719 218.07C123.82 217.727 125.113 217.555 126.598 217.555ZM126.598 219.922C125.184 219.922 124.102 220.086 123.352 220.414C122.602 220.734 122.23 221.203 122.238 221.82C122.23 222.461 122.602 222.949 123.352 223.285C124.102 223.621 125.184 223.789 126.598 223.789C127.957 223.789 129.012 223.621 129.762 223.285C130.512 222.949 130.887 222.461 130.887 221.82C130.887 221.203 130.512 220.734 129.762 220.414C129.012 220.086 127.957 219.922 126.598 219.922ZM126.996 208.648H120.387V213.617C122.465 213.602 124.113 213.551 125.332 213.465C126.559 213.379 127.746 213.211 128.895 212.961L129.152 215.352C127.926 215.625 126.621 215.805 125.238 215.891C123.863 215.969 121.848 216.016 119.191 216.031H117.41V206.258H126.996V208.648ZM154.324 211.391H157.207V213.828H154.324V220.766H151.324V204.852H154.324V211.391ZM150.059 209.445H137.402V207.078H142.254V204.805H145.23V207.078H150.059V209.445ZM143.73 210.195C144.754 210.195 145.66 210.367 146.449 210.711C147.246 211.055 147.867 211.539 148.312 212.164C148.758 212.789 148.98 213.508 148.98 214.32C148.98 215.133 148.758 215.848 148.312 216.465C147.875 217.074 147.258 217.551 146.461 217.895C145.664 218.23 144.754 218.398 143.73 218.398C142.699 218.398 141.781 218.23 140.977 217.895C140.18 217.551 139.555 217.074 139.102 216.465C138.656 215.848 138.434 215.133 138.434 214.32C138.434 213.508 138.656 212.789 139.102 212.164C139.555 211.539 140.18 211.055 140.977 210.711C141.781 210.367 142.699 210.195 143.73 210.195ZM143.73 212.469C143.004 212.484 142.426 212.652 141.996 212.973C141.566 213.293 141.355 213.742 141.363 214.32C141.355 214.898 141.562 215.344 141.984 215.656C142.414 215.969 142.996 216.125 143.73 216.125C144.465 216.125 145.051 215.969 145.488 215.656C145.926 215.336 146.145 214.891 146.145 214.32C146.145 213.742 145.926 213.293 145.488 212.973C145.051 212.652 144.465 212.484 143.73 212.469ZM155.098 225.781H140.496V219.547H143.473V223.391H155.098V225.781ZM174.996 206.492C174.996 207.352 175.285 208.199 175.863 209.035C176.441 209.863 177.293 210.582 178.418 211.191C179.543 211.801 180.887 212.203 182.449 212.398L181.277 214.812C179.449 214.547 177.859 214.016 176.508 213.219C175.164 212.414 174.133 211.422 173.414 210.242C172.703 211.422 171.68 212.414 170.344 213.219C169.008 214.016 167.434 214.547 165.621 214.812L164.426 212.398C165.973 212.203 167.309 211.801 168.434 211.191C169.559 210.582 170.41 209.863 170.988 209.035C171.566 208.199 171.855 207.352 171.855 206.492V205.461H174.996V206.492ZM183.129 218.867H174.832V226.156H171.879V218.867H163.676V216.43H183.129V218.867ZM203.918 218.117H195.879V221.562H192.926V218.117H184.395V215.773H203.918V218.117ZM201.762 225.781H186.691V219.875H189.645V223.391H201.762V225.781ZM189.855 207.734H198.41V205.508H201.387V214.273H186.902V205.508H189.855V207.734ZM198.41 211.906V209.961H189.855V211.906H198.41ZM223.02 226.203H219.996V204.828H223.02V226.203ZM211.441 206.328C212.512 206.328 213.469 206.641 214.312 207.266C215.164 207.891 215.832 208.777 216.316 209.926C216.801 211.074 217.043 212.406 217.043 213.922C217.043 215.453 216.801 216.797 216.316 217.953C215.832 219.102 215.164 219.988 214.312 220.613C213.469 221.23 212.512 221.539 211.441 221.539C210.348 221.539 209.371 221.23 208.512 220.613C207.652 219.988 206.98 219.102 206.496 217.953C206.02 216.797 205.785 215.453 205.793 213.922C205.785 212.406 206.02 211.074 206.496 209.926C206.98 208.777 207.652 207.891 208.512 207.266C209.371 206.641 210.348 206.328 211.441 206.328ZM211.441 209.023C210.887 209.023 210.398 209.215 209.977 209.598C209.562 209.973 209.242 210.527 209.016 211.262C208.789 211.996 208.676 212.883 208.676 213.922C208.676 214.969 208.789 215.859 209.016 216.594C209.242 217.328 209.562 217.883 209.977 218.258C210.398 218.633 210.887 218.82 211.441 218.82C211.988 218.82 212.465 218.633 212.871 218.258C213.277 217.875 213.594 217.316 213.82 216.582C214.047 215.848 214.16 214.961 214.16 213.922C214.16 212.891 214.047 212.008 213.82 211.273C213.594 210.531 213.273 209.973 212.859 209.598C212.453 209.215 211.98 209.023 211.441 209.023ZM249.34 215.773H246.34V204.828H249.34V215.773ZM249.34 222.312H237.832V223.648H249.926V226.016H234.879V220.18H246.387V218.938H234.832V216.617H249.34V222.312ZM243.949 208.414H242.191V212.668C243.098 212.598 243.957 212.516 244.77 212.422L244.91 214.555C241.598 215.086 237.332 215.352 232.113 215.352L231.785 213.008L234.082 212.984V208.414H232.348V206.141H243.949V208.414ZM239.309 212.844V208.414H236.941V212.926L239.309 212.844ZM271.699 223.672H252.176V221.211H256.535V215.996C255.691 215.488 255.039 214.863 254.578 214.121C254.117 213.371 253.887 212.531 253.887 211.602C253.887 210.469 254.23 209.469 254.918 208.602C255.605 207.734 256.555 207.062 257.766 206.586C258.984 206.102 260.363 205.859 261.902 205.859C263.434 205.859 264.805 206.102 266.016 206.586C267.234 207.062 268.191 207.734 268.887 208.602C269.582 209.469 269.934 210.469 269.941 211.602C269.934 212.508 269.703 213.332 269.25 214.074C268.805 214.809 268.176 215.43 267.363 215.938V221.211H271.699V223.672ZM261.902 208.227C260.887 208.227 259.996 208.359 259.23 208.625C258.473 208.891 257.883 209.277 257.461 209.785C257.047 210.285 256.84 210.891 256.84 211.602C256.84 212.289 257.047 212.887 257.461 213.395C257.883 213.902 258.477 214.293 259.242 214.566C260.008 214.84 260.895 214.977 261.902 214.977C262.902 214.977 263.785 214.84 264.551 214.566C265.316 214.293 265.91 213.902 266.332 213.395C266.762 212.887 266.98 212.289 266.988 211.602C266.98 210.898 266.766 210.293 266.344 209.785C265.922 209.277 265.328 208.891 264.562 208.625C263.797 208.359 262.91 208.227 261.902 208.227ZM264.34 221.211V217.074C263.535 217.223 262.723 217.297 261.902 217.297C261.027 217.297 260.223 217.223 259.488 217.074V221.211H264.34ZM289.84 211.391H292.723V213.828H289.84V220.766H286.84V204.852H289.84V211.391ZM285.574 209.445H272.918V207.078H277.77V204.805H280.746V207.078H285.574V209.445ZM279.246 210.195C280.27 210.195 281.176 210.367 281.965 210.711C282.762 211.055 283.383 211.539 283.828 212.164C284.273 212.789 284.496 213.508 284.496 214.32C284.496 215.133 284.273 215.848 283.828 216.465C283.391 217.074 282.773 217.551 281.977 217.895C281.18 218.23 280.27 218.398 279.246 218.398C278.215 218.398 277.297 218.23 276.492 217.895C275.695 217.551 275.07 217.074 274.617 216.465C274.172 215.848 273.949 215.133 273.949 214.32C273.949 213.508 274.172 212.789 274.617 212.164C275.07 211.539 275.695 211.055 276.492 210.711C277.297 210.367 278.215 210.195 279.246 210.195ZM279.246 212.469C278.52 212.484 277.941 212.652 277.512 212.973C277.082 213.293 276.871 213.742 276.879 214.32C276.871 214.898 277.078 215.344 277.5 215.656C277.93 215.969 278.512 216.125 279.246 216.125C279.98 216.125 280.566 215.969 281.004 215.656C281.441 215.336 281.66 214.891 281.66 214.32C281.66 213.742 281.441 213.293 281.004 212.973C280.566 212.652 279.98 212.484 279.246 212.469ZM290.613 225.781H276.012V219.547H278.988V223.391H290.613V225.781ZM306.785 208.086C306.777 209.086 306.996 210.039 307.441 210.945C307.887 211.852 308.508 212.648 309.305 213.336C310.109 214.023 311.027 214.547 312.059 214.906L311.121 216.359C309.91 215.922 308.848 215.27 307.934 214.402C307.02 213.535 306.328 212.523 305.859 211.367C305.406 212.602 304.715 213.688 303.785 214.625C302.863 215.555 301.793 216.258 300.574 216.734L299.613 215.281C300.645 214.898 301.559 214.344 302.355 213.617C303.16 212.883 303.785 212.035 304.23 211.074C304.684 210.113 304.91 209.117 304.91 208.086V206.094H306.785V208.086ZM316.605 225.898H314.777V220.18H302.59V218.656H316.605V225.898ZM316.605 217.625H314.777V205.062H316.605V217.625ZM339.129 215.375H330.527V217.438H336.691V222.102H324.316V224.211H337.324V225.664H322.488V220.719H334.887V218.867H322.441V217.438H328.699V215.375H320.145V213.875H339.129V215.375ZM336.668 212.117H322.605V205.766H336.668V212.117ZM324.434 210.641H334.84V207.242H324.434V210.641ZM358.066 225.945H356.215V205.062H358.066V225.945ZM346.98 206.68C348.012 206.688 348.93 206.992 349.734 207.594C350.539 208.188 351.168 209.031 351.621 210.125C352.074 211.219 352.301 212.492 352.301 213.945C352.301 215.398 352.074 216.672 351.621 217.766C351.168 218.859 350.539 219.703 349.734 220.297C348.93 220.891 348.012 221.188 346.98 221.188C345.949 221.188 345.027 220.891 344.215 220.297C343.41 219.703 342.781 218.859 342.328 217.766C341.883 216.672 341.66 215.398 341.66 213.945C341.66 212.492 341.883 211.219 342.328 210.125C342.781 209.031 343.41 208.188 344.215 207.594C345.02 206.992 345.941 206.688 346.98 206.68ZM346.98 208.32C346.285 208.328 345.668 208.566 345.129 209.035C344.598 209.496 344.184 210.152 343.887 211.004C343.59 211.848 343.441 212.828 343.441 213.945C343.441 215.062 343.59 216.047 343.887 216.898C344.184 217.742 344.602 218.395 345.141 218.855C345.68 219.316 346.293 219.547 346.98 219.547C347.668 219.547 348.281 219.316 348.82 218.855C349.359 218.395 349.777 217.742 350.074 216.898C350.371 216.047 350.52 215.062 350.52 213.945C350.52 212.828 350.371 211.848 350.074 211.004C349.777 210.152 349.359 209.496 348.82 209.035C348.289 208.566 347.676 208.328 346.98 208.32ZM379.488 225.898H377.707V205.062H379.488V225.898ZM375.293 224.844H373.535V214.719H370.852C370.789 216.062 370.566 217.23 370.184 218.223C369.801 219.207 369.281 219.969 368.625 220.508C367.969 221.039 367.215 221.305 366.363 221.305C365.465 221.305 364.676 221.012 363.996 220.426C363.324 219.832 362.805 218.988 362.438 217.895C362.07 216.801 361.887 215.523 361.887 214.062C361.887 212.602 362.07 211.324 362.438 210.23C362.805 209.137 363.324 208.297 363.996 207.711C364.676 207.117 365.465 206.82 366.363 206.82C367.199 206.82 367.941 207.078 368.59 207.594C369.238 208.109 369.754 208.848 370.137 209.809C370.527 210.77 370.762 211.898 370.84 213.195H373.535V205.508H375.293V224.844ZM366.363 208.555C365.801 208.555 365.312 208.777 364.898 209.223C364.484 209.668 364.164 210.309 363.938 211.145C363.719 211.973 363.613 212.945 363.621 214.062C363.613 215.18 363.719 216.152 363.938 216.98C364.164 217.809 364.484 218.445 364.898 218.891C365.32 219.336 365.809 219.555 366.363 219.547C366.918 219.555 367.402 219.336 367.816 218.891C368.238 218.445 368.562 217.809 368.789 216.98C369.016 216.152 369.129 215.18 369.129 214.062C369.129 212.938 369.016 211.961 368.789 211.133C368.562 210.305 368.242 209.668 367.828 209.223C367.414 208.777 366.926 208.555 366.363 208.555ZM401.449 223.227H382.371V221.68H387.105V216.055C386.199 215.586 385.496 214.984 384.996 214.25C384.496 213.508 384.246 212.672 384.246 211.742C384.246 210.68 384.57 209.746 385.219 208.941C385.867 208.129 386.766 207.5 387.914 207.055C389.07 206.609 390.387 206.383 391.863 206.375C393.34 206.383 394.652 206.609 395.801 207.055C396.957 207.5 397.859 208.129 398.508 208.941C399.156 209.746 399.48 210.68 399.48 211.742C399.48 212.656 399.238 213.48 398.754 214.215C398.27 214.941 397.59 215.539 396.715 216.008V221.68H401.449V223.227ZM391.863 207.898C390.73 207.891 389.723 208.047 388.84 208.367C387.957 208.688 387.266 209.141 386.766 209.727C386.273 210.305 386.027 210.977 386.027 211.742C386.027 212.508 386.273 213.188 386.766 213.781C387.266 214.367 387.957 214.824 388.84 215.152C389.723 215.473 390.73 215.633 391.863 215.633C392.988 215.633 393.992 215.469 394.875 215.141C395.758 214.812 396.449 214.355 396.949 213.77C397.449 213.184 397.699 212.508 397.699 211.742C397.699 210.977 397.449 210.305 396.949 209.727C396.449 209.141 395.758 208.688 394.875 208.367C393.992 208.047 392.988 207.891 391.863 207.898ZM394.863 221.68V216.723C393.934 216.965 392.934 217.086 391.863 217.086C390.785 217.086 389.801 216.969 388.91 216.734V221.68H394.863ZM405.316 224.141C405.043 224.141 404.789 224.074 404.555 223.941C404.328 223.801 404.145 223.613 404.004 223.379C403.871 223.145 403.809 222.891 403.816 222.617C403.809 222.352 403.871 222.105 404.004 221.879C404.145 221.645 404.328 221.461 404.555 221.328C404.789 221.188 405.043 221.117 405.316 221.117C405.582 221.117 405.828 221.188 406.055 221.328C406.289 221.461 406.473 221.645 406.605 221.879C406.746 222.105 406.816 222.352 406.816 222.617C406.816 222.891 406.746 223.145 406.605 223.379C406.473 223.613 406.289 223.801 406.055 223.941C405.828 224.074 405.582 224.141 405.316 224.141Z" fill="black"/>
<g clip-path="url(#clip0_212_409)">
<mask id="mask0_212_409" style="mask-type:luminance" maskUnits="userSpaceOnUse" x="37" y="31" width="20" height="20">
<path d="M57 31H37V51H57V31Z" fill="white"/>
</mask>
<g mask="url(#mask0_212_409)">
<path d="M37 31H47C52.5228 31 57 35.4771 57 41V51H47C41.4771 51 37 46.5228 37 41V31Z" fill="url(#paint0_linear_212_409)"/>
</g>
</g>
<path d="M75.4766 34.3672C75.4766 35.2526 75.7272 36.1185 76.2285 36.9648C76.7363 37.8112 77.4688 38.5469 78.4258 39.1719C79.3893 39.7969 80.5156 40.2201 81.8047 40.4414L80.7109 42.5117C79.1875 42.2122 77.8594 41.6556 76.7266 40.8418C75.6003 40.028 74.7441 39.0384 74.1582 37.873C73.5592 39.0319 72.6934 40.0182 71.5605 40.832C70.4342 41.6458 69.1159 42.2057 67.6055 42.5117L66.5312 40.4414C67.8008 40.2135 68.9108 39.7871 69.8613 39.1621C70.8118 38.5371 71.541 37.8014 72.0488 36.9551C72.5566 36.1022 72.8138 35.2396 72.8203 34.3672V33.0781H75.4766V34.3672ZM82.3906 47.6094H66.1211V45.5586H82.3906V47.6094ZM92.9766 33.3125C92.9701 35.0247 92.6901 36.5319 92.1367 37.834C91.5898 39.1296 90.7044 40.2591 89.4805 41.2227C88.2565 42.1862 86.6419 42.9805 84.6367 43.6055L83.6992 41.6523C84.9753 41.2617 86.0462 40.8158 86.9121 40.3145C87.7845 39.8066 88.4811 39.2337 89.002 38.5957L84.0508 38.9766L83.6992 37.043L90.0078 36.8281C90.1706 36.3529 90.2812 35.8451 90.3398 35.3047H84.5977V33.3125H92.9766ZM98.2891 44.9531H95.7891V32.043H98.2891V44.9531ZM98.7578 49.5234H86.375V43.8984H88.8945V47.5312H98.7578V49.5234ZM114.793 35.8711H117.195V37.9219H114.793V41.5352H112.293V32.0234H114.793V35.8711ZM109.305 35.0898H103.875V39.1133C105.568 39.1003 106.912 39.0579 107.908 38.9863C108.911 38.9082 109.891 38.7617 110.848 38.5469L111.102 40.5586C110.027 40.7865 108.904 40.9395 107.732 41.0176C106.561 41.0892 104.943 41.125 102.879 41.125H101.375V33.0977H109.305V35.0898ZM105.613 44.0352H112.293V42.3945H114.793V49.582H103.113V42.3945H105.613V44.0352ZM112.293 47.5898V45.9883H105.613V47.5898H112.293ZM124.695 36.0469C124.695 37.1927 124.852 38.2865 125.164 39.3281C125.483 40.3633 125.965 41.2845 126.609 42.0918C127.254 42.8926 128.055 43.5013 129.012 43.918L127.488 45.9102C126.531 45.4414 125.714 44.7871 125.037 43.9473C124.367 43.1009 123.839 42.1146 123.455 40.9883C123.058 42.1927 122.508 43.2441 121.805 44.1426C121.108 45.041 120.268 45.7344 119.285 46.2227L117.723 44.1914C118.699 43.7552 119.52 43.1139 120.184 42.2676C120.848 41.4212 121.342 40.4609 121.668 39.3867C122 38.3125 122.169 37.1992 122.176 36.0469V33.3906H124.695V36.0469ZM132.977 49.8359H130.516V39.6211H127.02V37.6094H130.516V32.0234H132.977V49.8359ZM144.617 34.3672C144.617 35.2526 144.868 36.1185 145.369 36.9648C145.877 37.8112 146.609 38.5469 147.566 39.1719C148.53 39.7969 149.656 40.2201 150.945 40.4414L149.852 42.5117C148.328 42.2122 147 41.6556 145.867 40.8418C144.741 40.028 143.885 39.0384 143.299 37.873C142.7 39.0319 141.834 40.0182 140.701 40.832C139.575 41.6458 138.257 42.2057 136.746 42.5117L135.672 40.4414C136.941 40.2135 138.051 39.7871 139.002 39.1621C139.952 38.5371 140.682 37.8014 141.189 36.9551C141.697 36.1022 141.954 35.2396 141.961 34.3672V33.0781H144.617V34.3672ZM151.531 47.6094H135.262V45.5586H151.531V47.6094ZM167.84 38.2734C167.527 37.3424 167.026 36.6165 166.336 36.0957C165.652 35.5684 164.819 35.3047 163.836 35.3047C162.99 35.3047 162.225 35.5228 161.541 35.959C160.864 36.3952 160.327 37.0365 159.93 37.8828C159.539 38.7292 159.344 39.7448 159.344 40.9297C159.344 42.1146 159.542 43.1302 159.939 43.9766C160.337 44.8229 160.883 45.4642 161.58 45.9004C162.277 46.3366 163.068 46.5547 163.953 46.5547C164.747 46.5547 165.447 46.3887 166.053 46.0566C166.665 45.7181 167.14 45.2396 167.479 44.6211C167.824 43.9961 168.003 43.2734 168.016 42.4531H164.324V40.9102H169.734V42.4336C169.734 43.5859 169.487 44.5983 168.992 45.4707C168.497 46.3431 167.811 47.0169 166.932 47.4922C166.059 47.9609 165.066 48.1953 163.953 48.1953C162.703 48.1953 161.6 47.9023 160.643 47.3164C159.692 46.724 158.953 45.8809 158.426 44.7871C157.905 43.6868 157.645 42.401 157.645 40.9297C157.645 39.4648 157.905 38.1855 158.426 37.0918C158.953 35.9915 159.686 35.1452 160.623 34.5527C161.561 33.9603 162.632 33.6641 163.836 33.6641C164.819 33.6641 165.721 33.8594 166.541 34.25C167.361 34.6341 168.042 35.1745 168.582 35.8711C169.122 36.5677 169.48 37.3685 169.656 38.2734H167.84ZM176.492 48.2148C175.535 48.2148 174.689 47.9902 173.953 47.541C173.224 47.0853 172.658 46.444 172.254 45.6172C171.85 44.7904 171.648 43.8333 171.648 42.7461C171.648 41.6589 171.85 40.7018 172.254 39.875C172.658 39.0417 173.224 38.3971 173.953 37.9414C174.689 37.4857 175.535 37.2578 176.492 37.2578C177.443 37.2578 178.279 37.4857 179.002 37.9414C179.731 38.3971 180.294 39.0417 180.691 39.875C181.095 40.7018 181.297 41.6589 181.297 42.7461C181.297 43.8333 181.095 44.7904 180.691 45.6172C180.294 46.444 179.731 47.0853 179.002 47.541C178.279 47.9902 177.443 48.2148 176.492 48.2148ZM176.492 46.7305C177.176 46.7305 177.752 46.5514 178.221 46.1934C178.689 45.8288 179.038 45.347 179.266 44.748C179.5 44.1426 179.617 43.4753 179.617 42.7461C179.617 42.0169 179.5 41.3496 179.266 40.7441C179.038 40.1387 178.689 39.6536 178.221 39.2891C177.752 38.9245 177.176 38.7422 176.492 38.7422C175.796 38.7422 175.21 38.9245 174.734 39.2891C174.266 39.6536 173.914 40.1387 173.68 40.7441C173.445 41.3496 173.328 42.0169 173.328 42.7461C173.328 43.4753 173.445 44.1426 173.68 44.748C173.914 45.347 174.266 45.8288 174.734 46.1934C175.21 46.5514 175.796 46.7305 176.492 46.7305ZM185.184 48H183.504V33.8594H185.184V48ZM191.863 48.2148C190.984 48.2148 190.203 47.9902 189.52 47.541C188.842 47.0918 188.312 46.4538 187.928 45.627C187.544 44.7936 187.352 43.8268 187.352 42.7266C187.352 41.6263 187.544 40.6628 187.928 39.8359C188.312 39.0091 188.846 38.3743 189.529 37.9316C190.213 37.4824 190.997 37.2578 191.883 37.2578C192.508 37.2578 193.025 37.362 193.436 37.5703C193.846 37.7721 194.148 37.9902 194.344 38.2246C194.539 38.4525 194.741 38.7357 194.949 39.0742H195.066V33.8594H196.766V48H195.125V46.3789H194.949C194.728 46.724 194.516 47.0137 194.314 47.248C194.119 47.4824 193.816 47.7038 193.406 47.9121C192.996 48.1139 192.482 48.2148 191.863 48.2148ZM192.098 46.7109C192.729 46.7109 193.273 46.5449 193.729 46.2129C194.184 45.8743 194.529 45.4023 194.764 44.7969C195.005 44.1849 195.125 43.4818 195.125 42.6875C195.125 41.8997 195.008 41.2129 194.773 40.627C194.546 40.0345 194.204 39.5755 193.748 39.25C193.292 38.9245 192.742 38.7617 192.098 38.7617C191.44 38.7617 190.883 38.9342 190.428 39.2793C189.972 39.6178 189.627 40.0833 189.393 40.6758C189.165 41.2682 189.051 41.9388 189.051 42.6875C189.051 43.4557 189.165 44.1458 189.393 44.7578C189.627 45.3633 189.972 45.8418 190.428 46.1934C190.89 46.5384 191.447 46.7109 192.098 46.7109ZM204.129 48.2148C203.12 48.2148 202.241 47.9902 201.492 47.541C200.743 47.0918 200.167 46.457 199.764 45.6367C199.367 44.8164 199.168 43.8659 199.168 42.7852C199.168 41.7044 199.367 40.7474 199.764 39.9141C200.167 39.0742 200.73 38.4232 201.453 37.9609C202.182 37.4922 203.022 37.2578 203.973 37.2578C204.773 37.2578 205.519 37.4368 206.209 37.7949C206.899 38.1465 207.459 38.7194 207.889 39.5137C208.325 40.3014 208.543 41.3138 208.543 42.5508V43.2539H200.848C200.874 43.9896 201.027 44.6178 201.307 45.1387C201.587 45.6595 201.967 46.0566 202.449 46.3301C202.938 46.597 203.497 46.7305 204.129 46.7305C204.728 46.7305 205.232 46.6198 205.643 46.3984C206.059 46.1706 206.375 45.8776 206.59 45.5195H208.387C208.217 46.0534 207.934 46.5254 207.537 46.9355C207.146 47.3392 206.658 47.6549 206.072 47.8828C205.493 48.1042 204.845 48.2148 204.129 48.2148ZM206.844 41.8281C206.844 41.2357 206.723 40.7083 206.482 40.2461C206.248 39.7773 205.913 39.4095 205.477 39.1426C205.04 38.8757 204.539 38.7422 203.973 38.7422C203.38 38.7422 202.853 38.8822 202.391 39.1621C201.935 39.4421 201.574 39.8197 201.307 40.2949C201.046 40.7637 200.896 41.2747 200.857 41.8281H206.844ZM212.41 48H210.73V37.3945H212.352V39.0547H212.488C212.755 38.4883 213.143 38.0488 213.65 37.7363C214.165 37.4173 214.812 37.2578 215.594 37.2578C216.323 37.2578 216.954 37.4076 217.488 37.707C218.022 38 218.436 38.446 218.729 39.0449C219.021 39.6439 219.168 40.3828 219.168 41.2617V48H217.488V41.3789C217.488 40.5586 217.277 39.9173 216.854 39.4551C216.43 38.9928 215.841 38.7617 215.086 38.7617C214.565 38.7617 214.103 38.8757 213.699 39.1035C213.296 39.3249 212.98 39.6536 212.752 40.0898C212.524 40.5195 212.41 41.0339 212.41 41.6328V48ZM227.098 33.8594H231.902C232.97 33.8594 233.865 34.0547 234.588 34.4453C235.311 34.8359 235.848 35.3698 236.199 36.0469C236.551 36.7174 236.727 37.4857 236.727 38.3516C236.727 39.2109 236.551 39.9824 236.199 40.666C235.848 41.3431 235.311 41.8802 234.588 42.2773C233.872 42.668 232.983 42.8633 231.922 42.8633H228.855V48H227.098V33.8594ZM231.844 41.3008C232.911 41.3008 233.702 41.0339 234.217 40.5C234.731 39.9596 234.988 39.2435 234.988 38.3516C234.988 37.4531 234.731 36.7402 234.217 36.2129C233.702 35.6855 232.905 35.4219 231.824 35.4219H228.855V41.3008H231.844ZM243.191 48.2148C242.234 48.2148 241.388 47.9902 240.652 47.541C239.923 47.0853 239.357 46.444 238.953 45.6172C238.549 44.7904 238.348 43.8333 238.348 42.7461C238.348 41.6589 238.549 40.7018 238.953 39.875C239.357 39.0417 239.923 38.3971 240.652 37.9414C241.388 37.4857 242.234 37.2578 243.191 37.2578C244.142 37.2578 244.979 37.4857 245.701 37.9414C246.43 38.3971 246.993 39.0417 247.391 39.875C247.794 40.7018 247.996 41.6589 247.996 42.7461C247.996 43.8333 247.794 44.7904 247.391 45.6172C246.993 46.444 246.43 47.0853 245.701 47.541C244.979 47.9902 244.142 48.2148 243.191 48.2148ZM243.191 46.7305C243.875 46.7305 244.451 46.5514 244.92 46.1934C245.389 45.8288 245.737 45.347 245.965 44.748C246.199 44.1426 246.316 43.4753 246.316 42.7461C246.316 42.0169 246.199 41.3496 245.965 40.7441C245.737 40.1387 245.389 39.6536 244.92 39.2891C244.451 38.9245 243.875 38.7422 243.191 38.7422C242.495 38.7422 241.909 38.9245 241.434 39.2891C240.965 39.6536 240.613 40.1387 240.379 40.7441C240.145 41.3496 240.027 42.0169 240.027 42.7461C240.027 43.4753 240.145 44.1426 240.379 44.748C240.613 45.347 240.965 45.8288 241.434 46.1934C241.909 46.5514 242.495 46.7305 243.191 46.7305ZM254.832 38.8008H252.605V44.9531C252.605 45.5781 252.729 45.998 252.977 46.2129C253.224 46.4277 253.562 46.5352 253.992 46.5352C254.318 46.5352 254.65 46.5221 254.988 46.4961V48.0586C254.65 48.1107 254.259 48.1367 253.816 48.1367C253.322 48.1367 252.853 48.0358 252.41 47.834C251.967 47.6257 251.606 47.3132 251.326 46.8965C251.046 46.4798 250.906 45.9753 250.906 45.3828V38.8008H249.305V37.3945H250.906V34.8555H252.605V37.3945H254.832V38.8008ZM258.914 48H257.234V33.8594H258.914V39.0547H259.051C259.585 37.8568 260.626 37.2578 262.176 37.2578C263.296 37.2578 264.178 37.5964 264.822 38.2734C265.467 38.944 265.789 39.9401 265.789 41.2617V48H264.109V41.3789C264.109 40.5521 263.891 39.9108 263.455 39.4551C263.025 38.9928 262.43 38.7617 261.668 38.7617C261.134 38.7617 260.659 38.8757 260.242 39.1035C259.832 39.3249 259.507 39.6536 259.266 40.0898C259.031 40.5195 258.914 41.0339 258.914 41.6328V48ZM272.82 48.2148C271.863 48.2148 271.017 47.9902 270.281 47.541C269.552 47.0853 268.986 46.444 268.582 45.6172C268.178 44.7904 267.977 43.8333 267.977 42.7461C267.977 41.6589 268.178 40.7018 268.582 39.875C268.986 39.0417 269.552 38.3971 270.281 37.9414C271.017 37.4857 271.863 37.2578 272.82 37.2578C273.771 37.2578 274.607 37.4857 275.33 37.9414C276.059 38.3971 276.622 39.0417 277.02 39.875C277.423 40.7018 277.625 41.6589 277.625 42.7461C277.625 43.8333 277.423 44.7904 277.02 45.6172C276.622 46.444 276.059 47.0853 275.33 47.541C274.607 47.9902 273.771 48.2148 272.82 48.2148ZM272.82 46.7305C273.504 46.7305 274.08 46.5514 274.549 46.1934C275.018 45.8288 275.366 45.347 275.594 44.748C275.828 44.1426 275.945 43.4753 275.945 42.7461C275.945 42.0169 275.828 41.3496 275.594 40.7441C275.366 40.1387 275.018 39.6536 274.549 39.2891C274.08 38.9245 273.504 38.7422 272.82 38.7422C272.124 38.7422 271.538 38.9245 271.062 39.2891C270.594 39.6536 270.242 40.1387 270.008 40.7441C269.773 41.3496 269.656 42.0169 269.656 42.7461C269.656 43.4753 269.773 44.1426 270.008 44.748C270.242 45.347 270.594 45.8288 271.062 46.1934C271.538 46.5514 272.124 46.7305 272.82 46.7305ZM285.73 40.1484C285.607 39.6862 285.366 39.3281 285.008 39.0742C284.656 38.8138 284.181 38.6836 283.582 38.6836C283.152 38.6836 282.765 38.7552 282.42 38.8984C282.081 39.0352 281.814 39.2272 281.619 39.4746C281.43 39.7155 281.336 39.9857 281.336 40.2852C281.336 40.6367 281.482 40.9362 281.775 41.1836C282.075 41.431 282.534 41.6263 283.152 41.7695L284.734 42.1602C285.685 42.388 286.395 42.7396 286.863 43.2148C287.332 43.6836 287.566 44.2891 287.566 45.0312C287.566 45.6497 287.4 46.1999 287.068 46.6816C286.743 47.1569 286.268 47.5312 285.643 47.8047C285.018 48.0781 284.272 48.2148 283.406 48.2148C282.215 48.2148 281.271 47.9609 280.574 47.4531C279.878 46.9388 279.461 46.1966 279.324 45.2266H281.082C281.18 45.7409 281.417 46.125 281.795 46.3789C282.173 46.6263 282.697 46.75 283.367 46.75C284.122 46.75 284.721 46.6035 285.164 46.3105C285.607 46.0176 285.828 45.6237 285.828 45.1289C285.828 44.7513 285.688 44.4388 285.408 44.1914C285.128 43.9375 284.689 43.7422 284.09 43.6055L282.488 43.2344C281.564 43.0195 280.861 42.668 280.379 42.1797C279.897 41.6914 279.656 41.0924 279.656 40.3828C279.656 39.7839 279.819 39.2467 280.145 38.7715C280.477 38.2962 280.939 37.9251 281.531 37.6582C282.13 37.3913 282.814 37.2578 283.582 37.2578C284.298 37.2578 284.93 37.3783 285.477 37.6191C286.023 37.86 286.456 38.1986 286.775 38.6348C287.101 39.071 287.299 39.5755 287.371 40.1484H285.73Z" fill="#1FAA67"/>
<defs>
<linearGradient id="paint0_linear_212_409" x1="47" y1="31" x2="47" y2="51" gradientUnits="userSpaceOnUse">
<stop stop-color="#1FAA67"/>
<stop offset="1" stop-color="#00E688"/>
</linearGradient>
<clipPath id="clip0_212_409">
<rect width="20" height="20" fill="white" transform="translate(37 31)"/>
</clipPath>
</defs>
</svg>
