<svg width="450" height="350" viewBox="0 0 450 350" fill="none" xmlns="http://www.w3.org/2000/svg">
<rect width="450" height="350" rx="44" fill="white"/>
<path d="M33.293 109.094H27.293V113.219H32.332V114.695H27.293V119.383C28.8711 119.367 30.1719 119.32 31.1953 119.242C32.2266 119.164 33.2852 119.023 34.3711 118.82L34.5352 120.32C33.418 120.547 32.3281 120.695 31.2656 120.766C30.2031 120.828 28.7305 120.867 26.8477 120.883H25.5352V107.617H33.293V109.094ZM42.5508 125.898H40.7695V105.062H42.5508V125.898ZM38.2852 124.82H36.5273V114.508H33.457V112.984H36.5273V105.578H38.2852V124.82ZM62.6367 125.945H60.7852V105.062H62.6367V125.945ZM51.5508 106.68C52.582 106.688 53.5 106.992 54.3047 107.594C55.1094 108.188 55.7383 109.031 56.1914 110.125C56.6445 111.219 56.8711 112.492 56.8711 113.945C56.8711 115.398 56.6445 116.672 56.1914 117.766C55.7383 118.859 55.1094 119.703 54.3047 120.297C53.5 120.891 52.582 121.188 51.5508 121.188C50.5195 121.188 49.5977 120.891 48.7852 120.297C47.9805 119.703 47.3516 118.859 46.8984 117.766C46.4531 116.672 46.2305 115.398 46.2305 113.945C46.2305 112.492 46.4531 111.219 46.8984 110.125C47.3516 109.031 47.9805 108.188 48.7852 107.594C49.5898 106.992 50.5117 106.688 51.5508 106.68ZM51.5508 108.32C50.8555 108.328 50.2383 108.566 49.6992 109.035C49.168 109.496 48.7539 110.152 48.457 111.004C48.1602 111.848 48.0117 112.828 48.0117 113.945C48.0117 115.062 48.1602 116.047 48.457 116.898C48.7539 117.742 49.1719 118.395 49.7109 118.855C50.25 119.316 50.8633 119.547 51.5508 119.547C52.2383 119.547 52.8516 119.316 53.3906 118.855C53.9297 118.395 54.3477 117.742 54.6445 116.898C54.9414 116.047 55.0898 115.062 55.0898 113.945C55.0898 112.828 54.9414 111.848 54.6445 111.004C54.3477 110.152 53.9297 109.496 53.3906 109.035C52.8594 108.566 52.2461 108.328 51.5508 108.32ZM70.5586 107.453H80.8711V105.438H82.6992V112.305H68.7305V105.438H70.5586V107.453ZM80.8711 110.898V108.859H70.5586V110.898H80.8711ZM85.1836 115.586H66.1992V114.109H85.1836V115.586ZM82.7461 122.125H70.3711V124.211H83.3789V125.664H68.543V120.766H80.9414V118.914H68.4961V117.508H82.7461V122.125ZM92.5195 106.68C93.543 106.688 94.4492 106.992 95.2383 107.594C96.0352 108.188 96.6562 109.031 97.1016 110.125C97.5547 111.219 97.7852 112.492 97.793 113.945C97.7852 115.398 97.5547 116.672 97.1016 117.766C96.6562 118.859 96.0352 119.703 95.2383 120.297C94.4414 120.891 93.5352 121.188 92.5195 121.188C91.4961 121.188 90.5859 120.891 89.7891 120.297C88.9922 119.703 88.3711 118.859 87.9258 117.766C87.4883 116.672 87.2695 115.398 87.2695 113.945C87.2695 112.492 87.4883 111.219 87.9258 110.125C88.3711 109.031 88.9922 108.188 89.7891 107.594C90.5859 106.992 91.4961 106.688 92.5195 106.68ZM92.5195 108.32C91.832 108.328 91.2227 108.566 90.6914 109.035C90.1602 109.496 89.7461 110.152 89.4492 111.004C89.1523 111.848 89.0039 112.828 89.0039 113.945C89.0039 115.062 89.1523 116.047 89.4492 116.898C89.7461 117.742 90.1602 118.395 90.6914 118.855C91.2305 119.316 91.8398 119.547 92.5195 119.547C93.207 119.547 93.8125 119.316 94.3359 118.855C94.8672 118.395 95.2773 117.742 95.5664 116.898C95.8633 116.047 96.0117 115.062 96.0117 113.945C96.0117 112.828 95.8633 111.848 95.5664 111.004C95.2773 110.152 94.8672 109.496 94.3359 109.035C93.8125 108.566 93.207 108.328 92.5195 108.32ZM106.441 111.883H103.066V116.523H106.441V118.07H103.066V125.898H101.238V105.062H103.066V110.312H106.441V111.883ZM114.738 111.461C114.73 112.555 114.965 113.668 115.441 114.801C115.926 115.926 116.582 116.945 117.41 117.859C118.238 118.766 119.152 119.453 120.152 119.922L119.098 121.375C117.934 120.812 116.883 119.953 115.945 118.797C115.016 117.641 114.312 116.352 113.836 114.93C113.523 115.945 113.094 116.91 112.547 117.824C112 118.738 111.375 119.547 110.672 120.25C109.969 120.945 109.23 121.492 108.457 121.891L107.332 120.438C108.324 119.961 109.246 119.238 110.098 118.27C110.957 117.301 111.641 116.215 112.148 115.012C112.664 113.809 112.926 112.625 112.934 111.461V108.742H108.082V107.219H119.426V108.742H114.738V111.461ZM123.809 113.5H127.301V115.07H123.809V125.898H121.98V105.062H123.809V113.5ZM145.277 112.867H131.004V105.836H132.832V111.391H145.277V112.867ZM147.48 117.203H128.402V115.703H147.48V117.203ZM145.395 125.383H130.887V119.336H132.715V123.859H145.395V125.383ZM158.098 108.531H162.457V105.883H165.457V115.398H155.121V105.883H158.098V108.531ZM162.457 113.055V110.758H158.098V113.055H162.457ZM171.41 109.094H174.293V111.555H171.41V116.148H168.41V104.828H171.41V109.094ZM163.605 122.477H159.387V123.742C160.871 123.734 161.996 123.703 162.762 123.648C163.527 123.586 164.262 123.469 164.965 123.297L165.27 125.5C164.395 125.688 163.473 125.809 162.504 125.863C161.535 125.918 159.988 125.945 157.863 125.945H156.457V120.391H160.723V119.266H156.41V117.039H163.605V122.477ZM171.41 126.039H168.457V119.383H164.52V117.039H171.41V126.039ZM192.809 108.695C192.809 109.906 192.793 110.965 192.762 111.871C192.738 112.77 192.66 113.816 192.527 115.012C192.402 116.199 192.207 117.492 191.941 118.891L188.941 118.586C189.301 116.805 189.531 115.203 189.633 113.781C189.734 112.359 189.793 110.781 189.809 109.047H177.246V106.68H192.809V108.695ZM194.684 123.555H175.23V121.117H182.191V113.781H185.168V121.117H194.684V123.555ZM218.426 110.805H221.309V113.266H218.426V120.109H215.402V104.828H218.426V110.805ZM212.613 106.422C212.613 108.328 212.223 110.047 211.441 111.578C210.668 113.102 209.535 114.406 208.043 115.492C206.551 116.578 204.738 117.422 202.605 118.023L201.363 115.656C203.715 115 205.566 114.082 206.918 112.902C208.277 111.723 209.078 110.375 209.32 108.859H202.301V106.422H212.613ZM219.152 125.781H204.551V118.539H207.574V123.391H219.152V125.781ZM240.223 116.5H237.246V112.047H233.871V109.609H237.246V104.828H240.223V116.5ZM228.949 119.336H237.246V117.32H240.223V125.922H225.996V117.32H228.949V119.336ZM237.246 123.531V121.633H228.949V123.531H237.246ZM234.551 108.227H230.32C230.367 109.047 230.574 109.844 230.941 110.617C231.316 111.391 231.859 112.086 232.57 112.703C233.289 113.32 234.168 113.797 235.207 114.133L233.73 116.43C232.574 116.047 231.582 115.492 230.754 114.766C229.934 114.039 229.285 113.184 228.809 112.199C228.324 113.301 227.648 114.258 226.781 115.07C225.914 115.875 224.871 116.477 223.652 116.875L222.129 114.531C223.207 114.172 224.117 113.668 224.859 113.02C225.609 112.363 226.18 111.625 226.57 110.805C226.969 109.984 227.195 109.125 227.25 108.227H222.973V105.789H234.551V108.227ZM255.293 108.391H251.051C251.059 109.258 251.238 110.098 251.59 110.91C251.949 111.723 252.492 112.453 253.219 113.102C253.953 113.742 254.863 114.242 255.949 114.602L254.473 116.898C253.324 116.531 252.336 115.984 251.508 115.258C250.688 114.531 250.039 113.672 249.562 112.68C249.07 113.789 248.391 114.746 247.523 115.551C246.656 116.355 245.613 116.953 244.395 117.344L242.871 114.977C243.996 114.617 244.941 114.094 245.707 113.406C246.473 112.719 247.043 111.941 247.418 111.074C247.793 110.207 247.988 109.312 248.004 108.391H243.715V106.023H255.293V108.391ZM260.965 126.156H257.988V120.859H246.316V118.469H260.965V126.156ZM260.965 117.531H257.988V112.398H254.684V109.961H257.988V104.828H260.965V117.531ZM281.59 120.18H278.59V104.852H281.59V120.18ZM282.152 125.781H267.293V118.633H270.316V123.391H282.152V125.781ZM269.895 106.211C270.98 106.211 271.965 106.441 272.848 106.902C273.738 107.363 274.441 108.004 274.957 108.824C275.473 109.637 275.73 110.555 275.73 111.578C275.73 112.617 275.473 113.551 274.957 114.379C274.449 115.199 273.75 115.84 272.859 116.301C271.969 116.762 270.98 116.992 269.895 116.992C268.809 116.992 267.82 116.762 266.93 116.301C266.039 115.84 265.336 115.199 264.82 114.379C264.312 113.551 264.059 112.617 264.059 111.578C264.059 110.555 264.316 109.637 264.832 108.824C265.348 108.004 266.047 107.363 266.93 106.902C267.82 106.441 268.809 106.211 269.895 106.211ZM269.895 108.812C269.34 108.805 268.84 108.914 268.395 109.141C267.949 109.359 267.602 109.68 267.352 110.102C267.102 110.523 266.98 111.016 266.988 111.578C266.98 112.156 267.102 112.66 267.352 113.09C267.602 113.512 267.945 113.836 268.383 114.062C268.828 114.281 269.332 114.391 269.895 114.391C270.441 114.391 270.93 114.281 271.359 114.062C271.797 113.836 272.141 113.512 272.391 113.09C272.648 112.66 272.777 112.156 272.777 111.578C272.777 111.016 272.648 110.523 272.391 110.102C272.141 109.68 271.797 109.359 271.359 109.141C270.922 108.914 270.434 108.805 269.895 108.812ZM307.84 117.062H304.863V104.828H307.84V117.062ZM308.215 120.531H302.273C302.422 121.023 302.773 121.504 303.328 121.973C303.891 122.434 304.656 122.836 305.625 123.18C306.594 123.523 307.73 123.75 309.035 123.859L308.027 126.086C306.293 125.93 304.797 125.562 303.539 124.984C302.281 124.406 301.316 123.688 300.645 122.828C299.98 123.703 299.016 124.426 297.75 124.996C296.484 125.566 294.973 125.93 293.215 126.086L292.207 123.883C293.527 123.773 294.676 123.551 295.652 123.215C296.629 122.871 297.398 122.465 297.961 121.996C298.523 121.527 298.879 121.039 299.027 120.531H293.074V118.258H299.145V116.523H302.145V118.258H308.215V120.531ZM294.035 108.367H298.512V105.672H301.488V115.398H291.082V105.672H294.035V108.367ZM298.512 113.031V110.641H294.035V113.031H298.512ZM328.605 126.203H325.582V104.828H328.605V126.203ZM317.027 106.328C318.098 106.328 319.055 106.641 319.898 107.266C320.75 107.891 321.418 108.777 321.902 109.926C322.387 111.074 322.629 112.406 322.629 113.922C322.629 115.453 322.387 116.797 321.902 117.953C321.418 119.102 320.75 119.988 319.898 120.613C319.055 121.23 318.098 121.539 317.027 121.539C315.934 121.539 314.957 121.23 314.098 120.613C313.238 119.988 312.566 119.102 312.082 117.953C311.605 116.797 311.371 115.453 311.379 113.922C311.371 112.406 311.605 111.074 312.082 109.926C312.566 108.777 313.238 107.891 314.098 107.266C314.957 106.641 315.934 106.328 317.027 106.328ZM317.027 109.023C316.473 109.023 315.984 109.215 315.562 109.598C315.148 109.973 314.828 110.527 314.602 111.262C314.375 111.996 314.262 112.883 314.262 113.922C314.262 114.969 314.375 115.859 314.602 116.594C314.828 117.328 315.148 117.883 315.562 118.258C315.984 118.633 316.473 118.82 317.027 118.82C317.574 118.82 318.051 118.633 318.457 118.258C318.863 117.875 319.18 117.316 319.406 116.582C319.633 115.848 319.746 114.961 319.746 113.922C319.746 112.891 319.633 112.008 319.406 111.273C319.18 110.531 318.859 109.973 318.445 109.598C318.039 109.215 317.566 109.023 317.027 109.023ZM354.926 115.773H351.926V104.828H354.926V115.773ZM354.926 122.312H343.418V123.648H355.512V126.016H340.465V120.18H351.973V118.938H340.418V116.617H354.926V122.312ZM349.535 108.414H347.777V112.668C348.684 112.598 349.543 112.516 350.355 112.422L350.496 114.555C347.184 115.086 342.918 115.352 337.699 115.352L337.371 113.008L339.668 112.984V108.414H337.934V106.141H349.535V108.414ZM344.895 112.844V108.414H342.527V112.926L344.895 112.844ZM377.285 123.672H357.762V121.211H362.121V115.996C361.277 115.488 360.625 114.863 360.164 114.121C359.703 113.371 359.473 112.531 359.473 111.602C359.473 110.469 359.816 109.469 360.504 108.602C361.191 107.734 362.141 107.062 363.352 106.586C364.57 106.102 365.949 105.859 367.488 105.859C369.02 105.859 370.391 106.102 371.602 106.586C372.82 107.062 373.777 107.734 374.473 108.602C375.168 109.469 375.52 110.469 375.527 111.602C375.52 112.508 375.289 113.332 374.836 114.074C374.391 114.809 373.762 115.43 372.949 115.938V121.211H377.285V123.672ZM367.488 108.227C366.473 108.227 365.582 108.359 364.816 108.625C364.059 108.891 363.469 109.277 363.047 109.785C362.633 110.285 362.426 110.891 362.426 111.602C362.426 112.289 362.633 112.887 363.047 113.395C363.469 113.902 364.062 114.293 364.828 114.566C365.594 114.84 366.48 114.977 367.488 114.977C368.488 114.977 369.371 114.84 370.137 114.566C370.902 114.293 371.496 113.902 371.918 113.395C372.348 112.887 372.566 112.289 372.574 111.602C372.566 110.898 372.352 110.293 371.93 109.785C371.508 109.277 370.914 108.891 370.148 108.625C369.383 108.359 368.496 108.227 367.488 108.227ZM369.926 121.211V117.074C369.121 117.223 368.309 117.297 367.488 117.297C366.613 117.297 365.809 117.223 365.074 117.074V121.211H369.926ZM388.793 110.453H378.48V108.086H382.184V105.414H385.137V108.086H388.793V110.453ZM383.684 111.414C384.582 111.414 385.383 111.633 386.086 112.07C386.797 112.5 387.352 113.098 387.75 113.863C388.156 114.629 388.363 115.5 388.371 116.477C388.363 117.453 388.156 118.328 387.75 119.102C387.352 119.875 386.797 120.48 386.086 120.918C385.383 121.348 384.582 121.562 383.684 121.562C382.785 121.562 381.977 121.348 381.258 120.918C380.547 120.48 379.988 119.875 379.582 119.102C379.176 118.328 378.973 117.453 378.973 116.477C378.973 115.508 379.176 114.641 379.582 113.875C379.988 113.102 380.547 112.5 381.258 112.07C381.977 111.633 382.785 111.414 383.684 111.414ZM383.684 113.898C383.051 113.898 382.543 114.129 382.16 114.59C381.785 115.051 381.598 115.68 381.598 116.477C381.598 117.273 381.785 117.898 382.16 118.352C382.543 118.805 383.051 119.031 383.684 119.031C384.293 119.031 384.785 118.805 385.16 118.352C385.543 117.898 385.738 117.273 385.746 116.477C385.738 115.68 385.543 115.051 385.16 114.59C384.785 114.129 384.293 113.898 383.684 113.898ZM396.949 126.156H394.113V115.891H392.379V125.242H389.59V105.25H392.379V113.5H394.113V104.828H396.949V126.156ZM418.77 123.672H399.246V121.211H403.605V115.996C402.762 115.488 402.109 114.863 401.648 114.121C401.188 113.371 400.957 112.531 400.957 111.602C400.957 110.469 401.301 109.469 401.988 108.602C402.676 107.734 403.625 107.062 404.836 106.586C406.055 106.102 407.434 105.859 408.973 105.859C410.504 105.859 411.875 106.102 413.086 106.586C414.305 107.062 415.262 107.734 415.957 108.602C416.652 109.469 417.004 110.469 417.012 111.602C417.004 112.508 416.773 113.332 416.32 114.074C415.875 114.809 415.246 115.43 414.434 115.938V121.211H418.77V123.672ZM408.973 108.227C407.957 108.227 407.066 108.359 406.301 108.625C405.543 108.891 404.953 109.277 404.531 109.785C404.117 110.285 403.91 110.891 403.91 111.602C403.91 112.289 404.117 112.887 404.531 113.395C404.953 113.902 405.547 114.293 406.312 114.566C407.078 114.84 407.965 114.977 408.973 114.977C409.973 114.977 410.855 114.84 411.621 114.566C412.387 114.293 412.98 113.902 413.402 113.395C413.832 112.887 414.051 112.289 414.059 111.602C414.051 110.898 413.836 110.293 413.414 109.785C412.992 109.277 412.398 108.891 411.633 108.625C410.867 108.359 409.98 108.227 408.973 108.227ZM411.41 121.211V117.074C410.605 117.223 409.793 117.297 408.973 117.297C408.098 117.297 407.293 117.223 406.559 117.074V121.211H411.41ZM422.754 124.211C422.395 124.211 422.062 124.121 421.758 123.941C421.453 123.762 421.211 123.523 421.031 123.227C420.859 122.922 420.777 122.594 420.785 122.242C420.777 121.891 420.859 121.566 421.031 121.27C421.211 120.973 421.453 120.738 421.758 120.566C422.062 120.387 422.395 120.297 422.754 120.297C423.09 120.297 423.406 120.387 423.703 120.566C424.008 120.738 424.25 120.973 424.43 121.27C424.609 121.566 424.699 121.891 424.699 122.242C424.699 122.594 424.609 122.922 424.43 123.227C424.25 123.523 424.008 123.762 423.703 123.941C423.406 124.121 423.09 124.211 422.754 124.211Z" fill="black"/>
<path d="M152.441 168.016H145.273V173.621H143.77V168.016H136.621V166.727H152.441V168.016ZM145.293 159.656C145.293 160.353 145.583 161.02 146.162 161.658C146.742 162.29 147.503 162.827 148.447 163.27C149.391 163.712 150.384 164.005 151.426 164.148L150.859 165.379C149.961 165.242 149.095 165.005 148.262 164.666C147.435 164.327 146.696 163.908 146.045 163.406C145.4 162.905 144.899 162.345 144.541 161.727C144.183 162.352 143.675 162.915 143.018 163.416C142.367 163.917 141.624 164.337 140.791 164.676C139.958 165.008 139.089 165.242 138.184 165.379L137.617 164.148C138.659 164.005 139.652 163.715 140.596 163.279C141.54 162.837 142.305 162.299 142.891 161.668C143.477 161.03 143.77 160.359 143.77 159.656V159.637H138.164V158.387H143.77V156.219H145.273V158.387H150.918V159.637H145.293V159.656ZM159.824 160.379C159.824 161.134 160.01 161.857 160.381 162.547C160.758 163.23 161.279 163.829 161.943 164.344C162.614 164.858 163.379 165.249 164.238 165.516L163.477 166.746C162.467 166.421 161.582 165.926 160.82 165.262C160.065 164.598 159.492 163.823 159.102 162.938C158.724 163.888 158.154 164.721 157.393 165.438C156.637 166.147 155.749 166.681 154.727 167.039L153.965 165.848C154.811 165.561 155.563 165.145 156.221 164.598C156.885 164.044 157.399 163.403 157.764 162.674C158.135 161.945 158.32 161.18 158.32 160.379V159.812H154.395V158.562H158.32V156.336H159.863V158.562H163.75V159.812H159.824V160.379ZM168.301 169.207H166.758V162.859H163.145V161.59H166.758V156.238H168.301V169.207ZM168.789 173.211H157.148V168.035H158.691V171.922H168.789V173.211ZM192.109 171.355H176.211V170.066H183.379V165.848H184.922V170.066H192.109V171.355ZM184.922 159.52C184.922 160.405 185.241 161.251 185.879 162.059C186.517 162.859 187.334 163.536 188.33 164.09C189.326 164.637 190.332 164.995 191.348 165.164L190.723 166.375C189.818 166.199 188.929 165.9 188.057 165.477C187.191 165.047 186.413 164.513 185.723 163.875C185.033 163.237 184.508 162.531 184.15 161.756C183.792 162.537 183.268 163.25 182.578 163.895C181.895 164.539 181.12 165.079 180.254 165.516C179.395 165.952 178.522 166.264 177.637 166.453L176.992 165.223C177.988 165.047 178.978 164.679 179.961 164.119C180.944 163.559 181.751 162.872 182.383 162.059C183.021 161.245 183.34 160.398 183.34 159.52V159.09H177.52V157.801H190.742V159.09H184.922V159.52ZM207.891 166.512H206.348V163.777H202.285V165.262H194.316V157.547H202.285V159.051H206.348V156.219H207.891V166.512ZM195.84 164.012H200.781V158.797H195.84V164.012ZM202.129 167.02C203.333 167.02 204.372 167.15 205.244 167.41C206.117 167.664 206.784 168.038 207.246 168.533C207.715 169.021 207.949 169.611 207.949 170.301C207.949 170.984 207.715 171.567 207.246 172.049C206.784 172.537 206.117 172.908 205.244 173.162C204.372 173.416 203.333 173.543 202.129 173.543C200.924 173.543 199.886 173.416 199.014 173.162C198.141 172.908 197.471 172.537 197.002 172.049C196.54 171.567 196.309 170.984 196.309 170.301C196.309 169.611 196.54 169.021 197.002 168.533C197.471 168.038 198.141 167.664 199.014 167.41C199.886 167.15 200.924 167.02 202.129 167.02ZM202.129 168.211C201.243 168.217 200.475 168.305 199.824 168.475C199.18 168.637 198.685 168.875 198.34 169.188C197.995 169.5 197.826 169.871 197.832 170.301C197.826 170.711 197.995 171.069 198.34 171.375C198.691 171.681 199.189 171.915 199.834 172.078C200.485 172.247 201.25 172.332 202.129 172.332C203.008 172.332 203.77 172.247 204.414 172.078C205.059 171.915 205.553 171.684 205.898 171.385C206.25 171.079 206.426 170.717 206.426 170.301C206.426 169.871 206.253 169.5 205.908 169.188C205.563 168.875 205.068 168.637 204.424 168.475C203.779 168.305 203.014 168.217 202.129 168.211ZM206.348 162.488V160.32H202.285V162.488H206.348ZM229.375 161.395H232.012V162.684H229.375V168.797H227.852V156.219H229.375V161.395ZM224.355 159.012H218.145V164.422C220 164.422 221.484 164.386 222.598 164.314C223.717 164.236 224.831 164.083 225.938 163.855L226.133 165.125C224.948 165.353 223.763 165.509 222.578 165.594C221.393 165.672 219.857 165.711 217.969 165.711H216.621V157.723H224.355V159.012ZM230.176 173.211H218.516V167.527H220.02V171.922H230.176V173.211ZM247.949 173.582H246.484V156.219H247.949V173.582ZM244.434 172.703H242.969V166.688H239.746V165.418H242.969V162.332H240.029C239.6 163.849 238.887 165.239 237.891 166.502C236.895 167.765 235.599 168.875 234.004 169.832L233.066 168.719C234.922 167.625 236.341 166.316 237.324 164.793C238.314 163.263 238.887 161.57 239.043 159.715H233.848V158.445H240.566C240.566 159.337 240.488 160.21 240.332 161.062H242.969V156.688H244.434V172.703ZM252.207 170.125C251.979 170.125 251.768 170.07 251.572 169.959C251.383 169.842 251.23 169.686 251.113 169.49C251.003 169.295 250.951 169.083 250.957 168.855C250.951 168.634 251.003 168.429 251.113 168.24C251.23 168.045 251.383 167.892 251.572 167.781C251.768 167.664 251.979 167.605 252.207 167.605C252.428 167.605 252.633 167.664 252.822 167.781C253.018 167.892 253.171 168.045 253.281 168.24C253.398 168.429 253.457 168.634 253.457 168.855C253.457 169.083 253.398 169.295 253.281 169.49C253.171 169.686 253.018 169.842 252.822 169.959C252.633 170.07 252.428 170.125 252.207 170.125ZM252.207 162.273C251.979 162.273 251.768 162.218 251.572 162.107C251.383 161.99 251.23 161.834 251.113 161.639C251.003 161.443 250.951 161.232 250.957 161.004C250.951 160.783 251.003 160.577 251.113 160.389C251.23 160.193 251.383 160.04 251.572 159.93C251.768 159.812 251.979 159.754 252.207 159.754C252.428 159.754 252.633 159.812 252.822 159.93C253.018 160.04 253.171 160.193 253.281 160.389C253.398 160.577 253.457 160.783 253.457 161.004C253.457 161.232 253.398 161.443 253.281 161.639C253.171 161.834 253.018 161.99 252.822 162.107C252.633 162.218 252.428 162.273 252.207 162.273ZM265.703 172.195C264.863 172.195 264.098 172.036 263.408 171.717C262.725 171.391 262.178 170.945 261.768 170.379C261.364 169.806 261.146 169.161 261.113 168.445H262.812C262.858 168.862 263.014 169.24 263.281 169.578C263.548 169.91 263.893 170.174 264.316 170.369C264.74 170.558 265.202 170.652 265.703 170.652C266.302 170.652 266.842 170.516 267.324 170.242C267.806 169.969 268.184 169.594 268.457 169.119C268.73 168.644 268.867 168.113 268.867 167.527C268.867 166.922 268.724 166.378 268.438 165.896C268.158 165.408 267.767 165.027 267.266 164.754C266.771 164.474 266.211 164.331 265.586 164.324C264.329 164.305 263.451 164.728 262.949 165.594H261.25L262.246 157.859H269.902V159.422H263.711L263.184 163.562H263.32C263.639 163.315 264.027 163.117 264.482 162.967C264.938 162.817 265.41 162.742 265.898 162.742C266.784 162.742 267.581 162.947 268.291 163.357C269.007 163.761 269.567 164.324 269.971 165.047C270.381 165.77 270.586 166.583 270.586 167.488C270.586 168.387 270.374 169.194 269.951 169.91C269.528 170.626 268.945 171.186 268.203 171.59C267.461 171.993 266.628 172.195 265.703 172.195ZM273.203 176.004H271.758L272.832 170.691H274.727L273.203 176.004ZM287.598 172.195C286.686 172.195 285.84 171.99 285.059 171.58C284.284 171.163 283.646 170.457 283.145 169.461C282.65 168.458 282.402 167.13 282.402 165.477C282.402 163.829 282.617 162.42 283.047 161.248C283.483 160.076 284.102 159.188 284.902 158.582C285.71 157.97 286.667 157.664 287.773 157.664C288.587 157.664 289.316 157.82 289.961 158.133C290.612 158.445 291.143 158.885 291.553 159.451C291.969 160.018 292.24 160.672 292.363 161.414H290.625C290.449 160.757 290.117 160.229 289.629 159.832C289.147 159.428 288.529 159.227 287.773 159.227C287.005 159.227 286.341 159.441 285.781 159.871C285.228 160.294 284.801 160.91 284.502 161.717C284.209 162.524 284.062 163.491 284.062 164.617H284.238C284.655 164.025 285.176 163.566 285.801 163.24C286.426 162.908 287.116 162.742 287.871 162.742C288.704 162.742 289.473 162.944 290.176 163.348C290.885 163.751 291.445 164.311 291.855 165.027C292.272 165.737 292.48 166.538 292.48 167.43C292.48 168.309 292.275 169.113 291.865 169.842C291.462 170.564 290.889 171.137 290.146 171.561C289.404 171.984 288.555 172.195 287.598 172.195ZM287.559 170.652C288.158 170.652 288.701 170.509 289.189 170.223C289.678 169.936 290.062 169.549 290.342 169.061C290.628 168.566 290.775 168.029 290.781 167.449C290.775 166.87 290.635 166.339 290.361 165.857C290.088 165.376 289.71 164.995 289.229 164.715C288.747 164.428 288.203 164.285 287.598 164.285C286.992 164.285 286.439 164.432 285.938 164.725C285.436 165.018 285.039 165.411 284.746 165.906C284.453 166.395 284.303 166.915 284.297 167.469C284.297 168.022 284.437 168.543 284.717 169.031C285.003 169.52 285.394 169.913 285.889 170.213C286.39 170.506 286.947 170.652 287.559 170.652ZM294.941 176.004H293.496L294.57 170.691H296.465L294.941 176.004ZM311.309 159.52V159.422H303.828V157.859H313.125V159.5L306.66 172H304.824L311.309 159.52Z" fill="#8A88FF"/>
<path d="M62.2656 269.363H60.7031V266.922H56.875V265.672H60.7031V256.238H62.2656V269.363ZM62.6953 273.211H50.3711V267.898H51.9141V271.922H62.6953V273.211ZM47.7734 263.113C50.8333 263.113 53.431 263.042 55.5664 262.898C55.8268 261.44 55.9635 259.988 55.9766 258.543H49.3359V257.293H57.5V257.977C57.5 258.725 57.4772 259.471 57.4316 260.213C57.3926 260.955 57.2917 261.808 57.1289 262.771C57.7474 262.719 58.4115 262.645 59.1211 262.547L59.2383 263.66C57.7995 263.901 56.1393 264.083 54.2578 264.207V268.211H52.7344V264.295C51.263 264.354 49.681 264.383 47.9883 264.383L47.7734 263.113ZM71.0547 259.52C71.0547 260.268 71.2305 260.984 71.582 261.668C71.9401 262.345 72.4382 262.944 73.0762 263.465C73.7207 263.979 74.4661 264.376 75.3125 264.656L74.5898 265.867C73.6003 265.542 72.7344 265.05 71.9922 264.393C71.2565 263.735 70.6999 262.964 70.3223 262.078C69.9512 263.074 69.3815 263.947 68.6133 264.695C67.8451 265.438 66.9401 265.997 65.8984 266.375L65.1172 265.145C65.9766 264.852 66.7415 264.422 67.4121 263.855C68.0827 263.289 68.6035 262.632 68.9746 261.883C69.3522 261.128 69.5443 260.34 69.5508 259.52V258.777H65.5859V257.508H74.9609V258.777H71.0547V259.52ZM78.75 260.652H81.3672V261.941H78.75V266.707H77.2266V256.219H78.75V260.652ZM73.1836 267.176C74.3685 267.176 75.3906 267.303 76.25 267.557C77.1094 267.804 77.7669 268.165 78.2227 268.641C78.6784 269.116 78.9062 269.682 78.9062 270.34C78.9062 271.01 78.6784 271.587 78.2227 272.068C77.7669 272.55 77.1094 272.915 76.25 273.162C75.3906 273.416 74.3685 273.543 73.1836 273.543C71.9987 273.543 70.9733 273.416 70.1074 273.162C69.2415 272.915 68.5775 272.55 68.1152 272.068C67.653 271.587 67.4219 271.01 67.4219 270.34C67.4219 269.682 67.653 269.116 68.1152 268.641C68.5775 268.165 69.2415 267.804 70.1074 267.557C70.9733 267.303 71.9987 267.176 73.1836 267.176ZM73.1836 268.406C72.3177 268.406 71.5658 268.484 70.9277 268.641C70.2897 268.79 69.8014 269.012 69.4629 269.305C69.1243 269.598 68.9583 269.943 68.9648 270.34C68.9583 270.75 69.1243 271.105 69.4629 271.404C69.8014 271.697 70.2865 271.922 70.918 272.078C71.556 272.234 72.3112 272.312 73.1836 272.312C74.0625 272.312 74.8177 272.234 75.4492 272.078C76.0872 271.922 76.5755 271.697 76.9141 271.404C77.2526 271.105 77.4219 270.75 77.4219 270.34C77.4219 269.936 77.2526 269.591 76.9141 269.305C76.5755 269.012 76.0872 268.79 75.4492 268.641C74.8112 268.484 74.056 268.406 73.1836 268.406ZM91.0742 268.465H99.7656V266.16H101.289V273.348H89.5508V266.16H91.0742V268.465ZM99.7656 272.098V269.676H91.0742V272.098H99.7656ZM101.289 258.289C101.289 259.207 101.26 260.037 101.201 260.779C101.149 261.521 101.019 262.371 100.811 263.328H103.379V264.598H87.4805V263.328H99.3066C99.5085 262.378 99.6354 261.531 99.6875 260.789C99.7396 260.047 99.7656 259.214 99.7656 258.289H89.4922V257.02H101.289V258.289ZM113.477 257.84C113.477 258.621 113.779 259.37 114.385 260.086C114.997 260.802 115.791 261.404 116.768 261.893C117.744 262.381 118.757 262.697 119.805 262.84L119.18 264.09C118.268 263.94 117.386 263.68 116.533 263.309C115.68 262.931 114.919 262.462 114.248 261.902C113.577 261.336 113.06 260.708 112.695 260.018C112.337 260.708 111.82 261.336 111.143 261.902C110.472 262.462 109.71 262.931 108.857 263.309C108.005 263.68 107.122 263.94 106.211 264.09L105.586 262.84C106.641 262.697 107.653 262.384 108.623 261.902C109.593 261.414 110.381 260.815 110.986 260.105C111.592 259.389 111.895 258.634 111.895 257.84V256.844H113.477V257.84ZM120.586 267.293H113.398V273.582H111.895V267.293H104.766V266.004H120.586V267.293ZM133.242 260.887C133.236 261.915 133.444 262.938 133.867 263.953C134.29 264.962 134.863 265.861 135.586 266.648C136.309 267.436 137.096 268.022 137.949 268.406L137.012 269.617C136.022 269.129 135.124 268.403 134.316 267.439C133.516 266.469 132.91 265.369 132.5 264.139C132.096 265.447 131.491 266.619 130.684 267.654C129.876 268.683 128.965 269.454 127.949 269.969L126.973 268.68C127.826 268.283 128.613 267.68 129.336 266.873C130.059 266.059 130.635 265.128 131.064 264.08C131.494 263.025 131.712 261.961 131.719 260.887V257.723H133.242V260.887ZM141.387 273.621H139.844V256.219H141.387V273.621ZM158.75 266.395H157.207V261.863H153.691V260.574H157.207V256.219H158.75V266.395ZM158.75 273.348H147.402V267.254H158.75V273.348ZM148.926 272.098H157.246V268.484H148.926V272.098ZM150.391 259.305C150.391 260.047 150.57 260.77 150.928 261.473C151.286 262.176 151.79 262.804 152.441 263.357C153.092 263.904 153.835 264.324 154.668 264.617L153.867 265.828C152.897 265.477 152.044 264.956 151.309 264.266C150.579 263.569 150.026 262.768 149.648 261.863C149.271 262.866 148.698 263.748 147.93 264.51C147.161 265.271 146.263 265.841 145.234 266.219L144.434 265.008C145.28 264.702 146.038 264.259 146.709 263.68C147.38 263.094 147.904 262.423 148.281 261.668C148.659 260.906 148.848 260.118 148.848 259.305V258.621H144.922V257.352H154.277V258.621H150.391V259.305ZM163.477 270.125C163.249 270.125 163.037 270.07 162.842 269.959C162.653 269.842 162.5 269.686 162.383 269.49C162.272 269.295 162.22 269.083 162.227 268.855C162.22 268.634 162.272 268.429 162.383 268.24C162.5 268.045 162.653 267.892 162.842 267.781C163.037 267.664 163.249 267.605 163.477 267.605C163.698 267.605 163.903 267.664 164.092 267.781C164.287 267.892 164.44 268.045 164.551 268.24C164.668 268.429 164.727 268.634 164.727 268.855C164.727 269.083 164.668 269.295 164.551 269.49C164.44 269.686 164.287 269.842 164.092 269.959C163.903 270.07 163.698 270.125 163.477 270.125ZM163.477 262.273C163.249 262.273 163.037 262.218 162.842 262.107C162.653 261.99 162.5 261.834 162.383 261.639C162.272 261.443 162.22 261.232 162.227 261.004C162.22 260.783 162.272 260.577 162.383 260.389C162.5 260.193 162.653 260.04 162.842 259.93C163.037 259.812 163.249 259.754 163.477 259.754C163.698 259.754 163.903 259.812 164.092 259.93C164.287 260.04 164.44 260.193 164.551 260.389C164.668 260.577 164.727 260.783 164.727 261.004C164.727 261.232 164.668 261.443 164.551 261.639C164.44 261.834 164.287 261.99 164.092 262.107C163.903 262.218 163.698 262.273 163.477 262.273ZM185.801 266.512H180.41V270.145H187.637V271.414H171.738V270.145H178.887V266.512H173.789V257.645H185.605V258.914H175.352V261.395H185.234V262.645H175.352V265.262H185.801V266.512ZM205.176 260.125H202.598V262.547H205.176V263.836H202.598V266.531H201.074V256.219H202.598V258.855H205.176V260.125ZM193.906 257.273C194.779 257.267 195.56 257.436 196.25 257.781C196.94 258.126 197.48 258.611 197.871 259.236C198.268 259.855 198.47 260.561 198.477 261.355C198.47 262.15 198.268 262.856 197.871 263.475C197.48 264.087 196.94 264.565 196.25 264.91C195.56 265.255 194.779 265.431 193.906 265.438C193.034 265.431 192.249 265.255 191.553 264.91C190.863 264.565 190.322 264.087 189.932 263.475C189.541 262.856 189.349 262.15 189.355 261.355C189.349 260.561 189.541 259.855 189.932 259.236C190.322 258.611 190.863 258.126 191.553 257.781C192.249 257.436 193.034 257.267 193.906 257.273ZM193.906 258.582C193.327 258.576 192.803 258.689 192.334 258.924C191.872 259.158 191.507 259.487 191.24 259.91C190.98 260.333 190.853 260.815 190.859 261.355C190.853 261.889 190.98 262.368 191.24 262.791C191.507 263.214 191.872 263.546 192.334 263.787C192.803 264.021 193.327 264.142 193.906 264.148C194.492 264.142 195.016 264.021 195.479 263.787C195.947 263.546 196.312 263.217 196.572 262.801C196.839 262.378 196.973 261.896 196.973 261.355C196.973 260.815 196.839 260.333 196.572 259.91C196.312 259.487 195.947 259.158 195.479 258.924C195.016 258.689 194.492 258.576 193.906 258.582ZM197.031 267.059C198.21 267.065 199.229 267.199 200.088 267.459C200.947 267.713 201.605 268.084 202.061 268.572C202.523 269.054 202.754 269.637 202.754 270.32C202.754 270.991 202.523 271.567 202.061 272.049C201.598 272.537 200.938 272.908 200.078 273.162C199.219 273.416 198.203 273.543 197.031 273.543C195.853 273.543 194.831 273.416 193.965 273.162C193.099 272.908 192.432 272.537 191.963 272.049C191.501 271.567 191.27 270.991 191.27 270.32C191.27 269.637 191.501 269.054 191.963 268.572C192.432 268.084 193.096 267.713 193.955 267.459C194.821 267.199 195.846 267.065 197.031 267.059ZM197.031 268.309C196.159 268.309 195.404 268.39 194.766 268.553C194.134 268.709 193.649 268.94 193.311 269.246C192.972 269.546 192.806 269.904 192.812 270.32C192.806 270.73 192.972 271.085 193.311 271.385C193.649 271.684 194.137 271.912 194.775 272.068C195.413 272.231 196.165 272.312 197.031 272.312C197.904 272.312 198.659 272.231 199.297 272.068C199.935 271.912 200.423 271.684 200.762 271.385C201.1 271.085 201.27 270.73 201.27 270.32C201.27 269.904 201.1 269.546 200.762 269.246C200.423 268.94 199.935 268.709 199.297 268.553C198.659 268.39 197.904 268.309 197.031 268.309ZM209.844 268.68H218.516V266.648H220.059V273.348H208.32V266.648H209.844V268.68ZM218.516 272.117V269.891H209.844V272.117H218.516ZM222.129 265.418H206.309V264.148H222.129V265.418ZM215.02 257.234C215.02 257.924 215.319 258.589 215.918 259.227C216.517 259.858 217.295 260.395 218.252 260.838C219.215 261.274 220.208 261.557 221.23 261.688L220.664 262.918C219.759 262.781 218.88 262.544 218.027 262.205C217.181 261.86 216.426 261.43 215.762 260.916C215.098 260.402 214.587 259.829 214.229 259.197C213.87 259.829 213.356 260.402 212.686 260.916C212.021 261.43 211.266 261.86 210.42 262.205C209.574 262.544 208.698 262.781 207.793 262.918L207.207 261.688C208.249 261.551 209.248 261.268 210.205 260.838C211.169 260.402 211.947 259.871 212.539 259.246C213.138 258.615 213.438 257.944 213.438 257.234V256.414H215.02V257.234ZM237.617 265.613H232.246V270.105H239.492V271.395H223.594V270.105H230.742V265.613H225.625V257.645H237.441V258.895H227.168V264.363H237.617V265.613ZM251.406 272.195C250.475 272.195 249.642 272.039 248.906 271.727C248.177 271.414 247.598 270.975 247.168 270.408C246.745 269.842 246.517 269.188 246.484 268.445H248.262C248.294 268.882 248.451 269.266 248.73 269.598C249.017 269.93 249.391 270.187 249.854 270.369C250.316 270.545 250.827 270.633 251.387 270.633C251.999 270.633 252.549 270.529 253.037 270.32C253.532 270.105 253.916 269.812 254.189 269.441C254.469 269.064 254.609 268.634 254.609 268.152C254.609 267.632 254.473 267.173 254.199 266.775C253.932 266.378 253.542 266.069 253.027 265.848C252.513 265.626 251.895 265.516 251.172 265.516H250.02V263.973H251.172C251.738 263.973 252.243 263.872 252.686 263.67C253.128 263.468 253.47 263.185 253.711 262.82C253.958 262.456 254.082 262.033 254.082 261.551C254.082 261.089 253.971 260.678 253.75 260.32C253.535 259.962 253.229 259.686 252.832 259.49C252.435 259.288 251.973 259.188 251.445 259.188C250.938 259.188 250.462 259.279 250.02 259.461C249.577 259.643 249.215 259.904 248.936 260.242C248.656 260.574 248.503 260.965 248.477 261.414H246.777C246.81 260.685 247.038 260.037 247.461 259.471C247.884 258.898 248.447 258.455 249.15 258.143C249.854 257.824 250.625 257.664 251.465 257.664C252.337 257.664 253.099 257.837 253.75 258.182C254.408 258.52 254.912 258.979 255.264 259.559C255.615 260.138 255.788 260.77 255.781 261.453C255.788 262.247 255.576 262.928 255.146 263.494C254.717 264.061 254.128 264.448 253.379 264.656V264.754C253.984 264.852 254.508 265.057 254.951 265.369C255.4 265.675 255.742 266.069 255.977 266.551C256.217 267.026 256.335 267.56 256.328 268.152C256.335 268.914 256.123 269.604 255.693 270.223C255.264 270.835 254.671 271.316 253.916 271.668C253.167 272.02 252.331 272.195 251.406 272.195ZM263.496 272.195C262.454 272.195 261.562 271.912 260.82 271.346C260.085 270.779 259.521 269.952 259.131 268.865C258.747 267.778 258.555 266.466 258.555 264.93C258.555 263.413 258.75 262.111 259.141 261.023C259.531 259.93 260.098 259.096 260.84 258.523C261.582 257.951 262.467 257.664 263.496 257.664C264.525 257.664 265.41 257.951 266.152 258.523C266.895 259.096 267.461 259.93 267.852 261.023C268.242 262.111 268.438 263.413 268.438 264.93C268.438 266.466 268.242 267.778 267.852 268.865C267.467 269.952 266.904 270.779 266.162 271.346C265.42 271.912 264.531 272.195 263.496 272.195ZM263.496 270.633C264.173 270.633 264.753 270.411 265.234 269.969C265.716 269.526 266.084 268.878 266.338 268.025C266.592 267.173 266.719 266.141 266.719 264.93C266.719 263.719 266.592 262.684 266.338 261.824C266.084 260.965 265.716 260.311 265.234 259.861C264.753 259.412 264.173 259.188 263.496 259.188C262.819 259.188 262.236 259.412 261.748 259.861C261.266 260.311 260.895 260.965 260.635 261.824C260.381 262.684 260.254 263.719 260.254 264.93C260.254 266.141 260.381 267.173 260.635 268.025C260.889 268.878 261.257 269.526 261.738 269.969C262.227 270.411 262.812 270.633 263.496 270.633ZM271.348 264.715C271.66 264.35 272.008 264.074 272.393 263.885C272.777 263.696 273.184 263.602 273.613 263.602C273.939 263.602 274.258 263.65 274.57 263.748C274.883 263.839 275.286 263.979 275.781 264.168C276.23 264.357 276.611 264.5 276.924 264.598C277.243 264.689 277.559 264.734 277.871 264.734C278.307 264.734 278.714 264.63 279.092 264.422C279.469 264.214 279.805 263.908 280.098 263.504V265.125C279.453 265.867 278.698 266.238 277.832 266.238C277.507 266.238 277.188 266.193 276.875 266.102C276.562 266.004 276.159 265.861 275.664 265.672C275.215 265.483 274.831 265.343 274.512 265.252C274.199 265.154 273.88 265.105 273.555 265.105C273.125 265.105 272.721 265.21 272.344 265.418C271.973 265.626 271.641 265.932 271.348 266.336V264.715ZM282.969 267.664L289.336 257.859H291.504V267.566H293.477V269.109H291.504V272H289.824V269.109H282.969V267.664ZM289.824 267.566V260.086H289.648L284.863 267.449V267.566H289.824ZM300.43 272.195C299.388 272.195 298.496 271.912 297.754 271.346C297.018 270.779 296.455 269.952 296.064 268.865C295.68 267.778 295.488 266.466 295.488 264.93C295.488 263.413 295.684 262.111 296.074 261.023C296.465 259.93 297.031 259.096 297.773 258.523C298.516 257.951 299.401 257.664 300.43 257.664C301.458 257.664 302.344 257.951 303.086 258.523C303.828 259.096 304.395 259.93 304.785 261.023C305.176 262.111 305.371 263.413 305.371 264.93C305.371 266.466 305.176 267.778 304.785 268.865C304.401 269.952 303.838 270.779 303.096 271.346C302.354 271.912 301.465 272.195 300.43 272.195ZM300.43 270.633C301.107 270.633 301.686 270.411 302.168 269.969C302.65 269.526 303.018 268.878 303.271 268.025C303.525 267.173 303.652 266.141 303.652 264.93C303.652 263.719 303.525 262.684 303.271 261.824C303.018 260.965 302.65 260.311 302.168 259.861C301.686 259.412 301.107 259.188 300.43 259.188C299.753 259.188 299.17 259.412 298.682 259.861C298.2 260.311 297.829 260.965 297.568 261.824C297.314 262.684 297.188 263.719 297.188 264.93C297.188 266.141 297.314 267.173 297.568 268.025C297.822 268.878 298.19 269.526 298.672 269.969C299.16 270.411 299.746 270.633 300.43 270.633ZM310.703 264.422C310.104 264.422 309.59 264.282 309.16 264.002C308.737 263.722 308.415 263.328 308.193 262.82C307.979 262.306 307.871 261.707 307.871 261.023C307.871 260.359 307.982 259.773 308.203 259.266C308.431 258.751 308.757 258.354 309.18 258.074C309.609 257.788 310.117 257.645 310.703 257.645C311.309 257.645 311.823 257.788 312.246 258.074C312.669 258.354 312.988 258.748 313.203 259.256C313.424 259.764 313.535 260.353 313.535 261.023C313.535 261.701 313.424 262.296 313.203 262.811C312.982 263.318 312.656 263.715 312.227 264.002C311.803 264.282 311.296 264.422 310.703 264.422ZM310.703 263.211C311.172 263.211 311.523 263.019 311.758 262.635C311.992 262.244 312.109 261.707 312.109 261.023C312.109 260.34 311.995 259.806 311.768 259.422C311.54 259.038 311.185 258.849 310.703 258.855C310.247 258.855 309.899 259.051 309.658 259.441C309.417 259.826 309.297 260.353 309.297 261.023C309.297 261.701 309.417 262.234 309.658 262.625C309.899 263.016 310.247 263.211 310.703 263.211ZM319.336 272.195C318.737 272.202 318.223 272.065 317.793 271.785C317.363 271.505 317.038 271.111 316.816 270.604C316.602 270.089 316.497 269.493 316.504 268.816C316.497 268.146 316.605 267.553 316.826 267.039C317.054 266.525 317.383 266.128 317.812 265.848C318.242 265.561 318.75 265.418 319.336 265.418C319.935 265.418 320.446 265.561 320.869 265.848C321.292 266.128 321.611 266.525 321.826 267.039C322.041 267.547 322.148 268.139 322.148 268.816C322.148 269.487 322.038 270.079 321.816 270.594C321.595 271.108 321.273 271.505 320.85 271.785C320.426 272.065 319.922 272.202 319.336 272.195ZM319.336 270.984C319.792 270.984 320.137 270.792 320.371 270.408C320.605 270.024 320.723 269.493 320.723 268.816C320.723 268.133 320.612 267.599 320.391 267.215C320.169 266.824 319.831 266.629 319.375 266.629C318.906 266.629 318.545 266.824 318.291 267.215C318.037 267.599 317.91 268.133 317.91 268.816C317.91 269.487 318.031 270.018 318.271 270.408C318.512 270.792 318.867 270.984 319.336 270.984ZM318.984 257.859H320.566L310.84 272H309.258L318.984 257.859ZM343.672 273.621H342.129V256.219H343.672V273.621ZM334.434 257.566C335.293 257.573 336.058 257.827 336.729 258.328C337.399 258.823 337.923 259.526 338.301 260.438C338.678 261.349 338.867 262.41 338.867 263.621C338.867 264.832 338.678 265.893 338.301 266.805C337.923 267.716 337.399 268.419 336.729 268.914C336.058 269.409 335.293 269.656 334.434 269.656C333.574 269.656 332.806 269.409 332.129 268.914C331.458 268.419 330.934 267.716 330.557 266.805C330.186 265.893 330 264.832 330 263.621C330 262.41 330.186 261.349 330.557 260.438C330.934 259.526 331.458 258.823 332.129 258.328C332.799 257.827 333.568 257.573 334.434 257.566ZM334.434 258.934C333.854 258.94 333.34 259.139 332.891 259.529C332.448 259.913 332.103 260.46 331.855 261.17C331.608 261.873 331.484 262.69 331.484 263.621C331.484 264.552 331.608 265.372 331.855 266.082C332.103 266.785 332.451 267.329 332.9 267.713C333.35 268.097 333.861 268.289 334.434 268.289C335.007 268.289 335.518 268.097 335.967 267.713C336.416 267.329 336.764 266.785 337.012 266.082C337.259 265.372 337.383 264.552 337.383 263.621C337.383 262.69 337.259 261.873 337.012 261.17C336.764 260.46 336.416 259.913 335.967 259.529C335.524 259.139 335.013 258.94 334.434 258.934ZM360.078 263.387H362.988V264.656H360.078V273.582H358.555V256.219H360.078V263.387ZM356.875 260.281H346.543V259.012H351.016V256.434H352.539V259.012H356.875V260.281ZM351.797 261.727C352.611 261.727 353.34 261.896 353.984 262.234C354.629 262.573 355.133 263.045 355.498 263.65C355.863 264.256 356.048 264.943 356.055 265.711C356.048 266.479 355.863 267.166 355.498 267.771C355.133 268.377 354.629 268.849 353.984 269.188C353.34 269.526 352.611 269.695 351.797 269.695C350.977 269.695 350.241 269.526 349.59 269.188C348.945 268.849 348.441 268.377 348.076 267.771C347.712 267.166 347.533 266.479 347.539 265.711C347.533 264.943 347.712 264.256 348.076 263.65C348.441 263.045 348.945 262.573 349.59 262.234C350.241 261.896 350.977 261.727 351.797 261.727ZM351.797 263.016C351.263 263.016 350.781 263.133 350.352 263.367C349.928 263.595 349.596 263.914 349.355 264.324C349.115 264.734 348.997 265.197 349.004 265.711C348.997 266.232 349.115 266.697 349.355 267.107C349.596 267.511 349.928 267.827 350.352 268.055C350.781 268.283 351.263 268.393 351.797 268.387C352.324 268.393 352.799 268.283 353.223 268.055C353.646 267.827 353.978 267.511 354.219 267.107C354.46 266.697 354.583 266.232 354.59 265.711C354.583 265.197 354.46 264.734 354.219 264.324C353.978 263.914 353.646 263.595 353.223 263.367C352.799 263.133 352.324 263.016 351.797 263.016ZM368.848 256.863C369.707 256.87 370.475 257.036 371.152 257.361C371.836 257.687 372.37 258.143 372.754 258.729C373.145 259.308 373.34 259.969 373.34 260.711C373.34 261.453 373.145 262.117 372.754 262.703C372.37 263.283 371.836 263.735 371.152 264.061C370.475 264.38 369.707 264.539 368.848 264.539C367.975 264.539 367.197 264.38 366.514 264.061C365.83 263.735 365.296 263.283 364.912 262.703C364.528 262.117 364.336 261.453 364.336 260.711C364.336 259.969 364.528 259.308 364.912 258.729C365.296 258.143 365.83 257.687 366.514 257.361C367.197 257.036 367.975 256.87 368.848 256.863ZM368.848 258.152C368.275 258.152 367.757 258.263 367.295 258.484C366.839 258.699 366.481 259.002 366.221 259.393C365.96 259.777 365.833 260.216 365.84 260.711C365.833 261.212 365.96 261.658 366.221 262.049C366.481 262.439 366.839 262.745 367.295 262.967C367.757 263.182 368.275 263.289 368.848 263.289C369.414 263.289 369.925 263.182 370.381 262.967C370.843 262.745 371.204 262.439 371.465 262.049C371.725 261.658 371.855 261.212 371.855 260.711C371.855 260.216 371.725 259.777 371.465 259.393C371.204 259.002 370.843 258.699 370.381 258.484C369.925 258.263 369.414 258.152 368.848 258.152ZM378.262 265.145H376.738V256.219H378.262V265.145ZM378.262 270.164H368.516V272.117H378.887V273.348H367.012V269.012H376.738V267.215H366.973V265.984H378.262V270.164ZM397.734 263.328H399.844V256.219H401.309V273.582H399.844V264.598H397.734V272.723H396.309V256.609H397.734V263.328ZM390.527 259.695H388.184V267.752C389.062 267.713 389.883 267.599 390.645 267.41L390.781 268.719C390.143 268.862 389.567 268.953 389.053 268.992C388.538 269.031 388.001 269.051 387.441 269.051H386.758V258.426H390.527V259.695ZM395.137 259.695H392.676V267.752C393.724 267.726 394.668 267.592 395.508 267.352L395.645 268.66C395.007 268.829 394.414 268.937 393.867 268.982C393.327 269.028 392.702 269.051 391.992 269.051H391.289V258.426H395.137V259.695Z" fill="#8A88FF"/>
<path d="M56.9297 216.242H49.3828V207.055H56.6719V208.555H51.2344V214.742H56.9297V216.242ZM58.4531 223.227H39.375V221.703H47.9297V217.297H49.7344V221.703H58.4531V223.227ZM48.1172 208.578H42.8672V214.719C43.8125 214.711 44.7227 214.664 45.5977 214.578C46.4805 214.484 47.3828 214.336 48.3047 214.133L48.4688 215.68C47.5234 215.898 46.6055 216.047 45.7148 216.125C44.832 216.203 43.875 216.242 42.8438 216.242H42.1875H41.0391V207.055H48.1172V208.578ZM76.4062 211.953H79.5469V213.5H76.4062V220.695H74.5781V205.086H76.4062V211.953ZM72.5859 209.141H60.1641V207.641H65.4609V205.086H67.2891V207.641H72.5859V209.141ZM66.375 210.289C67.3594 210.289 68.2266 210.449 68.9766 210.77C69.7344 211.09 70.3242 211.543 70.7461 212.129C71.168 212.715 71.3828 213.398 71.3906 214.18C71.3828 214.953 71.168 215.629 70.7461 216.207C70.3242 216.785 69.7344 217.234 68.9766 217.555C68.2266 217.867 67.3594 218.023 66.375 218.023C65.3828 218.023 64.5039 217.867 63.7383 217.555C62.9805 217.234 62.3906 216.785 61.9688 216.207C61.5547 215.629 61.3516 214.953 61.3594 214.18C61.3516 213.398 61.5547 212.715 61.9688 212.129C62.3906 211.543 62.9805 211.09 63.7383 210.77C64.5039 210.449 65.3828 210.289 66.375 210.289ZM66.375 211.742C65.7266 211.742 65.1523 211.844 64.6523 212.047C64.1602 212.242 63.7773 212.527 63.5039 212.902C63.2383 213.27 63.1094 213.695 63.1172 214.18C63.1094 214.664 63.2383 215.09 63.5039 215.457C63.7773 215.816 64.1602 216.094 64.6523 216.289C65.1523 216.484 65.7266 216.578 66.375 216.57C67.0156 216.578 67.582 216.484 68.0742 216.289C68.5742 216.094 68.9609 215.816 69.2344 215.457C69.5078 215.09 69.6484 214.664 69.6562 214.18C69.6484 213.695 69.5078 213.27 69.2344 212.902C68.9609 212.527 68.5742 212.242 68.0742 212.047C67.582 211.844 67.0156 211.742 66.375 211.742ZM77.3672 225.453H63.375V219.453H65.1797V223.906H77.3672V225.453ZM82.4531 228.805H80.7188L82.0078 222.43H84.2812L82.4531 228.805ZM105.117 208.391H100.875C100.883 209.258 101.062 210.098 101.414 210.91C101.773 211.723 102.316 212.453 103.043 213.102C103.777 213.742 104.688 214.242 105.773 214.602L104.297 216.898C103.148 216.531 102.16 215.984 101.332 215.258C100.512 214.531 99.8633 213.672 99.3867 212.68C98.8945 213.789 98.2148 214.746 97.3477 215.551C96.4805 216.355 95.4375 216.953 94.2188 217.344L92.6953 214.977C93.8203 214.617 94.7656 214.094 95.5312 213.406C96.2969 212.719 96.8672 211.941 97.2422 211.074C97.6172 210.207 97.8125 209.312 97.8281 208.391H93.5391V206.023H105.117V208.391ZM110.789 226.156H107.812V220.859H96.1406V218.469H110.789V226.156ZM110.789 217.531H107.812V212.398H104.508V209.961H107.812V204.828H110.789V217.531ZM130.523 209.891H133.359V212.328H130.523V217.18H127.477V204.828H130.523V209.891ZM123.492 217.555C124.945 217.555 126.215 217.727 127.301 218.07C128.387 218.406 129.223 218.895 129.809 219.535C130.395 220.176 130.688 220.938 130.688 221.82C130.688 222.727 130.395 223.504 129.809 224.152C129.223 224.801 128.387 225.297 127.301 225.641C126.223 225.984 124.953 226.156 123.492 226.156C122 226.156 120.703 225.984 119.602 225.641C118.508 225.297 117.664 224.801 117.07 224.152C116.477 223.504 116.18 222.727 116.18 221.82C116.18 220.938 116.477 220.176 117.07 219.535C117.664 218.895 118.512 218.406 119.613 218.07C120.715 217.727 122.008 217.555 123.492 217.555ZM123.492 219.922C122.078 219.922 120.996 220.086 120.246 220.414C119.496 220.734 119.125 221.203 119.133 221.82C119.125 222.461 119.496 222.949 120.246 223.285C120.996 223.621 122.078 223.789 123.492 223.789C124.852 223.789 125.906 223.621 126.656 223.285C127.406 222.949 127.781 222.461 127.781 221.82C127.781 221.203 127.406 220.734 126.656 220.414C125.906 220.086 124.852 219.922 123.492 219.922ZM123.891 208.648H117.281V213.617C119.359 213.602 121.008 213.551 122.227 213.465C123.453 213.379 124.641 213.211 125.789 212.961L126.047 215.352C124.82 215.625 123.516 215.805 122.133 215.891C120.758 215.969 118.742 216.016 116.086 216.031H114.305V206.258H123.891V208.648ZM152.156 226.156H149.133V204.828H152.156V226.156ZM147.492 210.43H134.742V208.039H139.594V205.109H142.641V208.039H147.492V210.43ZM141.164 211.602C142.203 211.602 143.137 211.82 143.965 212.258C144.801 212.688 145.457 213.289 145.934 214.062C146.41 214.836 146.648 215.711 146.648 216.688C146.648 217.664 146.41 218.539 145.934 219.312C145.457 220.086 144.801 220.691 143.965 221.129C143.137 221.559 142.203 221.773 141.164 221.773C140.117 221.773 139.176 221.559 138.34 221.129C137.504 220.691 136.848 220.086 136.371 219.312C135.895 218.539 135.656 217.664 135.656 216.688C135.656 215.711 135.895 214.836 136.371 214.062C136.848 213.289 137.504 212.688 138.34 212.258C139.176 211.82 140.117 211.602 141.164 211.602ZM141.164 214.016C140.641 214.023 140.18 214.137 139.781 214.355C139.383 214.574 139.07 214.883 138.844 215.281C138.625 215.68 138.516 216.148 138.516 216.688C138.516 217.234 138.625 217.707 138.844 218.105C139.07 218.504 139.383 218.809 139.781 219.02C140.18 219.223 140.641 219.32 141.164 219.312C141.68 219.32 142.133 219.223 142.523 219.02C142.922 218.809 143.23 218.504 143.449 218.105C143.676 217.707 143.789 217.234 143.789 216.688C143.789 216.148 143.676 215.68 143.449 215.281C143.23 214.883 142.922 214.574 142.523 214.355C142.133 214.137 141.68 214.023 141.164 214.016ZM180.023 218.234H160.57V215.867H168.797V213.664H171.75V215.867H180.023V218.234ZM177.656 226.156H174.68V222.031H162.727V219.664H177.656V226.156ZM171.75 206.75H178.148V209.117H171.984C172.094 209.664 172.422 210.168 172.969 210.629C173.523 211.082 174.316 211.465 175.348 211.777C176.387 212.082 177.656 212.281 179.156 212.375L178.242 214.648C176.312 214.508 174.672 214.168 173.32 213.629C171.969 213.082 170.953 212.371 170.273 211.496C169.586 212.371 168.566 213.082 167.215 213.629C165.863 214.168 164.227 214.508 162.305 214.648L161.391 212.375C162.883 212.281 164.145 212.082 165.176 211.777C166.215 211.465 167.008 211.082 167.555 210.629C168.109 210.168 168.445 209.664 168.562 209.117H162.445V206.75H168.797V204.852H171.75V206.75ZM200.766 218.234H181.312V215.867H189.539V213.664H192.492V215.867H200.766V218.234ZM198.398 226.156H195.422V222.031H183.469V219.664H198.398V226.156ZM192.492 206.75H198.891V209.117H192.727C192.836 209.664 193.164 210.168 193.711 210.629C194.266 211.082 195.059 211.465 196.09 211.777C197.129 212.082 198.398 212.281 199.898 212.375L198.984 214.648C197.055 214.508 195.414 214.168 194.062 213.629C192.711 213.082 191.695 212.371 191.016 211.496C190.328 212.371 189.309 213.082 187.957 213.629C186.605 214.168 184.969 214.508 183.047 214.648L182.133 212.375C183.625 212.281 184.887 212.082 185.918 211.777C186.957 211.465 187.75 211.082 188.297 210.629C188.852 210.168 189.188 209.664 189.305 209.117H183.188V206.75H189.539V204.852H192.492V206.75ZM218.977 211.391H221.859V213.828H218.977V220.766H215.977V204.852H218.977V211.391ZM214.711 209.445H202.055V207.078H206.906V204.805H209.883V207.078H214.711V209.445ZM208.383 210.195C209.406 210.195 210.312 210.367 211.102 210.711C211.898 211.055 212.52 211.539 212.965 212.164C213.41 212.789 213.633 213.508 213.633 214.32C213.633 215.133 213.41 215.848 212.965 216.465C212.527 217.074 211.91 217.551 211.113 217.895C210.316 218.23 209.406 218.398 208.383 218.398C207.352 218.398 206.434 218.23 205.629 217.895C204.832 217.551 204.207 217.074 203.754 216.465C203.309 215.848 203.086 215.133 203.086 214.32C203.086 213.508 203.309 212.789 203.754 212.164C204.207 211.539 204.832 211.055 205.629 210.711C206.434 210.367 207.352 210.195 208.383 210.195ZM208.383 212.469C207.656 212.484 207.078 212.652 206.648 212.973C206.219 213.293 206.008 213.742 206.016 214.32C206.008 214.898 206.215 215.344 206.637 215.656C207.066 215.969 207.648 216.125 208.383 216.125C209.117 216.125 209.703 215.969 210.141 215.656C210.578 215.336 210.797 214.891 210.797 214.32C210.797 213.742 210.578 213.293 210.141 212.973C209.703 212.652 209.117 212.484 208.383 212.469ZM219.75 225.781H205.148V219.547H208.125V223.391H219.75V225.781ZM245.391 211.836H248.109V214.297H245.391V221.469H242.391V204.828H245.391V211.836ZM246.117 225.781H231.094V220.367H234.094V223.391H246.117V225.781ZM228.094 217.086C230.055 217.086 231.781 217.062 233.273 217.016V215.785C232.102 215.621 231.18 215.262 230.508 214.707C229.844 214.152 229.516 213.461 229.523 212.633C229.516 211.938 229.727 211.34 230.156 210.84C230.586 210.332 231.195 209.949 231.984 209.691C232.773 209.426 233.695 209.297 234.75 209.305C235.797 209.297 236.711 209.426 237.492 209.691C238.273 209.949 238.879 210.332 239.309 210.84C239.746 211.34 239.969 211.938 239.977 212.633C239.969 213.453 239.633 214.141 238.969 214.695C238.305 215.25 237.398 215.613 236.25 215.785V216.875C238.156 216.758 239.875 216.586 241.406 216.359L241.617 218.422C240.234 218.688 238.781 218.891 237.258 219.031C235.734 219.164 234.328 219.25 233.039 219.289C231.75 219.328 230.203 219.359 228.398 219.383L228.094 217.086ZM240.867 208.695H228.656V206.562H233.273V204.758H236.25V206.562H240.867V208.695ZM234.75 211.297C233.977 211.297 233.387 211.41 232.98 211.637C232.574 211.855 232.375 212.188 232.383 212.633C232.375 213.031 232.574 213.34 232.98 213.559C233.395 213.77 233.984 213.875 234.75 213.875C235.5 213.875 236.078 213.77 236.484 213.559C236.891 213.34 237.102 213.031 237.117 212.633C237.094 211.742 236.305 211.297 234.75 211.297ZM267.047 217.133H264.07V215.047H259.266V212.656H264.07V210.617H259.477C258.156 213.984 255.141 216.312 250.43 217.602L249.258 215.234C251.648 214.609 253.48 213.738 254.754 212.621C256.027 211.496 256.773 210.18 256.992 208.672H250.406V206.281H260.25C260.25 207 260.199 207.664 260.098 208.273H264.07V204.852H267.047V217.133ZM259.945 217.391C261.383 217.391 262.648 217.566 263.742 217.918C264.836 218.27 265.684 218.77 266.285 219.418C266.895 220.066 267.203 220.828 267.211 221.703C267.203 222.586 266.895 223.355 266.285 224.012C265.684 224.668 264.836 225.172 263.742 225.523C262.648 225.883 261.383 226.062 259.945 226.062C258.492 226.062 257.215 225.883 256.113 225.523C255.012 225.172 254.156 224.668 253.547 224.012C252.945 223.355 252.648 222.586 252.656 221.703C252.648 220.828 252.945 220.066 253.547 219.418C254.156 218.77 255.012 218.27 256.113 217.918C257.215 217.566 258.492 217.391 259.945 217.391ZM259.945 219.734C258.586 219.719 257.527 219.883 256.77 220.227C256.012 220.562 255.633 221.055 255.633 221.703C255.633 222.352 256.008 222.848 256.758 223.191C257.516 223.527 258.578 223.695 259.945 223.695C261.289 223.695 262.336 223.527 263.086 223.191C263.836 222.848 264.211 222.352 264.211 221.703C264.211 221.055 263.836 220.562 263.086 220.227C262.336 219.883 261.289 219.719 259.945 219.734ZM288.305 226.156H285.445V204.828H288.305V226.156ZM283.852 225.172H281.039V215.094H279.316C279.23 216.484 278.98 217.684 278.566 218.691C278.16 219.699 277.621 220.473 276.949 221.012C276.277 221.551 275.508 221.82 274.641 221.82C273.711 221.82 272.895 221.508 272.191 220.883C271.496 220.258 270.957 219.363 270.574 218.199C270.191 217.027 270 215.648 270 214.062C270 212.484 270.191 211.117 270.574 209.961C270.957 208.797 271.496 207.906 272.191 207.289C272.895 206.664 273.711 206.352 274.641 206.352C275.492 206.352 276.246 206.605 276.902 207.113C277.566 207.621 278.102 208.355 278.508 209.316C278.922 210.27 279.184 211.406 279.293 212.727H281.039V205.133H283.852V225.172ZM274.641 209.164C274.031 209.164 273.562 209.578 273.234 210.406C272.914 211.234 272.758 212.453 272.766 214.062C272.758 215.68 272.914 216.902 273.234 217.73C273.562 218.551 274.031 218.953 274.641 218.938C275.258 218.953 275.734 218.551 276.07 217.73C276.414 216.902 276.586 215.68 276.586 214.062C276.586 212.453 276.414 211.234 276.07 210.406C275.734 209.578 275.258 209.164 274.641 209.164ZM298.617 209.656C298.617 211.031 298.805 212.344 299.18 213.594C299.562 214.836 300.141 215.941 300.914 216.91C301.688 217.871 302.648 218.602 303.797 219.102L301.969 221.492C300.82 220.93 299.84 220.145 299.027 219.137C298.223 218.121 297.59 216.938 297.129 215.586C296.652 217.031 295.992 218.293 295.148 219.371C294.312 220.449 293.305 221.281 292.125 221.867L290.25 219.43C291.422 218.906 292.406 218.137 293.203 217.121C294 216.105 294.594 214.953 294.984 213.664C295.383 212.375 295.586 211.039 295.594 209.656V206.469H298.617V209.656ZM308.555 226.203H305.602V213.945H301.406V211.531H305.602V204.828H308.555V226.203ZM328.898 208.18H324.68C324.742 208.906 324.965 209.602 325.348 210.266C325.738 210.93 326.297 211.523 327.023 212.047C327.75 212.57 328.633 212.977 329.672 213.266L328.266 215.562C327.086 215.242 326.07 214.754 325.219 214.098C324.367 213.441 323.695 212.656 323.203 211.742C322.711 212.773 322.02 213.66 321.129 214.402C320.246 215.137 319.172 215.68 317.906 216.031L316.453 213.711C317.531 213.398 318.445 212.957 319.195 212.387C319.945 211.816 320.52 211.172 320.918 210.453C321.316 209.727 321.547 208.969 321.609 208.18H317.273V205.836H328.898V208.18ZM333.75 209.047H336.633V211.438H333.75V215.773H330.75V204.828H333.75V209.047ZM333.75 222.219H322.57V223.672H334.359V225.945H319.641V220.109H330.773V218.844H319.594V216.594H333.75V222.219ZM350.977 210.641C350.969 211.758 351.16 212.879 351.551 214.004C351.949 215.129 352.543 216.16 353.332 217.098C354.121 218.027 355.078 218.75 356.203 219.266L354.539 221.609C353.383 221.078 352.379 220.309 351.527 219.301C350.676 218.285 350.004 217.113 349.512 215.785C349.02 217.246 348.332 218.531 347.449 219.641C346.574 220.75 345.539 221.586 344.344 222.148L342.609 219.781C343.75 219.25 344.723 218.496 345.527 217.52C346.332 216.535 346.938 215.445 347.344 214.25C347.758 213.055 347.969 211.852 347.977 210.641V209.328H343.453V206.891H355.266V209.328H350.977V210.641ZM359.93 212.961H363.07V215.469H359.93V226.156H356.93V204.828H359.93V212.961ZM380.672 212.891H383.812V215.352H380.672V226.203H377.719V204.828H380.672V212.891ZM374.578 214.883H367.711V218.75C369.359 218.742 370.852 218.691 372.188 218.598C373.523 218.504 374.867 218.344 376.219 218.117L376.477 220.508C374.93 220.789 373.391 220.98 371.859 221.082C370.328 221.184 368.555 221.234 366.539 221.234H364.734V212.516H371.602V209.023H364.711V206.609H374.578V214.883ZM404.109 223.672H384.586V221.211H388.945V215.996C388.102 215.488 387.449 214.863 386.988 214.121C386.527 213.371 386.297 212.531 386.297 211.602C386.297 210.469 386.641 209.469 387.328 208.602C388.016 207.734 388.965 207.062 390.176 206.586C391.395 206.102 392.773 205.859 394.312 205.859C395.844 205.859 397.215 206.102 398.426 206.586C399.645 207.062 400.602 207.734 401.297 208.602C401.992 209.469 402.344 210.469 402.352 211.602C402.344 212.508 402.113 213.332 401.66 214.074C401.215 214.809 400.586 215.43 399.773 215.938V221.211H404.109V223.672ZM394.312 208.227C393.297 208.227 392.406 208.359 391.641 208.625C390.883 208.891 390.293 209.277 389.871 209.785C389.457 210.285 389.25 210.891 389.25 211.602C389.25 212.289 389.457 212.887 389.871 213.395C390.293 213.902 390.887 214.293 391.652 214.566C392.418 214.84 393.305 214.977 394.312 214.977C395.312 214.977 396.195 214.84 396.961 214.566C397.727 214.293 398.32 213.902 398.742 213.395C399.172 212.887 399.391 212.289 399.398 211.602C399.391 210.898 399.176 210.293 398.754 209.785C398.332 209.277 397.738 208.891 396.973 208.625C396.207 208.359 395.32 208.227 394.312 208.227ZM396.75 221.211V217.074C395.945 217.223 395.133 217.297 394.312 217.297C393.438 217.297 392.633 217.223 391.898 217.074V221.211H396.75ZM408.094 224.211C407.734 224.211 407.402 224.121 407.098 223.941C406.793 223.762 406.551 223.523 406.371 223.227C406.199 222.922 406.117 222.594 406.125 222.242C406.117 221.891 406.199 221.566 406.371 221.27C406.551 220.973 406.793 220.738 407.098 220.566C407.402 220.387 407.734 220.297 408.094 220.297C408.43 220.297 408.746 220.387 409.043 220.566C409.348 220.738 409.59 220.973 409.77 221.27C409.949 221.566 410.039 221.891 410.039 222.242C410.039 222.594 409.949 222.922 409.77 223.227C409.59 223.523 409.348 223.762 409.043 223.941C408.746 224.121 408.43 224.211 408.094 224.211Z" fill="black"/>
<mask id="mask0_212_410" style="mask-type:luminance" maskUnits="userSpaceOnUse" x="37" y="31" width="20" height="20">
<path d="M57 31H37V51H57V31Z" fill="white"/>
</mask>
<g mask="url(#mask0_212_410)">
<path fill-rule="evenodd" clip-rule="evenodd" d="M37 31C39.7614 31 42 33.2386 42 36C39.2386 36 37 33.7614 37 31ZM47 31C44.2386 31 42 33.2386 42 36C39.2386 36 37 38.2386 37 41C37 43.7614 39.2386 46 42 46C39.2386 46 37 48.2386 37 51C39.7614 51 42 48.7614 42 46C42 48.7614 44.2386 51 47 51C49.7614 51 52 48.7614 52 46C52 48.7614 54.2386 51 57 51C57 48.2386 54.7614 46 52 46C54.7614 46 57 43.7614 57 41C57 38.2386 54.7614 36 52 36C54.7614 36 57 33.7614 57 31C54.2386 31 52 33.2386 52 36C52 33.2386 49.7614 31 47 31ZM52 46C52 43.2386 49.7614 41 47 41C47 43.7614 49.2386 46 52 46ZM47 41C49.7614 41 52 38.7614 52 36C52 38.7614 54.2386 41 57 41C54.2386 41 52 43.2386 52 46C49.2386 46 47 48.2386 47 51C47 48.2386 44.7614 46 42 46C44.7614 46 47 43.7614 47 41ZM47 41C44.2386 41 42 43.2386 42 46C42 43.2386 39.7614 41 37 41C39.7614 41 42 38.7614 42 36C42 38.7614 44.2386 41 47 41ZM47 41C47 38.2386 49.2386 36 52 36C49.2386 36 47 33.7614 47 31C47 33.7614 44.7614 36 42 36C44.7614 36 47 38.2386 47 41Z" fill="url(#paint0_linear_212_410)"/>
</g>
<path d="M78.0254 35.9492H73.748V38.7812H77.3223V40.6758H73.748V43.8691C74.7116 43.8561 75.5742 43.8203 76.3359 43.7617C77.1042 43.7031 77.8952 43.6055 78.709 43.4688L78.9238 45.4805C77.9928 45.6497 77.0814 45.7572 76.1895 45.8027C75.304 45.8483 74.0996 45.8711 72.5762 45.8711H71.3848V33.9961H78.0254V35.9492ZM86.248 49.7969H83.8457V32.0234H86.248V49.7969ZM82.4785 48.9961H80.1543V40.5H78.1621V38.5078H80.1543V32.3359H82.4785V48.9961ZM103.006 49.8359H100.486V32.0234H103.006V49.8359ZM93.3574 33.2734C94.2493 33.2734 95.0469 33.5339 95.75 34.0547C96.4596 34.5755 97.0163 35.3145 97.4199 36.2715C97.8236 37.2285 98.0254 38.3385 98.0254 39.6016C98.0254 40.8776 97.8236 41.9974 97.4199 42.9609C97.0163 43.918 96.4596 44.6569 95.75 45.1777C95.0469 45.6921 94.2493 45.9492 93.3574 45.9492C92.446 45.9492 91.6322 45.6921 90.916 45.1777C90.1999 44.6569 89.64 43.918 89.2363 42.9609C88.8392 41.9974 88.6439 40.8776 88.6504 39.6016C88.6439 38.3385 88.8392 37.2285 89.2363 36.2715C89.64 35.3145 90.1999 34.5755 90.916 34.0547C91.6322 33.5339 92.446 33.2734 93.3574 33.2734ZM93.3574 35.5195C92.8952 35.5195 92.4883 35.679 92.1367 35.998C91.7917 36.3105 91.5247 36.7728 91.3359 37.3848C91.1471 37.9967 91.0527 38.7357 91.0527 39.6016C91.0527 40.474 91.1471 41.2161 91.3359 41.8281C91.5247 42.4401 91.7917 42.9023 92.1367 43.2148C92.4883 43.5273 92.8952 43.6836 93.3574 43.6836C93.8132 43.6836 94.2103 43.5273 94.5488 43.2148C94.8874 42.8958 95.151 42.4303 95.3398 41.8184C95.5286 41.2064 95.623 40.4674 95.623 39.6016C95.623 38.7422 95.5286 38.0065 95.3398 37.3945C95.151 36.776 94.8841 36.3105 94.5391 35.998C94.2005 35.679 93.8066 35.5195 93.3574 35.5195ZM109.939 33.5664H117.068V32.3164H119.549V38.293H107.479V32.3164H109.939V33.5664ZM117.068 36.4375V35.3633H109.939V36.4375H117.068ZM121.619 41.2031H105.408V39.2695H121.619V41.2031ZM119.646 46.75H109.744V47.8047H120.115V49.6797H107.303V45.0117H117.186V44.0742H107.283V42.2578H119.646V46.75ZM127.479 33.2734C128.377 33.2734 129.181 33.5339 129.891 34.0547C130.6 34.569 131.154 35.3047 131.551 36.2617C131.954 37.2188 132.16 38.332 132.166 39.6016C132.16 40.8776 131.954 41.9974 131.551 42.9609C131.154 43.918 130.6 44.6569 129.891 45.1777C129.188 45.6921 128.383 45.9492 127.479 45.9492C126.574 45.9492 125.763 45.6921 125.047 45.1777C124.337 44.6569 123.781 43.918 123.377 42.9609C122.98 41.9974 122.785 40.8776 122.791 39.6016C122.785 38.3385 122.98 37.2285 123.377 36.2715C123.781 35.3145 124.337 34.5755 125.047 34.0547C125.763 33.5339 126.574 33.2734 127.479 33.2734ZM127.479 35.5195C127.023 35.5195 126.622 35.679 126.277 35.998C125.932 36.3105 125.665 36.7728 125.477 37.3848C125.288 37.9967 125.193 38.7357 125.193 39.6016C125.193 40.4674 125.288 41.2096 125.477 41.8281C125.665 42.4401 125.932 42.9023 126.277 43.2148C126.622 43.5273 127.023 43.6836 127.479 43.6836C127.941 43.6836 128.344 43.5273 128.689 43.2148C129.035 42.9023 129.301 42.4401 129.49 41.8281C129.679 41.2161 129.777 40.474 129.783 39.6016C129.777 38.7357 129.679 37.9967 129.49 37.3848C129.301 36.7728 129.035 36.3105 128.689 35.998C128.344 35.679 127.941 35.5195 127.479 35.5195ZM139.236 38.2344H136.717V41.3984H139.236V43.4297H136.717V49.7969H134.217V32.0234H136.717V36.1445H139.236V38.2344ZM146.541 36.8672C146.535 37.7982 146.694 38.7324 147.02 39.6699C147.352 40.6074 147.846 41.4668 148.504 42.248C149.161 43.0228 149.959 43.625 150.896 44.0547L149.51 46.0078C148.546 45.5651 147.71 44.9238 147 44.084C146.29 43.2376 145.73 42.2611 145.32 41.1543C144.91 42.3717 144.337 43.4427 143.602 44.3672C142.872 45.2917 142.01 45.9883 141.014 46.457L139.568 44.4844C140.519 44.0417 141.329 43.4134 142 42.5996C142.671 41.7793 143.175 40.8711 143.514 39.875C143.859 38.8789 144.035 37.8763 144.041 36.8672V35.7734H140.271V33.7422H150.115V35.7734H146.541V36.8672ZM154.002 38.8008H156.619V40.8906H154.002V49.7969H151.502V32.0234H154.002V38.8008ZM162.908 33.8594H167.713C168.781 33.8594 169.676 34.0547 170.398 34.4453C171.121 34.8359 171.658 35.3698 172.01 36.0469C172.361 36.7174 172.537 37.4857 172.537 38.3516C172.537 39.2109 172.361 39.9824 172.01 40.666C171.658 41.3431 171.121 41.8802 170.398 42.2773C169.682 42.668 168.794 42.8633 167.732 42.8633H164.666V48H162.908V33.8594ZM167.654 41.3008C168.722 41.3008 169.513 41.0339 170.027 40.5C170.542 39.9596 170.799 39.2435 170.799 38.3516C170.799 37.4531 170.542 36.7402 170.027 36.2129C169.513 35.6855 168.715 35.4219 167.635 35.4219H164.666V41.3008H167.654ZM174.256 44.9922C174.256 43.8919 174.63 43.1172 175.379 42.668C176.134 42.2188 177.088 41.9518 178.24 41.8672C178.683 41.8346 179.178 41.8053 179.725 41.7793C180.278 41.7467 180.74 41.724 181.111 41.7109V40.8516C181.111 40.168 180.906 39.6439 180.496 39.2793C180.092 38.9082 179.497 38.7227 178.709 38.7227C178.064 38.7227 177.537 38.8561 177.127 39.123C176.717 39.3835 176.45 39.7253 176.326 40.1484H174.568C174.64 39.582 174.861 39.0807 175.232 38.6445C175.604 38.2083 176.095 37.8698 176.707 37.6289C177.326 37.3815 178.019 37.2578 178.787 37.2578C179.803 37.2578 180.721 37.5182 181.541 38.0391C182.361 38.5534 182.771 39.543 182.771 41.0078V48H181.111V46.5547H181.033C180.903 46.8281 180.701 47.0951 180.428 47.3555C180.161 47.6094 179.809 47.8242 179.373 48C178.943 48.1693 178.442 48.2539 177.869 48.2539C177.192 48.2539 176.58 48.1237 176.033 47.8633C175.486 47.6029 175.053 47.2285 174.734 46.7402C174.415 46.2454 174.256 45.6628 174.256 44.9922ZM175.936 45.0703C175.936 45.6107 176.137 46.0273 176.541 46.3203C176.951 46.6068 177.492 46.75 178.162 46.75C178.768 46.75 179.292 46.6296 179.734 46.3887C180.184 46.1478 180.525 45.8288 180.76 45.4316C180.994 45.0345 181.111 44.6081 181.111 44.1523V43.0879L178.436 43.2734C177.641 43.3255 177.026 43.498 176.59 43.791C176.154 44.084 175.936 44.5104 175.936 45.0703ZM185.467 37.3945H187.088V39.0156H187.205C187.4 38.4753 187.749 38.0423 188.25 37.7168C188.751 37.3848 189.314 37.2188 189.939 37.2188C190.265 37.2188 190.558 37.2318 190.818 37.2578V38.957C190.747 38.931 190.607 38.9049 190.398 38.8789C190.197 38.8529 189.998 38.8398 189.803 38.8398C189.301 38.8398 188.849 38.9473 188.445 39.1621C188.042 39.377 187.723 39.6732 187.488 40.0508C187.26 40.4284 187.146 40.8516 187.146 41.3203V48H185.467V37.3945ZM194.139 48H192.459V33.8594H194.139V48ZM201.15 48.2148C200.193 48.2148 199.347 47.9902 198.611 47.541C197.882 47.0853 197.316 46.444 196.912 45.6172C196.508 44.7904 196.307 43.8333 196.307 42.7461C196.307 41.6589 196.508 40.7018 196.912 39.875C197.316 39.0417 197.882 38.3971 198.611 37.9414C199.347 37.4857 200.193 37.2578 201.15 37.2578C202.101 37.2578 202.938 37.4857 203.66 37.9414C204.389 38.3971 204.952 39.0417 205.35 39.875C205.753 40.7018 205.955 41.6589 205.955 42.7461C205.955 43.8333 205.753 44.7904 205.35 45.6172C204.952 46.444 204.389 47.0853 203.66 47.541C202.938 47.9902 202.101 48.2148 201.15 48.2148ZM201.15 46.7305C201.834 46.7305 202.41 46.5514 202.879 46.1934C203.348 45.8288 203.696 45.347 203.924 44.748C204.158 44.1426 204.275 43.4753 204.275 42.7461C204.275 42.0169 204.158 41.3496 203.924 40.7441C203.696 40.1387 203.348 39.6536 202.879 39.2891C202.41 38.9245 201.834 38.7422 201.15 38.7422C200.454 38.7422 199.868 38.9245 199.393 39.2891C198.924 39.6536 198.572 40.1387 198.338 40.7441C198.104 41.3496 197.986 42.0169 197.986 42.7461C197.986 43.4753 198.104 44.1426 198.338 44.748C198.572 45.347 198.924 45.8288 199.393 46.1934C199.868 46.5514 200.454 46.7305 201.15 46.7305ZM214.861 37.3945H216.521V48H214.861V46.2031H214.744C214.471 46.7826 214.067 47.2513 213.533 47.6094C213.006 47.9609 212.361 48.1367 211.6 48.1367C210.916 48.1367 210.317 47.9902 209.803 47.6973C209.288 47.3978 208.885 46.9486 208.592 46.3496C208.305 45.7507 208.162 45.0117 208.162 44.1328V37.3945H209.842V44.0156C209.842 44.5169 209.939 44.9564 210.135 45.334C210.33 45.7116 210.6 46.0046 210.945 46.2129C211.297 46.4147 211.697 46.5156 212.146 46.5156C212.57 46.5156 212.99 46.4082 213.406 46.1934C213.829 45.9785 214.178 45.6562 214.451 45.2266C214.725 44.7904 214.861 44.263 214.861 43.6445V37.3945ZM219.217 37.3945H220.838V39.0156H220.955C221.15 38.4753 221.499 38.0423 222 37.7168C222.501 37.3848 223.064 37.2188 223.689 37.2188C224.015 37.2188 224.308 37.2318 224.568 37.2578V38.957C224.497 38.931 224.357 38.9049 224.148 38.8789C223.947 38.8529 223.748 38.8398 223.553 38.8398C223.051 38.8398 222.599 38.9473 222.195 39.1621C221.792 39.377 221.473 39.6732 221.238 40.0508C221.01 40.4284 220.896 40.8516 220.896 41.3203V48H219.217V37.3945ZM231.443 33.8594H236.248C237.316 33.8594 238.211 34.0547 238.934 34.4453C239.656 34.8359 240.193 35.3698 240.545 36.0469C240.896 36.7174 241.072 37.4857 241.072 38.3516C241.072 39.2109 240.896 39.9824 240.545 40.666C240.193 41.3431 239.656 41.8802 238.934 42.2773C238.217 42.668 237.329 42.8633 236.268 42.8633H233.201V48H231.443V33.8594ZM236.189 41.3008C237.257 41.3008 238.048 41.0339 238.562 40.5C239.077 39.9596 239.334 39.2435 239.334 38.3516C239.334 37.4531 239.077 36.7402 238.562 36.2129C238.048 35.6855 237.251 35.4219 236.17 35.4219H233.201V41.3008H236.189ZM242.791 44.9922C242.791 43.8919 243.165 43.1172 243.914 42.668C244.669 42.2188 245.623 41.9518 246.775 41.8672C247.218 41.8346 247.713 41.8053 248.26 41.7793C248.813 41.7467 249.275 41.724 249.646 41.7109V40.8516C249.646 40.168 249.441 39.6439 249.031 39.2793C248.628 38.9082 248.032 38.7227 247.244 38.7227C246.6 38.7227 246.072 38.8561 245.662 39.123C245.252 39.3835 244.985 39.7253 244.861 40.1484H243.104C243.175 39.582 243.396 39.0807 243.768 38.6445C244.139 38.2083 244.63 37.8698 245.242 37.6289C245.861 37.3815 246.554 37.2578 247.322 37.2578C248.338 37.2578 249.256 37.5182 250.076 38.0391C250.896 38.5534 251.307 39.543 251.307 41.0078V48H249.646V46.5547H249.568C249.438 46.8281 249.236 47.0951 248.963 47.3555C248.696 47.6094 248.344 47.8242 247.908 48C247.479 48.1693 246.977 48.2539 246.404 48.2539C245.727 48.2539 245.115 48.1237 244.568 47.8633C244.021 47.6029 243.589 47.2285 243.27 46.7402C242.951 46.2454 242.791 45.6628 242.791 44.9922ZM244.471 45.0703C244.471 45.6107 244.673 46.0273 245.076 46.3203C245.486 46.6068 246.027 46.75 246.697 46.75C247.303 46.75 247.827 46.6296 248.27 46.3887C248.719 46.1478 249.061 45.8288 249.295 45.4316C249.529 45.0345 249.646 44.6081 249.646 44.1523V43.0879L246.971 43.2734C246.176 43.3255 245.561 43.498 245.125 43.791C244.689 44.084 244.471 44.5104 244.471 45.0703ZM255.682 48H254.002V33.8594H255.682V48ZM258.357 37.3945H259.979V39.0547H260.115C260.343 38.4818 260.701 38.0391 261.189 37.7266C261.684 37.4141 262.277 37.2578 262.967 37.2578C263.644 37.2578 264.22 37.4141 264.695 37.7266C265.171 38.0326 265.538 38.4753 265.799 39.0547H265.916C266.196 38.4948 266.609 38.0553 267.156 37.7363C267.703 37.4173 268.351 37.2578 269.1 37.2578C269.744 37.2578 270.307 37.3913 270.789 37.6582C271.277 37.9251 271.658 38.332 271.932 38.8789C272.205 39.4193 272.342 40.0964 272.342 40.9102V48H270.662V40.9297C270.662 40.194 270.46 39.6504 270.057 39.2988C269.653 38.9408 269.139 38.7617 268.514 38.7617C268.032 38.7617 267.615 38.8626 267.264 39.0645C266.912 39.2663 266.645 39.543 266.463 39.8945C266.281 40.2461 266.189 40.6497 266.189 41.1055V48H264.49V40.7539C264.49 40.3633 264.402 40.0182 264.227 39.7188C264.051 39.4128 263.803 39.1784 263.484 39.0156C263.172 38.8464 262.817 38.7617 262.42 38.7617C261.997 38.7617 261.603 38.8757 261.238 39.1035C260.874 39.3249 260.581 39.6341 260.359 40.0312C260.145 40.4284 260.037 40.8776 260.037 41.3789V48H258.357V37.3945Z" fill="#1FAA67"/>
<defs>
<linearGradient id="paint0_linear_212_410" x1="47" y1="31" x2="47" y2="51" gradientUnits="userSpaceOnUse">
<stop stop-color="#1FAA67"/>
<stop offset="1" stop-color="#00E688"/>
</linearGradient>
</defs>
</svg>
